<?xml version="1.0" encoding="UTF-8"?>
<svg width="585px" height="308px" viewBox="0 0 585 308" version="1.1" xmlns="http://www.w3.org/2000/svg" xmlns:xlink="http://www.w3.org/1999/xlink">
    <!-- Generator: Sketch 57.1 (83088) - https://sketch.com -->
    <title>Group 8</title>
    <desc>Created with Sketch.</desc>
    <g id="Broadside-design" stroke="none" stroke-width="1" fill="none" fill-rule="evenodd">
        <g id="Group-8" fill="#FFFFFF">
            <path d="M5.32907052e-14,228.090603 L5.32907052e-14,3.14460254 C8.099,3.12960254 16.196,3.11560254 24.295,3.0996944 C51.251,2.91060254 59.866,32.5746025 59.45,54.2576025 C59.209,66.8056025 57.189,80.5996025 50.096,91.2816025 C44.43,99.8176025 34.589,105.341603 24.295,106.124603 L24.295,109.218603 C54.898,107.070603 61.72,138.388603 61.7070185,162.699603 C61.694,187.550603 53.91,221.148603 24.295,224.927603 C16.196,225.981603 8.099,227.036603 5.32907052e-14,228.090603 L5.32907052e-14,228.090603 Z M24.295,85.5496025 C24.725,85.5296025 24.94,85.5186025 25.37,85.4956025 C35.887,84.0176025 35.259,65.3466025 35.261,58.2616025 C35.262,51.5866025 35.937,32.4166025 25.37,31.6966025 C24.94,31.7056025 24.725,31.7086025 24.295,31.7166025 L24.295,85.5496025 Z M24.295,196.465603 C24.725,196.417603 24.94,196.392603 25.37,196.343603 C38.612,193.756603 37.543,169.581603 37.518,160.269603 C37.498,152.732603 38.368,129.095603 25.37,129.866603 C24.94,129.899603 24.725,129.915603 24.295,129.947603 L24.295,196.465603 Z" id="Fill-1"></path>
            <path d="M71.4939,218.783803 L71.4939,3.01580254 C79.5929,3.00080254 87.6919,2.98580254 95.7919,2.97180254 C124.7909,3.11280254 130.9339,55.3008025 130.9459,75.1048025 C130.9609,96.8678025 124.5319,140.217803 95.7919,142.789803 L95.7919,145.777803 C105.4439,144.927803 115.0989,144.077803 124.7529,143.228803 C127.2009,165.782803 129.6609,188.337803 132.1299,210.890803 C124.0309,211.944803 115.9309,212.998803 107.8319,214.053803 C106.3309,197.666803 104.8349,181.280803 103.3429,164.893803 C100.3209,165.194803 98.8119,165.345803 95.7919,165.648803 L95.7919,215.620803 C87.6919,216.674803 79.5929,217.729803 71.4939,218.783803 L71.4939,218.783803 Z M95.7919,123.066803 C96.2209,123.034803 96.4359,123.018803 96.8659,122.986803 C108.0889,118.303803 106.7929,88.9098025 106.7569,79.1728025 C106.7229,69.5738025 108.3739,35.0688025 96.8659,30.3838025 C96.4359,30.3918025 96.2209,30.3948025 95.7919,30.4028025 L95.7919,123.066803 Z" id="Fill-3"></path>
            <path d="M160.1944,205.383903 C146.7034,195.842903 144.4644,173.703903 142.4544,158.675903 C140.1494,141.450903 139.7674,123.740903 139.7674,106.393903 C139.7674,88.8769025 140.1734,70.9979025 142.4544,53.6129025 C144.5714,37.4819025 147.0434,15.6959025 160.1944,4.56490254 C167.3094,-1.45709746 178.2284,-1.48309746 185.4604,4.49190254 C198.3364,15.1299025 201.1124,36.1949025 203.2004,51.5889025 C205.4394,68.0989025 205.7804,85.2949025 205.7804,102.036903 C205.7804,118.845903 205.4164,136.082903 203.2004,152.687903 C201.0244,168.992903 198.0394,191.712903 185.4604,202.123903 C178.6394,207.766903 168.9254,211.558903 160.1944,205.383903 M175.9984,178.369903 C177.6784,171.289903 177.9434,163.614903 178.3644,156.403903 C179.3864,138.919903 179.4394,121.281903 179.4394,103.775903 C179.4394,86.3169025 179.3914,68.7249025 178.3644,51.2889025 C177.9434,44.1439025 177.6974,36.5049025 175.9984,29.4949025 C174.3864,24.7279025 171.2684,24.7669025 169.6554,29.6129025 C167.8494,36.7389025 167.7324,44.3579025 167.2904,51.6509025 C166.2214,69.2799025 166.2154,87.0179025 166.2154,104.647903 C166.2154,122.230903 166.2164,139.922903 167.2904,157.504903 C167.7264,164.639903 167.8204,172.128903 169.6554,179.087903 C171.2684,183.722903 174.3864,183.349903 175.9984,178.369903" id="Fill-5"></path>
            <path d="M211.2673,200.588503 C215.6413,134.635503 220.0463,68.6865025 224.4913,2.73750254 C237.7163,2.71350254 250.9403,2.68950254 264.1663,2.66550254 C268.5373,65.7745025 272.9443,128.879503 277.3903,191.980503 C269.2913,193.035503 261.1913,194.090503 253.0913,195.144503 C252.5183,183.305503 251.9433,171.466503 251.3713,159.628503 C245.7363,160.227503 242.9203,160.527503 237.2863,161.126503 C236.7123,173.226503 236.1393,185.325503 235.5663,197.425503 C227.4663,198.479503 219.3663,199.534503 211.2673,200.588503 M238.5763,133.209503 C243.1793,132.804503 245.4793,132.601503 250.0813,132.197503 C248.5353,99.6435025 246.9943,67.0875025 245.4573,34.5335025 C244.5543,34.5545025 244.1033,34.5645025 243.2003,34.5855025 C241.6543,67.4595025 240.1133,100.334503 238.5763,133.209503" id="Fill-7"></path>
            <path d="M284.9196,191.000803 L284.9196,2.62780254 C293.0196,2.61380254 301.1186,2.59880254 309.2186,2.58380254 C321.3266,2.02280254 330.4936,11.1388025 335.6676,21.1778025 C346.6536,42.4888025 346.634683,69.6588025 346.634683,92.7428025 C346.6356,116.440803 346.7306,144.715803 335.6676,165.753803 C330.2646,176.029803 322.2336,186.651803 309.2186,187.837803 C301.1186,188.891803 293.0196,189.946803 284.9196,191.000803 L284.9196,191.000803 Z M309.2186,162.647803 C309.6486,162.599803 309.8636,162.575803 310.2936,162.526803 C317.1516,161.044803 317.6766,150.006803 318.3576,144.929803 C320.5196,128.808803 320.1846,111.215803 320.1846,94.4868025 C320.1846,77.8418025 320.1626,60.8058025 318.3576,44.2858025 C317.8576,39.7108025 317.1746,36.1028025 316.2076,33.5528025 C314.2726,28.4558025 312.8746,27.7038025 310.2936,27.7538025 C309.8636,27.7608025 309.6486,27.7658025 309.2186,27.7748025 L309.2186,162.647803 Z" id="Fill-9"></path>
            <path d="M357.4969,121.494003 C364.8439,120.854003 372.1909,120.215003 379.5379,119.574003 C378.7849,124.678003 378.4019,129.814003 378.4629,134.796003 C378.5319,140.396003 378.7449,158.180003 385.0219,157.897003 C390.0349,157.671003 390.9219,145.857003 390.6119,141.039003 C389.7699,127.916003 385.2689,116.750003 378.1409,105.795003 C370.8129,94.5330025 363.7419,83.1960025 359.0029,70.2220025 C356.7849,61.9030025 355.6229,54.6270025 355.3459,46.1440025 C354.9749,34.6940025 357.0379,21.5840025 363.7329,11.8080025 C368.5889,4.71600254 376.3419,-0.0039974596 385.0219,-1.13686838e-13 C393.4749,0.0020025404 401.2729,4.24800254 406.3099,10.9640025 C412.5279,19.2560025 414.9349,30.2810025 414.8039,40.4680025 C414.7119,47.5580025 413.9439,54.9890025 413.0829,57.9030025 C412.8689,58.8250025 412.7599,59.2850025 412.5449,60.2060025 C405.2349,60.5350025 397.9229,60.8630025 390.6119,61.1920025 C391.3649,56.1600025 391.7509,51.0900025 391.6869,46.1610025 C391.6149,40.5440025 391.3639,22.7360025 385.0219,22.5190025 C379.8469,22.3440025 379.3179,34.3160025 379.5379,39.1990025 C379.9229,47.7310025 381.6209,54.7130025 385.1289,62.4170025 C388.3369,69.4630025 392.5499,76.2130025 397.2789,82.6070025 C402.1359,89.1740025 406.1859,96.6820025 409.3209,104.355003 C413.0469,113.481003 414.5539,122.857003 414.8039,132.427003 C415.0929,143.542003 412.8459,156.625003 406.4169,166.149003 C401.4959,173.436003 393.9199,179.176003 385.0219,180.419003 C376.9109,181.550003 368.9539,178.133003 363.8399,171.903003 C357.1589,163.762003 355.4019,152.043003 355.3459,142.191003 C355.3139,136.295003 355.6609,129.798003 357.0679,123.780003 C357.2389,122.866003 357.3249,122.408003 357.4969,121.494003" id="Fill-11"></path>
            <path d="M424.5903,172.819003 L424.5903,2.37500254 C432.6893,2.36000254 440.7893,2.34500254 448.8883,2.33100254 L448.8883,169.656003 C440.7893,170.710003 432.6893,171.765003 424.5903,172.819003" id="Fill-13"></path>
            <path d="M462.0064,167.948403 L462.0064,2.30740254 C470.1054,2.29240254 478.2054,2.27740254 486.3044,2.26340254 C497.7494,1.77440254 507.1694,9.07740254 512.7514,18.5274025 C523.4614,36.6594025 523.7164,60.9304025 523.7164,81.0554025 C523.7164,101.810403 523.1884,126.079403 512.7514,145.032403 C507.2494,155.022403 498.1424,163.675403 486.3044,164.785403 C478.2054,165.839403 470.1054,166.894403 462.0064,167.948403 L462.0064,167.948403 Z M486.3044,142.686403 C486.7344,142.638403 486.9484,142.613403 487.3794,142.565403 C493.6164,141.472403 494.9224,131.943403 495.4424,127.030403 C496.9814,112.474403 497.2704,97.4424025 497.2704,82.8004025 C497.2704,68.2414025 497.2364,53.2414025 495.4424,38.8144025 C494.9444,34.8104025 494.2604,31.6444025 493.2924,29.4124025 C491.3564,24.9494025 489.9594,24.2924025 487.3794,24.3414025 C486.9484,24.3494025 486.7344,24.3534025 486.3044,24.3624025 L486.3044,142.686403 Z" id="Fill-15"></path>
            <path d="M534.5789,158.501203 L534.5789,2.17520254 C551.0989,2.14620254 567.6189,2.11620254 584.1379,2.08620254 L584.1379,23.5232025 C575.7159,23.6932025 567.2969,23.8622025 558.8749,24.0322025 L558.8749,66.7682025 C565.1099,66.4202025 571.3449,66.0702025 577.5819,65.7212025 L577.5819,87.1772025 C571.3449,87.6392025 565.1099,88.1022025 558.8749,88.5642025 L558.8749,133.437203 C567.2969,132.496203 575.7159,131.555203 584.1379,130.612203 L584.1379,152.050203 C567.6189,154.200203 551.0989,156.351203 534.5789,158.501203" id="Fill-17"></path>
            <path d="M204.8039,219.624203 C209.9879,234.326203 215.0789,249.058203 220.0859,263.821203 C222.5699,271.227203 224.9459,278.690203 226.8449,286.271203 C226.8749,286.270203 226.8879,286.270203 226.9179,286.268203 C226.8449,282.585203 226.6989,278.271203 226.6249,273.319203 C226.5509,268.368203 226.5509,264.557203 226.5509,261.890203 L226.5509,216.793203 C230.0489,216.338203 231.7969,216.110203 235.2949,215.655203 L235.2949,305.696203 C231.0919,305.704203 228.9899,305.709203 224.7869,305.718203 C219.7069,290.299203 214.5439,274.908203 209.2849,259.547203 C206.9539,252.772203 204.7089,245.949203 202.8929,239.014203 C202.8339,239.020203 202.8049,239.023203 202.7459,239.029203 C202.8929,243.063203 202.9669,247.352203 203.0399,251.886203 C203.1139,256.421203 203.1869,259.731203 203.1869,261.940203 L203.1869,305.766203 C199.6899,305.773203 197.9419,305.778203 194.4439,305.785203 L194.4439,220.972203 C198.5889,220.434203 200.6599,220.163203 204.8039,219.624203" id="Fill-19"></path>
            <path d="M267.3278,209.872803 C289.9168,207.053803 292.5098,242.591803 292.530927,256.888803 C292.5518,272.539803 289.9908,306.937803 267.3278,307.237803 C244.9318,307.535803 242.4348,276.113803 242.1258,260.223803 C241.8028,243.597803 246.1528,212.515803 267.3278,209.872803 M282.683852,257.538803 C282.6778,248.986803 282.2488,239.748803 279.0838,231.542803 C276.7738,225.553803 272.8378,222.827803 267.6218,223.421803 C262.2578,224.031803 257.9798,227.753803 255.6448,233.652803 C252.4108,241.826803 251.9068,251.086803 251.897646,259.576803 C251.8888,267.677803 252.2658,276.558803 255.3508,284.352803 C257.8158,290.575803 262.2578,293.749803 267.3278,293.655803 C272.6908,293.557803 276.7058,290.351803 279.0838,283.875803 C282.1848,275.433803 282.6898,266.219803 282.683852,257.538803" id="Fill-21"></path>
            <path d="M302.668,206.886003 C305.537,224.230003 308.378,241.578003 311.192,258.931003 C312.393,266.488003 313.607,274.045003 314.72,281.616003 C315.071,283.895003 315.249,285.036003 315.6,287.320003 C315.63,287.319003 315.645,287.318003 315.674,287.318003 C317.064,277.656003 318.654,268.020003 320.156,258.376003 C323.047,240.085003 325.913,221.789003 328.753,203.490003 C332.693,202.979003 334.662,202.722003 338.6,202.209003 C332.693,236.663003 326.673,271.097003 320.524,305.509003 C316.614,305.517003 314.661,305.521003 310.751,305.530003 C304.849,273.059003 298.831,240.611003 292.676,208.186003 C296.673,207.667003 298.671,207.406003 302.668,206.886003" id="Fill-23"></path>
            <path d="M379.4526,196.891903 L379.4526,213.009903 C370.8806,213.962903 362.3076,214.914903 353.7356,215.868903 L353.7356,244.571903 C361.4006,243.987903 369.0676,243.401903 376.7336,242.818903 L376.7336,258.730903 C369.0676,259.171903 361.4006,259.611903 353.7356,260.050903 L353.7356,289.805903 C362.3076,289.623903 370.8806,289.442903 379.4526,289.260903 L379.4526,305.378903 C367.8176,305.404903 356.1836,305.430903 344.5486,305.454903 L344.5486,201.434903 C356.1836,199.920903 367.8176,198.405903 379.4526,196.891903" id="Fill-25"></path>
            <path d="M400.981,194.089903 C403.797,212.976903 406.589,231.867903 409.358,250.761903 C410.961,262.153903 412.52,273.554903 413.84,284.983903 C413.869,284.983903 413.884,284.983903 413.913,284.982903 C414.707,278.382903 415.103,275.075903 415.898,268.445903 C416.64,262.404903 417.442,256.367903 418.323,250.345903 C421.162,230.478903 423.978,210.606903 426.772,190.732903 C432.415,189.998903 435.238,189.631903 440.881,188.896903 L440.881,305.244903 C437.413,305.250903 435.678,305.255903 432.21,305.263903 L432.21,237.601903 C432.21,234.309903 432.21,229.699903 432.284,223.929903 C432.371,217.666903 432.415,214.532903 432.504,208.265903 C432.445,208.271903 432.415,208.275903 432.356,208.281903 C431.035,218.764903 429.716,229.249903 428.241,239.711903 C425.087,261.575903 421.903,283.437903 418.689,305.292903 C414.751,305.301903 412.782,305.306903 408.844,305.314903 C405.713,284.060903 402.554,262.813903 399.364,241.568903 C399.218,240.786903 398.556,236.389903 397.454,228.101903 C396.542,221.790903 396.087,218.644903 395.175,212.366903 C395.118,212.373903 395.088,212.376903 395.029,212.383903 C395.174,221.842903 395.362,231.302903 395.397,240.763903 L395.397,305.344903 C391.928,305.351903 390.194,305.354903 386.726,305.362903 L386.726,195.944903 C392.428,195.202903 395.279,194.831903 400.981,194.089903" id="Fill-27"></path>
            <path d="M480.9244,302.901103 C477.9114,304.477103 474.3104,305.171103 469.9764,305.181103 C463.4604,305.195103 456.9454,305.209103 450.4294,305.224103 L450.4294,187.654103 C456.7004,186.838103 462.9714,186.021103 469.2414,185.206103 C476.9614,183.754103 483.8484,187.408103 486.4344,195.011103 C488.9494,201.569103 489.2544,209.011103 489.3014,215.855103 C489.3604,224.696103 488.0294,235.415103 482.4674,242.754103 C490.2904,249.549103 491.4944,261.545103 491.2844,271.102103 C491.0614,281.227103 491.0994,296.686103 480.9244,302.901103 M468.5804,235.474103 C478.6924,235.632103 480.7604,226.189103 480.3364,217.924103 C479.9164,209.769103 479.2674,201.019103 468.6524,202.581103 C465.0384,202.985103 463.2304,203.187103 459.6154,203.591103 L459.6154,236.161103 C463.2014,235.886103 464.9934,235.750103 468.5804,235.474103 M476.2954,253.190103 C474.9044,252.506103 472.6214,252.367103 470.0484,252.517103 C465.8754,252.759103 463.7894,252.882103 459.6154,253.126103 L459.6154,288.240103 C463.6414,288.159103 465.6554,288.117103 469.6824,288.035103 C480.4074,288.856103 482.6754,279.182103 482.3204,270.396103 C482.0714,264.241103 481.9764,255.980103 476.2954,253.190103" id="Fill-29"></path>
            <path d="M534.3395,176.732003 L534.3395,195.795003 C525.7665,196.747003 517.1945,197.699003 508.6225,198.653003 L508.6225,232.764003 C516.2895,232.180003 523.9545,231.596003 531.6205,231.011003 L531.6205,249.840003 C523.9545,250.281003 516.2895,250.721003 508.6225,251.160003 L508.6225,286.523003 C517.1945,286.341003 525.7665,286.159003 534.3395,285.977003 L534.3395,305.040003 C522.7065,305.064003 511.0715,305.090003 499.4385,305.116003 L499.4385,181.275003 L534.3395,176.732003 Z" id="Fill-31"></path>
            <path d="M584.0776,304.930203 C580.1096,304.939203 578.1266,304.944203 574.1596,304.952203 C571.9106,295.004203 572.2536,284.476203 572.1026,274.525203 C571.9996,267.831203 572.7006,252.481203 562.0366,252.992203 C558.1276,253.198203 556.1726,253.300203 552.2656,253.506203 L552.2656,305.000203 C548.5916,305.007203 546.7536,305.012203 543.0806,305.020203 L543.0806,175.595203 C549.3746,174.776203 555.6686,173.956203 561.9636,173.137203 C582.2236,170.138203 582.4596,197.729203 582.4626,210.616203 C582.4636,221.548203 581.6766,234.968203 574.3796,244.336203 C581.1446,251.554203 581.2896,263.468203 581.2126,272.703203 C581.1236,283.234203 581.2516,294.146203 584.1516,304.353203 C584.1216,304.584203 584.1076,304.699203 584.0776,304.930203 M561.4486,192.216203 C557.7746,192.626203 555.9376,192.831203 552.2656,193.242203 L552.2656,234.848203 C555.9096,234.590203 557.7316,234.461203 561.3756,234.202203 C572.8306,233.949203 573.4496,220.406203 573.4246,212.398203 C573.4016,205.130203 573.2866,189.856203 561.4486,192.216203" id="Fill-33"></path>
            <path d="M33.0923,298.379403 C30.9293,303.683403 23.6723,307.811403 18.2173,307.757926 C9.3403,307.670403 3.3113,299.168403 2.5123,290.902403 C5.8673,290.080403 7.5433,289.662403 10.8973,288.816403 C11.4123,294.632403 13.8733,298.907403 18.5693,298.641403 C28.3463,298.090403 29.0663,282.961403 29.0263,275.558403 C26.4163,281.307403 22.2733,284.579403 17.1633,284.940403 C6.6303,285.682403 1.4003,273.721403 1.2003,265.068403 C0.9503,254.353403 7.9313,243.189403 19.0663,241.589403 C34.9843,239.301403 37.7353,260.644403 37.5383,271.617403 C37.3773,280.647403 36.4973,290.031403 33.0923,298.379403 M19.1533,250.797403 C12.8283,251.514403 9.9963,255.869403 10.0042831,264.473403 C10.0093,272.090403 12.7813,275.947403 18.8263,275.559403 C24.5813,275.191403 27.9193,269.682403 27.9033573,262.253403 C27.8873,255.102403 25.1873,250.113403 19.1533,250.797403" id="Fill-36"></path>
            <path d="M82.2554,277.810703 C82.8914,277.072703 83.1724,276.652703 83.1724,276.652703 C81.5384,276.844703 79.5504,276.956703 77.1354,277.092703 C66.8804,277.664703 56.6274,278.236703 46.3744,278.808703 C46.3604,274.747703 46.3524,272.717703 46.3384,268.657703 C56.5824,267.883703 66.8264,267.110703 77.0724,266.337703 C79.4144,266.159703 81.4734,266.004703 83.1054,265.981703 C82.0324,264.753703 80.7444,263.046703 79.2414,261.072703 C78.9844,260.693703 78.8554,260.505703 78.5964,260.127703 C74.7614,255.024703 72.8464,252.521703 69.0194,247.606703 C73.2724,247.132703 75.3984,246.895703 79.6514,246.421703 C85.3234,254.339703 90.9064,262.311703 96.4174,270.342703 C91.0564,279.124703 85.5564,287.822703 79.9524,296.451703 C75.6834,296.538703 73.5474,296.583703 69.2784,296.670703 C73.1204,291.135703 75.0404,288.319703 78.8724,282.588703 C79.6474,281.354703 80.7754,279.799703 82.2554,277.810703" id="Fill-39"></path>
            <path d="M122.3518,306.358203 C118.8228,306.367203 117.0588,306.370203 113.5298,306.378203 C113.3828,288.133203 113.2348,269.887203 113.0878,251.642203 C111.0258,255.180203 107.2888,256.888203 102.9648,257.263203 C102.6758,257.287203 102.2098,257.352203 101.6678,257.269203 C101.3228,257.218203 101.0178,257.220203 100.8748,257.233203 C100.8448,257.152203 100.8308,257.109203 100.8008,257.028203 C100.7678,252.723203 100.7528,250.570203 100.7208,246.266203 C100.7498,246.178203 100.7628,246.134203 100.7918,246.047203 C108.8758,245.153203 113.9608,238.784203 114.3598,230.769203 C117.2938,230.389203 118.7618,230.197203 121.6958,229.818203 C121.9148,255.331203 122.1328,280.845203 122.3518,306.358203" id="Fill-41"></path>
            <path d="M148.2675,226.161103 C165.7225,223.942103 167.3485,254.290103 167.4915,265.665103 C167.6375,277.302103 167.1485,307.809103 149.0855,307.757169 C131.1255,307.706103 130.1765,280.425103 129.9305,268.138103 C129.6695,255.143103 131.5765,228.283103 148.2675,226.161103 M148.3835,237.641103 C137.4325,238.925103 139.1005,259.770103 139.1615,267.530103 C139.2145,274.354103 137.8215,296.799103 148.9725,296.504103 C160.1865,296.207103 158.4175,273.311103 158.2605,266.272103 C158.1255,260.103103 159.4785,236.339103 148.3835,237.641103" id="Fill-43"></path>
        </g>
    </g>
</svg>