<?xml version="1.0" encoding="UTF-8"?>
<svg width="2243px" height="308px" viewBox="0 0 2243 308" version="1.1" xmlns="http://www.w3.org/2000/svg" xmlns:xlink="http://www.w3.org/1999/xlink">
    <!-- Generator: Sketch 58 (84663) - https://sketch.com -->
    <title>Group 12</title>
    <desc>Created with Sketch.</desc>
    <g id="Broadside-design" stroke="none" stroke-width="1" fill="none" fill-rule="evenodd">
        <g id="Group-12" fill="#FF6C2F">
            <g id="Group-6-Copy">
                <path d="M5.32907052e-14,228.090603 L5.32907052e-14,3.14460254 C8.099,3.12960254 16.196,3.11560254 24.295,3.0996944 C51.251,2.91060254 59.866,32.5746025 59.45,54.2576025 C59.209,66.8056025 57.189,80.5996025 50.096,91.2816025 C44.43,99.8176025 34.589,105.341603 24.295,106.124603 L24.295,109.218603 C54.898,107.070603 61.72,138.388603 61.7070185,162.699603 C61.694,187.550603 53.91,221.148603 24.295,224.927603 C16.196,225.981603 8.099,227.036603 5.32907052e-14,228.090603 L5.32907052e-14,228.090603 Z M24.295,85.5496025 C24.725,85.5296025 24.94,85.5186025 25.37,85.4956025 C35.887,84.0176025 35.259,65.3466025 35.261,58.2616025 C35.262,51.5866025 35.937,32.4166025 25.37,31.6966025 C24.94,31.7056025 24.725,31.7086025 24.295,31.7166025 L24.295,85.5496025 Z M24.295,196.465603 C24.725,196.417603 24.94,196.392603 25.37,196.343603 C38.612,193.756603 37.543,169.581603 37.518,160.269603 C37.498,152.732603 38.368,129.095603 25.37,129.866603 C24.94,129.899603 24.725,129.915603 24.295,129.947603 L24.295,196.465603 Z" id="Fill-1"></path>
                <path d="M71.4939,218.783803 L71.4939,3.01580254 C79.5929,3.00080254 87.6919,2.98580254 95.7919,2.97180254 C124.7909,3.11280254 130.9339,55.3008025 130.9459,75.1048025 C130.9609,96.8678025 124.5319,140.217803 95.7919,142.789803 L95.7919,145.777803 C105.4439,144.927803 115.0989,144.077803 124.7529,143.228803 C127.2009,165.782803 129.6609,188.337803 132.1299,210.890803 C124.0309,211.944803 115.9309,212.998803 107.8319,214.053803 C106.3309,197.666803 104.8349,181.280803 103.3429,164.893803 C100.3209,165.194803 98.8119,165.345803 95.7919,165.648803 L95.7919,215.620803 C87.6919,216.674803 79.5929,217.729803 71.4939,218.783803 L71.4939,218.783803 Z M95.7919,123.066803 C96.2209,123.034803 96.4359,123.018803 96.8659,122.986803 C108.0889,118.303803 106.7929,88.9098025 106.7569,79.1728025 C106.7229,69.5738025 108.3739,35.0688025 96.8659,30.3838025 C96.4359,30.3918025 96.2209,30.3948025 95.7919,30.4028025 L95.7919,123.066803 Z" id="Fill-3"></path>
                <path d="M160.1944,205.383903 C146.7034,195.842903 144.4644,173.703903 142.4544,158.675903 C140.1494,141.450903 139.7674,123.740903 139.7674,106.393903 C139.7674,88.8769025 140.1734,70.9979025 142.4544,53.6129025 C144.5714,37.4819025 147.0434,15.6959025 160.1944,4.56490254 C167.3094,-1.45709746 178.2284,-1.48309746 185.4604,4.49190254 C198.3364,15.1299025 201.1124,36.1949025 203.2004,51.5889025 C205.4394,68.0989025 205.7804,85.2949025 205.7804,102.036903 C205.7804,118.845903 205.4164,136.082903 203.2004,152.687903 C201.0244,168.992903 198.0394,191.712903 185.4604,202.123903 C178.6394,207.766903 168.9254,211.558903 160.1944,205.383903 M175.9984,178.369903 C177.6784,171.289903 177.9434,163.614903 178.3644,156.403903 C179.3864,138.919903 179.4394,121.281903 179.4394,103.775903 C179.4394,86.3169025 179.3914,68.7249025 178.3644,51.2889025 C177.9434,44.1439025 177.6974,36.5049025 175.9984,29.4949025 C174.3864,24.7279025 171.2684,24.7669025 169.6554,29.6129025 C167.8494,36.7389025 167.7324,44.3579025 167.2904,51.6509025 C166.2214,69.2799025 166.2154,87.0179025 166.2154,104.647903 C166.2154,122.230903 166.2164,139.922903 167.2904,157.504903 C167.7264,164.639903 167.8204,172.128903 169.6554,179.087903 C171.2684,183.722903 174.3864,183.349903 175.9984,178.369903" id="Fill-5"></path>
                <path d="M211.2673,200.588503 C215.6413,134.635503 220.0463,68.6865025 224.4913,2.73750254 C237.7163,2.71350254 250.9403,2.68950254 264.1663,2.66550254 C268.5373,65.7745025 272.9443,128.879503 277.3903,191.980503 C269.2913,193.035503 261.1913,194.090503 253.0913,195.144503 C252.5183,183.305503 251.9433,171.466503 251.3713,159.628503 C245.7363,160.227503 242.9203,160.527503 237.2863,161.126503 C236.7123,173.226503 236.1393,185.325503 235.5663,197.425503 C227.4663,198.479503 219.3663,199.534503 211.2673,200.588503 M238.5763,133.209503 C243.1793,132.804503 245.4793,132.601503 250.0813,132.197503 C248.5353,99.6435025 246.9943,67.0875025 245.4573,34.5335025 C244.5543,34.5545025 244.1033,34.5645025 243.2003,34.5855025 C241.6543,67.4595025 240.1133,100.334503 238.5763,133.209503" id="Fill-7"></path>
                <path d="M284.9196,191.000803 L284.9196,2.62780254 C293.0196,2.61380254 301.1186,2.59880254 309.2186,2.58380254 C321.3266,2.02280254 330.4936,11.1388025 335.6676,21.1778025 C346.6536,42.4888025 346.634683,69.6588025 346.634683,92.7428025 C346.6356,116.440803 346.7306,144.715803 335.6676,165.753803 C330.2646,176.029803 322.2336,186.651803 309.2186,187.837803 C301.1186,188.891803 293.0196,189.946803 284.9196,191.000803 L284.9196,191.000803 Z M309.2186,162.647803 C309.6486,162.599803 309.8636,162.575803 310.2936,162.526803 C317.1516,161.044803 317.6766,150.006803 318.3576,144.929803 C320.5196,128.808803 320.1846,111.215803 320.1846,94.4868025 C320.1846,77.8418025 320.1626,60.8058025 318.3576,44.2858025 C317.8576,39.7108025 317.1746,36.1028025 316.2076,33.5528025 C314.2726,28.4558025 312.8746,27.7038025 310.2936,27.7538025 C309.8636,27.7608025 309.6486,27.7658025 309.2186,27.7748025 L309.2186,162.647803 Z" id="Fill-9"></path>
                <path d="M357.4969,121.494003 C364.8439,120.854003 372.1909,120.215003 379.5379,119.574003 C378.7849,124.678003 378.4019,129.814003 378.4629,134.796003 C378.5319,140.396003 378.7449,158.180003 385.0219,157.897003 C390.0349,157.671003 390.9219,145.857003 390.6119,141.039003 C389.7699,127.916003 385.2689,116.750003 378.1409,105.795003 C370.8129,94.5330025 363.7419,83.1960025 359.0029,70.2220025 C356.7849,61.9030025 355.6229,54.6270025 355.3459,46.1440025 C354.9749,34.6940025 357.0379,21.5840025 363.7329,11.8080025 C368.5889,4.71600254 376.3419,-0.0039974596 385.0219,-1.13686838e-13 C393.4749,0.0020025404 401.2729,4.24800254 406.3099,10.9640025 C412.5279,19.2560025 414.9349,30.2810025 414.8039,40.4680025 C414.7119,47.5580025 413.9439,54.9890025 413.0829,57.9030025 C412.8689,58.8250025 412.7599,59.2850025 412.5449,60.2060025 C405.2349,60.5350025 397.9229,60.8630025 390.6119,61.1920025 C391.3649,56.1600025 391.7509,51.0900025 391.6869,46.1610025 C391.6149,40.5440025 391.3639,22.7360025 385.0219,22.5190025 C379.8469,22.3440025 379.3179,34.3160025 379.5379,39.1990025 C379.9229,47.7310025 381.6209,54.7130025 385.1289,62.4170025 C388.3369,69.4630025 392.5499,76.2130025 397.2789,82.6070025 C402.1359,89.1740025 406.1859,96.6820025 409.3209,104.355003 C413.0469,113.481003 414.5539,122.857003 414.8039,132.427003 C415.0929,143.542003 412.8459,156.625003 406.4169,166.149003 C401.4959,173.436003 393.9199,179.176003 385.0219,180.419003 C376.9109,181.550003 368.9539,178.133003 363.8399,171.903003 C357.1589,163.762003 355.4019,152.043003 355.3459,142.191003 C355.3139,136.295003 355.6609,129.798003 357.0679,123.780003 C357.2389,122.866003 357.3249,122.408003 357.4969,121.494003" id="Fill-11"></path>
                <path d="M424.5903,172.819003 L424.5903,2.37500254 C432.6893,2.36000254 440.7893,2.34500254 448.8883,2.33100254 L448.8883,169.656003 C440.7893,170.710003 432.6893,171.765003 424.5903,172.819003" id="Fill-13"></path>
                <path d="M462.0064,167.948403 L462.0064,2.30740254 C470.1054,2.29240254 478.2054,2.27740254 486.3044,2.26340254 C497.7494,1.77440254 507.1694,9.07740254 512.7514,18.5274025 C523.4614,36.6594025 523.7164,60.9304025 523.7164,81.0554025 C523.7164,101.810403 523.1884,126.079403 512.7514,145.032403 C507.2494,155.022403 498.1424,163.675403 486.3044,164.785403 C478.2054,165.839403 470.1054,166.894403 462.0064,167.948403 L462.0064,167.948403 Z M486.3044,142.686403 C486.7344,142.638403 486.9484,142.613403 487.3794,142.565403 C493.6164,141.472403 494.9224,131.943403 495.4424,127.030403 C496.9814,112.474403 497.2704,97.4424025 497.2704,82.8004025 C497.2704,68.2414025 497.2364,53.2414025 495.4424,38.8144025 C494.9444,34.8104025 494.2604,31.6444025 493.2924,29.4124025 C491.3564,24.9494025 489.9594,24.2924025 487.3794,24.3414025 C486.9484,24.3494025 486.7344,24.3534025 486.3044,24.3624025 L486.3044,142.686403 Z" id="Fill-15"></path>
                <path d="M534.5789,158.501203 L534.5789,2.17520254 C551.0989,2.14620254 567.6189,2.11620254 584.1379,2.08620254 L584.1379,23.5232025 C575.7159,23.6932025 567.2969,23.8622025 558.8749,24.0322025 L558.8749,66.7682025 C565.1099,66.4202025 571.3449,66.0702025 577.5819,65.7212025 L577.5819,87.1772025 C571.3449,87.6392025 565.1099,88.1022025 558.8749,88.5642025 L558.8749,133.437203 C567.2969,132.496203 575.7159,131.555203 584.1379,130.612203 L584.1379,152.050203 C567.6189,154.200203 551.0989,156.351203 534.5789,158.501203" id="Fill-17"></path>
                <path d="M204.8039,219.624203 C209.9879,234.326203 215.0789,249.058203 220.0859,263.821203 C222.5699,271.227203 224.9459,278.690203 226.8449,286.271203 C226.8749,286.270203 226.8879,286.270203 226.9179,286.268203 C226.8449,282.585203 226.6989,278.271203 226.6249,273.319203 C226.5509,268.368203 226.5509,264.557203 226.5509,261.890203 L226.5509,216.793203 C230.0489,216.338203 231.7969,216.110203 235.2949,215.655203 L235.2949,305.696203 C231.0919,305.704203 228.9899,305.709203 224.7869,305.718203 C219.7069,290.299203 214.5439,274.908203 209.2849,259.547203 C206.9539,252.772203 204.7089,245.949203 202.8929,239.014203 C202.8339,239.020203 202.8049,239.023203 202.7459,239.029203 C202.8929,243.063203 202.9669,247.352203 203.0399,251.886203 C203.1139,256.421203 203.1869,259.731203 203.1869,261.940203 L203.1869,305.766203 C199.6899,305.773203 197.9419,305.778203 194.4439,305.785203 L194.4439,220.972203 C198.5889,220.434203 200.6599,220.163203 204.8039,219.624203" id="Fill-19"></path>
                <path d="M267.3278,209.872803 C289.9168,207.053803 292.5098,242.591803 292.530927,256.888803 C292.5518,272.539803 289.9908,306.937803 267.3278,307.237803 C244.9318,307.535803 242.4348,276.113803 242.1258,260.223803 C241.8028,243.597803 246.1528,212.515803 267.3278,209.872803 M282.683852,257.538803 C282.6778,248.986803 282.2488,239.748803 279.0838,231.542803 C276.7738,225.553803 272.8378,222.827803 267.6218,223.421803 C262.2578,224.031803 257.9798,227.753803 255.6448,233.652803 C252.4108,241.826803 251.9068,251.086803 251.897646,259.576803 C251.8888,267.677803 252.2658,276.558803 255.3508,284.352803 C257.8158,290.575803 262.2578,293.749803 267.3278,293.655803 C272.6908,293.557803 276.7058,290.351803 279.0838,283.875803 C282.1848,275.433803 282.6898,266.219803 282.683852,257.538803" id="Fill-21"></path>
                <path d="M302.668,206.886003 C305.537,224.230003 308.378,241.578003 311.192,258.931003 C312.393,266.488003 313.607,274.045003 314.72,281.616003 C315.071,283.895003 315.249,285.036003 315.6,287.320003 C315.63,287.319003 315.645,287.318003 315.674,287.318003 C317.064,277.656003 318.654,268.020003 320.156,258.376003 C323.047,240.085003 325.913,221.789003 328.753,203.490003 C332.693,202.979003 334.662,202.722003 338.6,202.209003 C332.693,236.663003 326.673,271.097003 320.524,305.509003 C316.614,305.517003 314.661,305.521003 310.751,305.530003 C304.849,273.059003 298.831,240.611003 292.676,208.186003 C296.673,207.667003 298.671,207.406003 302.668,206.886003" id="Fill-23"></path>
                <path d="M379.4526,196.891903 L379.4526,213.009903 C370.8806,213.962903 362.3076,214.914903 353.7356,215.868903 L353.7356,244.571903 C361.4006,243.987903 369.0676,243.401903 376.7336,242.818903 L376.7336,258.730903 C369.0676,259.171903 361.4006,259.611903 353.7356,260.050903 L353.7356,289.805903 C362.3076,289.623903 370.8806,289.442903 379.4526,289.260903 L379.4526,305.378903 C367.8176,305.404903 356.1836,305.430903 344.5486,305.454903 L344.5486,201.434903 C356.1836,199.920903 367.8176,198.405903 379.4526,196.891903" id="Fill-25"></path>
                <path d="M400.981,194.089903 C403.797,212.976903 406.589,231.867903 409.358,250.761903 C410.961,262.153903 412.52,273.554903 413.84,284.983903 C413.869,284.983903 413.884,284.983903 413.913,284.982903 C414.707,278.382903 415.103,275.075903 415.898,268.445903 C416.64,262.404903 417.442,256.367903 418.323,250.345903 C421.162,230.478903 423.978,210.606903 426.772,190.732903 C432.415,189.998903 435.238,189.631903 440.881,188.896903 L440.881,305.244903 C437.413,305.250903 435.678,305.255903 432.21,305.263903 L432.21,237.601903 C432.21,234.309903 432.21,229.699903 432.284,223.929903 C432.371,217.666903 432.415,214.532903 432.504,208.265903 C432.445,208.271903 432.415,208.275903 432.356,208.281903 C431.035,218.764903 429.716,229.249903 428.241,239.711903 C425.087,261.575903 421.903,283.437903 418.689,305.292903 C414.751,305.301903 412.782,305.306903 408.844,305.314903 C405.713,284.060903 402.554,262.813903 399.364,241.568903 C399.218,240.786903 398.556,236.389903 397.454,228.101903 C396.542,221.790903 396.087,218.644903 395.175,212.366903 C395.118,212.373903 395.088,212.376903 395.029,212.383903 C395.174,221.842903 395.362,231.302903 395.397,240.763903 L395.397,305.344903 C391.928,305.351903 390.194,305.354903 386.726,305.362903 L386.726,195.944903 C392.428,195.202903 395.279,194.831903 400.981,194.089903" id="Fill-27"></path>
                <path d="M480.9244,302.901103 C477.9114,304.477103 474.3104,305.171103 469.9764,305.181103 C463.4604,305.195103 456.9454,305.209103 450.4294,305.224103 L450.4294,187.654103 C456.7004,186.838103 462.9714,186.021103 469.2414,185.206103 C476.9614,183.754103 483.8484,187.408103 486.4344,195.011103 C488.9494,201.569103 489.2544,209.011103 489.3014,215.855103 C489.3604,224.696103 488.0294,235.415103 482.4674,242.754103 C490.2904,249.549103 491.4944,261.545103 491.2844,271.102103 C491.0614,281.227103 491.0994,296.686103 480.9244,302.901103 M468.5804,235.474103 C478.6924,235.632103 480.7604,226.189103 480.3364,217.924103 C479.9164,209.769103 479.2674,201.019103 468.6524,202.581103 C465.0384,202.985103 463.2304,203.187103 459.6154,203.591103 L459.6154,236.161103 C463.2014,235.886103 464.9934,235.750103 468.5804,235.474103 M476.2954,253.190103 C474.9044,252.506103 472.6214,252.367103 470.0484,252.517103 C465.8754,252.759103 463.7894,252.882103 459.6154,253.126103 L459.6154,288.240103 C463.6414,288.159103 465.6554,288.117103 469.6824,288.035103 C480.4074,288.856103 482.6754,279.182103 482.3204,270.396103 C482.0714,264.241103 481.9764,255.980103 476.2954,253.190103" id="Fill-29"></path>
                <path d="M534.3395,176.732003 L534.3395,195.795003 C525.7665,196.747003 517.1945,197.699003 508.6225,198.653003 L508.6225,232.764003 C516.2895,232.180003 523.9545,231.596003 531.6205,231.011003 L531.6205,249.840003 C523.9545,250.281003 516.2895,250.721003 508.6225,251.160003 L508.6225,286.523003 C517.1945,286.341003 525.7665,286.159003 534.3395,285.977003 L534.3395,305.040003 C522.7065,305.064003 511.0715,305.090003 499.4385,305.116003 L499.4385,181.275003 L534.3395,176.732003 Z" id="Fill-31"></path>
                <path d="M584.0776,304.930203 C580.1096,304.939203 578.1266,304.944203 574.1596,304.952203 C571.9106,295.004203 572.2536,284.476203 572.1026,274.525203 C571.9996,267.831203 572.7006,252.481203 562.0366,252.992203 C558.1276,253.198203 556.1726,253.300203 552.2656,253.506203 L552.2656,305.000203 C548.5916,305.007203 546.7536,305.012203 543.0806,305.020203 L543.0806,175.595203 C549.3746,174.776203 555.6686,173.956203 561.9636,173.137203 C582.2236,170.138203 582.4596,197.729203 582.4626,210.616203 C582.4636,221.548203 581.6766,234.968203 574.3796,244.336203 C581.1446,251.554203 581.2896,263.468203 581.2126,272.703203 C581.1236,283.234203 581.2516,294.146203 584.1516,304.353203 C584.1216,304.584203 584.1076,304.699203 584.0776,304.930203 M561.4486,192.216203 C557.7746,192.626203 555.9376,192.831203 552.2656,193.242203 L552.2656,234.848203 C555.9096,234.590203 557.7316,234.461203 561.3756,234.202203 C572.8306,233.949203 573.4496,220.406203 573.4246,212.398203 C573.4016,205.130203 573.2866,189.856203 561.4486,192.216203" id="Fill-33"></path>
                <path d="M33.0923,298.379403 C30.9293,303.683403 23.6723,307.811403 18.2173,307.757926 C9.3403,307.670403 3.3113,299.168403 2.5123,290.902403 C5.8673,290.080403 7.5433,289.662403 10.8973,288.816403 C11.4123,294.632403 13.8733,298.907403 18.5693,298.641403 C28.3463,298.090403 29.0663,282.961403 29.0263,275.558403 C26.4163,281.307403 22.2733,284.579403 17.1633,284.940403 C6.6303,285.682403 1.4003,273.721403 1.2003,265.068403 C0.9503,254.353403 7.9313,243.189403 19.0663,241.589403 C34.9843,239.301403 37.7353,260.644403 37.5383,271.617403 C37.3773,280.647403 36.4973,290.031403 33.0923,298.379403 M19.1533,250.797403 C12.8283,251.514403 9.9963,255.869403 10.0042831,264.473403 C10.0093,272.090403 12.7813,275.947403 18.8263,275.559403 C24.5813,275.191403 27.9193,269.682403 27.9033573,262.253403 C27.8873,255.102403 25.1873,250.113403 19.1533,250.797403" id="Fill-36"></path>
                <path d="M82.2554,277.810703 C82.8914,277.072703 83.1724,276.652703 83.1724,276.652703 C81.5384,276.844703 79.5504,276.956703 77.1354,277.092703 C66.8804,277.664703 56.6274,278.236703 46.3744,278.808703 C46.3604,274.747703 46.3524,272.717703 46.3384,268.657703 C56.5824,267.883703 66.8264,267.110703 77.0724,266.337703 C79.4144,266.159703 81.4734,266.004703 83.1054,265.981703 C82.0324,264.753703 80.7444,263.046703 79.2414,261.072703 C78.9844,260.693703 78.8554,260.505703 78.5964,260.127703 C74.7614,255.024703 72.8464,252.521703 69.0194,247.606703 C73.2724,247.132703 75.3984,246.895703 79.6514,246.421703 C85.3234,254.339703 90.9064,262.311703 96.4174,270.342703 C91.0564,279.124703 85.5564,287.822703 79.9524,296.451703 C75.6834,296.538703 73.5474,296.583703 69.2784,296.670703 C73.1204,291.135703 75.0404,288.319703 78.8724,282.588703 C79.6474,281.354703 80.7754,279.799703 82.2554,277.810703" id="Fill-39"></path>
                <path d="M122.3518,306.358203 C118.8228,306.367203 117.0588,306.370203 113.5298,306.378203 C113.3828,288.133203 113.2348,269.887203 113.0878,251.642203 C111.0258,255.180203 107.2888,256.888203 102.9648,257.263203 C102.6758,257.287203 102.2098,257.352203 101.6678,257.269203 C101.3228,257.218203 101.0178,257.220203 100.8748,257.233203 C100.8448,257.152203 100.8308,257.109203 100.8008,257.028203 C100.7678,252.723203 100.7528,250.570203 100.7208,246.266203 C100.7498,246.178203 100.7628,246.134203 100.7918,246.047203 C108.8758,245.153203 113.9608,238.784203 114.3598,230.769203 C117.2938,230.389203 118.7618,230.197203 121.6958,229.818203 C121.9148,255.331203 122.1328,280.845203 122.3518,306.358203" id="Fill-41"></path>
                <path d="M148.2675,226.161103 C165.7225,223.942103 167.3485,254.290103 167.4915,265.665103 C167.6375,277.302103 167.1485,307.809103 149.0855,307.757169 C131.1255,307.706103 130.1765,280.425103 129.9305,268.138103 C129.6695,255.143103 131.5765,228.283103 148.2675,226.161103 M148.3835,237.641103 C137.4325,238.925103 139.1005,259.770103 139.1615,267.530103 C139.2145,274.354103 137.8215,296.799103 148.9725,296.504103 C160.1865,296.207103 158.4175,273.311103 158.2605,266.272103 C158.1255,260.103103 159.4785,236.339103 148.3835,237.641103" id="Fill-43"></path>
            </g>
            <g id="Group-11" transform="translate(731.000000, 0.000000)" fill-rule="nonzero">
                <path d="M261.092455,0 L0,0 L0,220.078313 C0,267.792771 39.2008502,307 86.9075452,307 L261.092455,307 C308.79915,307 348,267.792771 348,220.078313 L348,86.9216867 C348,39.2072289 308.79915,0 261.092455,0 Z M232.616366,242.271084 L209.687566,242.271084 L173.81509,171.254217 L137.942614,242.271084 L115.013815,242.271084 L35.5026567,83.5927711 L57.3219979,83.5927711 L126.848034,221.927711 L139.791711,196.406024 L82.4697131,83.5927711 L104.289054,83.5927711 L150.516472,175.322892 L163.460149,149.801205 L130.176408,83.5927711 L151.62593,83.5927711 L174.18491,128.348193 L196.743889,83.5927711 L218.193411,83.5927711 L184.909671,149.801205 L197.853348,175.322892 L244.080765,83.5927711 L265.900106,83.5927711 L208.578108,196.775904 L221.521785,222.29759 L291.417641,83.9626506 L313.236982,83.9626506 L232.616366,242.271084 Z" id="Shape"></path>
                <path d="M423,171 L454.243243,171 C461.962162,171 471.886486,171 477.032432,174.341772 C482.545946,177.683544 487.324324,183.995781 487.324324,192.535865 C487.324324,201.818565 482.545946,208.873418 474.459459,212.21519 L474.459459,212.586498 C485.118919,214.814346 491,222.983122 491,233.751055 C491,246.746835 481.810811,259 464.902703,259 L423,259 L423,171 Z M434.394595,208.50211 L457.551351,208.50211 C470.783784,208.50211 475.92973,203.675105 475.92973,194.392405 C475.92973,182.139241 467.475676,180.654008 457.551351,180.654008 L434.394595,180.654008 L434.394595,208.50211 L434.394595,208.50211 Z M434.394595,248.603376 L463.064865,248.603376 C472.989189,248.603376 479.237838,242.662447 479.237838,233.008439 C479.237838,221.49789 470.048649,218.527426 460.491892,218.527426 L434.394595,218.527426 L434.394595,248.603376 Z" id="Shape"></path>
                <path d="M527.5,193 C547.343373,193 558,207.460674 558,226 C558,244.539326 547.343373,259 527.5,259 C507.656627,259 497,244.539326 497,226 C497,207.460674 507.656627,193 527.5,193 Z M527.5,250.101124 C538.156627,250.101124 546.975904,241.573034 546.975904,226.370787 C546.975904,210.797753 538.156627,202.269663 527.5,202.269663 C516.843373,202.269663 508.024096,210.797753 508.024096,226.370787 C508.024096,241.573034 516.843373,250.101124 527.5,250.101124 Z" id="Shape"></path>
                <path d="M593.5,193 C613.343373,193 624,207.460674 624,226 C624,244.539326 613.343373,259 593.5,259 C573.656627,259 563,244.539326 563,226 C563.36747,207.460674 573.656627,193 593.5,193 Z M593.5,250.101124 C604.156627,250.101124 612.975904,241.573034 612.975904,226.370787 C612.975904,210.797753 604.156627,202.269663 593.5,202.269663 C582.843373,202.269663 574.024096,210.797753 574.024096,226.370787 C574.024096,241.573034 582.843373,250.101124 593.5,250.101124 Z" id="Shape"></path>
                <polygon id="Path" points="632 171 642.405405 171 642.405405 222.459574 671.391892 195.06383 685.513514 195.06383 660.243243 218.017021 687 258 673.621622 258 652.067568 225.051064 642.405405 233.93617 642.405405 258 632 258"></polygon>
                <path d="M696.9375,238.494382 C697.305556,247.764045 705.402778,250.730337 713.868056,250.730337 C720.125,250.730337 728.958333,249.247191 728.958333,241.460674 C728.958333,233.303371 718.652778,232.191011 708.347222,229.595506 C698.041667,227.370787 687.736111,224.033708 687.736111,211.797753 C687.736111,199.191011 700.25,194 711.291667,194 C725.277778,194 736.319444,198.449438 737.055556,213.651685 L726.75,213.651685 C726.013889,205.494382 719.020833,202.898876 712.027778,202.898876 C705.770833,202.898876 698.777778,204.752809 698.777778,211.05618 C698.777778,218.47191 709.819444,219.58427 719.388889,222.179775 C729.694444,224.404494 740,227.741573 740,239.977528 C740,255.179775 726.013889,260 713.5,260 C699.513889,260 687.736111,254.438202 687,238.494382 L696.9375,238.494382 L696.9375,238.494382 Z" id="Path"></path>
                <polygon id="Path" points="847.744966 258 835.563758 258 815.630872 184.697872 815.261745 184.697872 795.328859 258 783.147651 258 761 171 772.812081 171 789.791946 243.561702 790.161074 243.561702 809.724832 171 822.275168 171 841.469799 243.561702 841.838926 243.561702 859.557047 171 871 171"></polygon>
                <path d="M874,194.503883 L883.533333,194.503883 L883.533333,207.871487 L883.9,207.871487 C889.033333,197.845784 895.633333,192.647271 907,193.018594 L907,204.158263 C890.5,204.158263 884.266667,213.812644 884.266667,229.779504 L884.266667,258 L874,258 L874,194.503883 Z" id="Path"></path>
                <path d="M921,183.587234 L911,183.587234 L911,171 L921,171 L921,183.587234 Z M911,195.06383 L921,195.06383 L921,258 L911,258 L911,195.06383 Z" id="Shape"></path>
                <path d="M947.296703,195.121076 L960,195.121076 L960,204.313901 L947.296703,204.313901 L947.296703,243.29148 C947.296703,248.071749 948.791209,248.807175 955.142857,248.807175 L960,248.807175 L960,258 L952.153846,258 C941.318681,258 936.835165,255.793722 936.835165,244.394619 L936.835165,203.946188 L926,203.946188 L926,194.753363 L936.835165,194.753363 L936.835165,176 L947.296703,176 L947.296703,195.121076 Z" id="Path"></path>
                <path d="M978,183.587234 L968,183.587234 L968,171 L978,171 L978,183.587234 Z M968,195.06383 L978,195.06383 L978,258 L968,258 L968,195.06383 Z" id="Shape"></path>
                <path d="M990,195.471264 L999.588652,195.471264 L999.588652,205.402299 L999.957447,205.402299 C1004.38298,197.678161 1011.39007,194 1020.24113,194 C1036.83688,194 1042,203.563218 1042,216.804598 L1042,258 L1031.67376,258 L1031.67376,215.701149 C1031.67376,207.977011 1026.87943,203.195402 1018.76596,203.195402 C1006.22695,203.195402 1000.32624,211.655172 1000.32624,222.689655 L1000.32624,258 L990,258 L990,195.471264 Z" id="Path"></path>
                <path d="M1108.63057,251.888889 C1108.63057,272.259259 1099.3949,283 1079.44586,283 C1067.6242,283 1053.95541,278.185185 1053.58599,264.481481 L1063.92994,264.481481 C1064.29936,271.888889 1073.53503,274.851852 1080.18471,274.851852 C1093.8535,274.851852 1099.02548,265.222222 1099.02548,250.777778 L1099.02548,246.703704 L1098.65605,246.703704 C1095.33121,254.481481 1086.83439,258.185185 1079.07643,258.185185 C1060.23567,258.185185 1051,243.37037 1051,226.333333 C1051,211.518519 1058.38854,193 1080.18471,193 C1087.94268,193 1095.33121,196.703704 1099.02548,203.37037 L1099.02548,203.37037 L1099.3949,203.37037 L1099.3949,194.481481 L1109,194.481481 L1109,251.888889 L1108.63057,251.888889 Z M1098.28662,224.481481 C1098.28662,213.37037 1093.48408,201.888889 1080.55414,201.888889 C1067.25478,201.888889 1062.0828,212.62963 1062.0828,224.851852 C1062.0828,236.333333 1066.1465,248.925926 1079.81529,248.925926 C1093.11465,248.925926 1098.28662,236.333333 1098.28662,224.481481 Z" id="Shape"></path>
                <polygon id="Path" points="1147 170 1158 170 1158 257 1147 257"></polygon>
                <path d="M1228.62963,257.516667 L1218.25926,257.516667 L1218.25926,248.9875 L1217.88889,248.9875 C1214.55556,256.033333 1206.40741,259 1197.88889,259 C1178.62963,259 1169,243.425 1169,225.625 C1169,207.825 1178.62963,192.620833 1197.88889,192.620833 C1204.18519,192.620833 1213.44444,195.216667 1218.25926,202.633333 L1218.62963,202.633333 L1218.62963,170 L1229,170 L1229,257.516667 L1228.62963,257.516667 Z M1199.37037,250.1 C1213.44444,250.1 1218.62963,238.233333 1218.62963,226.366667 C1218.62963,213.758333 1213.07407,202.2625 1198.62963,202.2625 C1184.55556,202.2625 1179.74074,214.5 1179.74074,226.7375 C1180.11111,238.604167 1186.03704,250.1 1199.37037,250.1 Z" id="Shape"></path>
                <path d="M1294.20985,237.614525 C1291.25709,251.625698 1281.2915,259 1267.26586,259 C1247.33468,259 1237.73819,244.988827 1237,225.815642 C1237,207.011173 1249.54926,193 1266.52767,193 C1288.67341,193 1295.68623,213.648045 1294.94804,228.765363 L1248.07287,228.765363 C1247.70378,239.826816 1253.97841,249.413408 1267.63495,249.413408 C1276.12416,249.413408 1282.02969,245.357542 1283.87517,237.24581 L1294.20985,237.24581 L1294.20985,237.614525 Z M1284.24426,220.284916 C1283.87517,210.329609 1276.49325,202.586592 1266.15857,202.586592 C1255.45479,202.586592 1248.81107,210.698324 1248.07287,220.284916 L1284.24426,220.284916 Z" id="Shape"></path>
                <path d="M1357.62733,257.146067 C1355.76398,258.258427 1353.52795,259 1350.17391,259 C1344.58385,259 1341.22981,256.033708 1341.22981,249.359551 C1335.63975,256.033708 1327.81366,259 1318.86957,259 C1307.31677,259 1298,253.808989 1298,241.202247 C1298,226.741573 1308.80745,223.775281 1319.61491,221.921348 C1331.1677,219.696629 1340.85714,220.438202 1340.85714,212.651685 C1340.85714,203.752809 1333.40373,202.269663 1326.69565,202.269663 C1317.75155,202.269663 1311.41615,204.865169 1311.04348,214.134831 L1300.6087,214.134831 C1301.35404,198.561798 1313.2795,193 1327.44099,193 C1338.99379,193 1351.29193,195.595506 1351.29193,210.426966 L1351.29193,243.05618 C1351.29193,247.876404 1351.29193,250.101124 1354.64596,250.101124 C1355.3913,250.101124 1356.50932,250.101124 1358,249.359551 L1358,257.146067 L1357.62733,257.146067 Z M1340.85714,224.516854 C1336.75776,227.483146 1328.93168,227.483146 1321.85093,228.595506 C1315.14286,229.707865 1309.18012,232.303371 1309.18012,240.089888 C1309.18012,246.764045 1315.14286,249.359551 1321.47826,249.359551 C1335.26708,249.359551 1340.85714,240.831461 1340.85714,234.898876 L1340.85714,224.516854 Z" id="Shape"></path>
                <path d="M1368.9375,237.494382 C1369.30556,246.764045 1377.40278,249.730337 1385.86806,249.730337 C1392.125,249.730337 1400.95833,248.247191 1400.95833,240.460674 C1400.95833,232.303371 1390.65278,231.191011 1380.34722,228.595506 C1370.04167,226.370787 1359.73611,223.033708 1359.73611,210.797753 C1359.73611,198.191011 1372.25,193 1383.29167,193 C1397.27778,193 1408.31944,197.449438 1409.05556,212.651685 L1398.75,212.651685 C1398.01389,204.494382 1391.02083,201.898876 1384.02778,201.898876 C1377.77083,201.898876 1370.77778,203.752809 1370.77778,210.05618 C1370.77778,217.47191 1381.81944,218.58427 1391.38889,221.179775 C1401.69444,223.404494 1412,226.741573 1412,238.977528 C1412,254.179775 1398.01389,259 1385.5,259 C1371.51389,259 1359.73611,253.438202 1359,237.494382 L1368.9375,237.494382 L1368.9375,237.494382 Z" id="Path"></path>
                <polygon id="Path" points="497 42 497 65.9341085 486.27 65.9341085 485.16 54.5193798 466.66 54.5193798 466.66 124.848837 478.13 125.953488 478.13 137 441.87 137 441.87 126.321705 453.34 125.217054 453.34 54.5193798 434.84 54.5193798 433.73 65.9341085 423 65.9341085 423 42"></polygon>
                <path d="M525.42,75.5077519 C529.86,73.2984496 535.41,72.1937984 540.22,72.1937984 C555.76,72.1937984 563.53,79.9263566 563.53,92.4457364 L563.53,125.217054 L575,126.321705 L575,137 L550.58,137 L550.58,92.0775194 C550.58,86.1860465 546.14,83.9767442 540.22,83.9767442 C533.93,83.9767442 528.75,85.4496124 525.42,86.9224806 L525.42,124.848837 L536.89,125.953488 L536.89,137 L501,137 L501,126.321705 L512.47,125.217054 L512.47,53.7829457 L501,52.6782946 L501,42 L525.42,42 L525.42,75.5077519 Z" id="Path"></path>
                <path d="M590.566667,110.758242 C591.666667,119.225275 595.7,125.851648 606.333333,125.851648 C614.4,125.851648 620.266667,124.747253 627.966667,121.434066 L627.966667,133.582418 C619.9,137.263736 612.2,138 606.333333,138 C586.166667,138 577,124.747253 577,104.5 C577,84.6208791 586.166667,71 606.333333,71 C628.333333,71 632,87.1978022 632,104.868132 L632,110.758242 L590.566667,110.758242 Z M590.2,99.7142857 L618.433333,99.7142857 C618.433333,91.2472527 616.6,83.5164835 606.333333,83.5164835 C595.333333,83.5164835 591.3,90.8791209 590.2,99.7142857 Z" id="Shape"></path>
                <polygon id="Path" points="714.979592 42 734.603499 114.170543 744.600583 54.1511628 732.011662 52.6782946 732.011662 42 772 42 772 52.6782946 758.670554 54.1511628 742.008746 137 729.790087 137 708.685131 63.3565891 687.580175 137 675.361516 137 658.329446 54.1511628 645 52.6782946 645 42 684.988338 42 684.988338 52.6782946 672.399417 54.1511628 682.396501 114.170543 702.020408 42"></polygon>
                <path d="M793.42,75.5077519 C797.86,73.2984496 803.41,72.1937984 808.22,72.1937984 C823.76,72.1937984 831.53,79.9263566 831.53,92.4457364 L831.53,125.217054 L843,126.321705 L843,137 L818.58,137 L818.58,92.0775194 C818.58,86.1860465 814.14,83.9767442 808.22,83.9767442 C801.93,83.9767442 796.75,85.4496124 793.42,86.9224806 L793.42,124.848837 L804.89,125.953488 L804.89,137 L769,137 L769,126.321705 L780.47,125.217054 L780.47,53.7829457 L769,52.6782946 L769,42 L793.42,42 L793.42,75.5077519 Z" id="Path"></path>
                <path d="M858.566667,110.758242 C859.666667,119.225275 863.7,125.851648 874.333333,125.851648 C882.4,125.851648 888.266667,124.747253 895.966667,121.434066 L895.966667,133.582418 C887.9,137.263736 880.2,138 874.333333,138 C854.166667,138 845,124.747253 845,104.5 C845,84.2527473 854.166667,71 874.333333,71 C896.333333,71 900,87.1978022 900,104.868132 L900,110.758242 L858.566667,110.758242 Z M858.566667,99.7142857 L886.8,99.7142857 C886.8,91.2472527 884.966667,83.5164835 874.7,83.5164835 C863.333333,83.5164835 859.3,90.8791209 858.566667,99.7142857 Z" id="Shape"></path>
                <path d="M921.566667,110.758242 C922.666667,119.225275 926.7,125.851648 937.333333,125.851648 C945.4,125.851648 951.266667,124.747253 958.966667,121.434066 L958.966667,133.582418 C950.9,137.263736 943.2,138 937.333333,138 C917.166667,138 908,124.747253 908,104.5 C908,84.2527473 917.166667,71 937.333333,71 C959.333333,71 963,87.1978022 963,104.868132 L963,110.758242 L921.566667,110.758242 Z M921.2,99.7142857 L949.433333,99.7142857 C949.433333,91.2472527 947.6,83.5164835 937.333333,83.5164835 C926.333333,83.5164835 922.3,90.8791209 921.2,99.7142857 Z" id="Shape"></path>
                <polygon id="Path" points="990.494845 125.217054 1002 126.321705 1002 137 966 137 966 126.321705 977.505155 125.217054 977.505155 53.7829457 966 52.6782946 966 42 990.494845 42 990.494845 125.217054"></polygon>
                <path d="M1018.56667,110.758242 C1019.66667,119.225275 1023.7,125.851648 1034.33333,125.851648 C1042.4,125.851648 1048.26667,124.747253 1055.96667,121.434066 L1055.96667,133.582418 C1047.9,137.263736 1040.2,138 1034.33333,138 C1014.16667,138 1005,124.747253 1005,104.5 C1005,84.2527473 1014.16667,71 1034.33333,71 C1056.33333,71 1060,87.1978022 1060,104.868132 L1060,110.758242 L1018.56667,110.758242 Z M1018.56667,99.7142857 L1046.8,99.7142857 C1046.8,91.2472527 1044.96667,83.5164835 1034.7,83.5164835 C1023.33333,83.5164835 1019.3,90.8791209 1018.56667,99.7142857 Z" id="Shape"></path>
                <path d="M1088.43478,77.1412429 C1093.97826,73.8361582 1099.8913,72 1106.17391,72 C1110.97826,72 1115.04348,72.7344633 1118,73.4689266 L1118,94.4011299 L1107.28261,94.4011299 L1106.17391,83.7514124 C1099.52174,83.7514124 1095.08696,85.220339 1091.3913,86.6892655 L1091.3913,124.514124 L1102.84783,125.615819 L1102.84783,137 L1067,137 L1067,126.350282 L1078.45652,125.248588 L1078.45652,85.5875706 L1067,84.4858757 L1067,73.8361582 L1087.32609,73.8361582 L1088.43478,77.1412429 Z" id="Path"></path>
                <path d="M1187.13043,42 C1198.58696,42 1207.08696,44.2153846 1213,46.4307692 L1213,68.9538462 L1202.28261,68.9538462 L1200.80435,55.6615385 C1196,54.5538462 1191.93478,54.1846154 1187.13043,54.1846154 C1168.28261,54.1846154 1159.04348,69.3230769 1159.04348,90 C1159.04348,110.676923 1168.28261,125.815385 1187.13043,125.815385 C1191.93478,125.815385 1196,125.446154 1200.80435,124.338462 L1202.28261,111.046154 L1213,111.046154 L1213,133.569231 C1207.08696,136.153846 1198.58696,138 1187.13043,138 C1158.30435,138 1145,116.215385 1145,89.6307692 C1145.36957,63.7846154 1158.30435,42 1187.13043,42 Z" id="Path"></path>
                <path d="M1233.56667,110.758242 C1234.66667,119.225275 1238.7,125.851648 1249.33333,125.851648 C1257.4,125.851648 1263.26667,124.747253 1270.96667,121.434066 L1270.96667,133.582418 C1262.9,137.263736 1255.2,138 1249.33333,138 C1229.16667,138 1220,124.747253 1220,104.5 C1220,84.6208791 1229.16667,71 1249.33333,71 C1271.33333,71 1275,87.1978022 1275,104.868132 L1275,110.758242 L1233.56667,110.758242 Z M1233.2,99.7142857 L1261.43333,99.7142857 C1261.43333,91.2472527 1259.6,83.5164835 1249.33333,83.5164835 C1238.33333,83.5164835 1234.3,90.8791209 1233.2,99.7142857 Z" id="Shape"></path>
                <path d="M1303.46,77.1412429 C1308.64,73.8361582 1315.3,72 1321.22,72 C1336.76,72 1344.53,79.7118644 1344.53,92.1977401 L1344.53,124.881356 L1356,125.983051 L1356,137 L1331.58,137 L1331.58,92.1977401 C1331.58,86.3220339 1327.14,84.1186441 1321.22,84.1186441 C1314.93,84.1186441 1309.75,85.5875706 1306.42,87.0564972 L1306.42,124.881356 L1317.89,125.983051 L1317.89,137 L1282,137 L1282,126.350282 L1293.47,125.248588 L1293.47,85.5875706 L1282,84.4858757 L1282,73.8361582 L1302.35,73.8361582 L1303.46,77.1412429 Z" id="Path"></path>
                <path d="M1391.69231,137.259574 C1389.8547,138 1386.54701,138 1385.07692,138 C1369.2735,138 1363.39316,131.33617 1363.39316,119.119149 L1363.39316,84.6893617 L1352,84.6893617 L1352,73.9531915 L1363.39316,72.8425532 L1363.39316,52.4808511 L1376.25641,51 L1376.25641,72.8425532 L1395,72.8425532 L1395,84.6893617 L1375.88889,84.6893617 L1375.88889,119.119149 C1375.88889,123.191489 1377.35897,126.153191 1384.7094,126.153191 C1387.64957,126.153191 1390.22222,125.782979 1391.32479,125.412766 L1391.32479,137.259574 L1391.69231,137.259574 Z" id="Path"></path>
                <path d="M1421.43478,77.1412429 C1426.97826,73.8361582 1432.8913,72 1439.17391,72 C1443.97826,72 1448.04348,72.7344633 1451,73.4689266 L1451,94.4011299 L1440.28261,94.4011299 L1439.17391,83.7514124 C1432.52174,83.7514124 1428.08696,85.220339 1424.3913,86.6892655 L1424.3913,124.514124 L1435.84783,125.615819 L1435.84783,137 L1400,137 L1400,126.350282 L1411.45652,125.248588 L1411.45652,85.5875706 L1400,84.4858757 L1400,73.8361582 L1420.32609,73.8361582 L1421.43478,77.1412429 Z" id="Path"></path>
                <path d="M1470.56667,110.758242 C1471.66667,119.225275 1475.7,125.851648 1486.33333,125.851648 C1494.4,125.851648 1500.26667,124.747253 1507.96667,121.434066 L1507.96667,133.582418 C1499.9,137.263736 1492.2,138 1486.33333,138 C1466.16667,138 1457,124.747253 1457,104.5 C1457,84.6208791 1466.16667,71 1486.33333,71 C1508.33333,71 1512,87.1978022 1512,104.868132 L1512,110.758242 L1470.56667,110.758242 Z M1470.56667,99.7142857 L1498.8,99.7142857 C1498.8,91.2472527 1496.96667,83.5164835 1486.7,83.5164835 C1475.33333,83.5164835 1471.66667,90.8791209 1470.56667,99.7142857 Z" id="Shape"></path>
            </g>
        </g>
    </g>
</svg>