<?xml version="1.0" encoding="UTF-8"?>
<svg width="584px" height="307px" viewBox="0 0 584 307" version="1.1" xmlns="http://www.w3.org/2000/svg" xmlns:xlink="http://www.w3.org/1999/xlink">
    <!-- Generator: Sketch 57.1 (83088) - https://sketch.com -->
    <title>Group 10</title>
    <desc>Created with Sketch.</desc>
    <g id="Broadside-design" stroke="none" stroke-width="1" fill="none" fill-rule="evenodd">
        <g id="Group-10" fill="#FF6C2F">
            <path d="M24.4099076,195.514498 C24.8418673,195.465885 25.0584454,195.442172 25.490405,195.392374 C38.7950012,192.817096 37.7204867,168.750339 37.6953588,159.478389 C37.6762138,151.97309 38.5497056,128.441071 25.490405,129.209386 C25.0584454,129.241399 24.8418673,129.257999 24.4099076,129.290012 L24.4099076,195.514498 Z M24.4099076,85.0881847 C24.8418673,85.0668426 25.0584454,85.0561716 25.490405,85.0348295 C36.0572626,83.5622257 35.4266733,64.9732707 35.4278698,57.919712 C35.4290664,51.2740242 36.1075182,32.1882729 25.490405,31.4721274 C25.0584454,31.4804271 24.8418673,31.4839841 24.4099076,31.4922838 L24.4099076,85.0881847 Z M0,227 L0,3.04565735 C8.13663587,3.0314293 16.2732717,3.01720124 24.4099076,3.0008895 C51.494136,2.81326577 60.1488841,32.3471528 59.7312833,53.9322993 C59.4895773,66.4269037 57.459008,80.159349 50.3334688,90.7948208 C44.6402168,99.2913415 34.7530077,104.791671 24.4099076,105.571843 L24.4099076,108.652217 C55.1580153,106.514451 62.0119344,137.69405 61.9999844,161.897159 C61.9868066,186.639748 54.1648671,220.087536 24.4099076,223.850857 C16.2732717,224.900176 8.13663587,225.949495 0,227 L0,227 Z" id="Fill-1"></path>
            <path d="M96.4431307,122.643239 C96.8756359,122.611206 97.0924875,122.595782 97.5249926,122.563748 C108.815654,117.898656 107.51095,88.6160672 107.475007,78.9145265 C107.440263,69.3517995 109.100795,34.9769996 97.5249926,30.3083481 C97.0924875,30.3166532 96.8756359,30.3202126 96.4431307,30.3285177 L96.4431307,122.643239 Z M72,218 L72,3.04389837 C80.1481096,3.02847462 88.2950211,3.01423731 96.4431307,3 C125.618659,3.14000022 131.797132,55.1322856 131.810311,74.8616387 C131.824688,96.5426899 125.357478,139.730385 96.4431307,142.291915 L96.4431307,145.268699 C106.154728,144.421579 115.867524,143.575645 125.579122,142.728525 C128.042365,165.198561 130.51639,187.668596 133,210.136259 C124.853088,211.18626 116.704979,212.237449 108.556869,213.28745 C107.047295,196.963187 105.542512,180.637738 104.040126,164.312288 C101.001807,164.612458 99.4814495,164.763136 96.4431307,165.064493 L96.4431307,214.848809 C88.2950211,215.89881 80.1481096,216.949998 72,218 L72,218 Z" id="Fill-3"></path>
            <path d="M175.224391,177.889834 C176.903265,170.827694 177.168789,163.171597 177.589103,155.978787 C178.610716,138.539042 178.664297,120.947245 178.664297,103.483743 C178.664297,86.0689445 178.61667,68.522288 177.589103,51.1300602 C177.168789,44.0025848 176.922316,36.3833136 175.224391,29.3900724 C173.612196,24.6348584 170.494967,24.6740595 168.88158,29.5088636 C167.076493,36.6161445 166.958614,44.2152212 166.516868,51.4899977 C165.448818,69.0746674 165.442865,86.768625 165.441674,104.354483 C165.441674,121.892824 165.444056,139.540453 166.516868,157.076418 C166.952661,164.19439 167.047916,171.663984 168.88158,178.606145 C170.494967,183.228313 173.612196,182.857684 175.224391,177.889834 M159.422731,204.835255 C145.934584,195.318887 143.696085,173.234405 141.686199,158.245324 C139.382212,141.064544 139,123.399097 139,106.094774 C139,88.6229565 139.404835,70.7888252 141.686199,53.4476776 C143.803247,37.3574019 146.273931,15.6269174 159.422731,4.52349871 C166.53711,-1.4825872 177.454555,-1.50872128 184.684431,4.45103605 C197.556991,15.0638469 200.333682,36.0744564 202.420963,51.4294142 C204.658272,67.8986339 205,85.0497155 205,101.74939 C205,118.516776 204.635649,135.710623 202.420963,152.272499 C200.245571,168.53621 197.261699,191.200394 184.684431,201.583938 C177.865344,207.212268 168.152878,210.994581 159.422731,204.835255" id="Fill-5"></path>
            <path d="M238.258492,132.935388 C242.851698,132.532363 245.148302,132.33085 249.741508,131.927825 C248.198552,99.5245829 246.660351,67.1225262 245.126905,34.7192842 C244.224668,34.7406208 243.774144,34.7501038 242.873095,34.7714404 C241.330139,67.4923613 239.791938,100.213282 238.258492,132.935388 M211,200 C215.363784,134.35546 219.76204,68.7121058 224.199525,3.0723075 C237.399049,3.04860012 250.599762,3.02489275 263.800475,3 C268.16307,65.813879 272.562516,128.624202 277,191.432154 C268.915529,192.482391 260.831058,193.531442 252.746587,194.580494 C252.173625,182.797928 251.600663,171.014176 251.028889,159.23161 C245.405065,159.827851 242.593747,160.125378 236.969922,160.722804 C236.39696,172.764966 235.825186,184.808313 235.253413,196.85166 C227.168942,197.900712 219.084471,198.950949 211,200" id="Fill-7"></path>
            <path d="M308.411387,161.713992 C308.843289,161.665278 309.059837,161.641516 309.491739,161.592802 C316.379425,160.114758 316.908235,149.103092 317.592577,144.036871 C319.764047,127.953043 319.429054,110.401864 319.429054,93.7120858 C319.429054,77.105477 319.406322,60.109159 317.592577,43.629681 C317.090088,39.0648538 316.40455,35.4636066 315.431875,32.9209907 C313.487721,27.8357589 312.083145,27.0848555 309.491739,27.1347573 C309.059837,27.1430743 308.843289,27.1478268 308.411387,27.1561438 L308.411387,161.713992 Z M284,190 L284,2.06860405 C292.137927,2.05434639 300.274657,2.03890059 308.411387,2.02464293 C320.575207,1.46384167 329.783914,10.5602283 334.982281,20.5738577 C346.01909,41.8355922 345.999974,68.9417789 345.999974,91.9714632 C345.999974,115.614227 346.094463,143.824194 334.982281,164.812657 C329.554205,175.063914 321.485669,185.662107 308.411387,186.844305 C300.274657,187.896995 292.137927,188.948498 284,190 L284,190 Z" id="Fill-9"></path>
            <path d="M357.209051,121.068951 C364.614861,120.431665 372.020671,119.793192 379.426481,119.155906 C378.668973,124.242328 378.281215,129.360793 378.343641,134.323792 C378.412068,139.903904 378.626956,157.625682 384.954728,157.344421 C390.007581,157.118938 390.901945,145.346352 390.589818,140.54475 C389.741073,127.467922 385.203229,116.340929 378.018308,105.423991 C370.632907,94.2032437 363.503209,82.905358 358.726468,69.9756873 C356.49116,61.6862197 355.319483,54.4363474 355.042171,45.9831079 C354.666418,34.5724807 356.746863,21.5087069 363.494806,11.766654 C368.390396,4.6995416 376.205572,-0.00237260722 384.954728,0 C393.475791,0.00237440359 401.337786,4.23314779 406.413449,10.9252463 C412.682396,19.1886054 415.108583,30.1755619 414.975328,40.3258578 C414.882891,47.3917834 414.108576,54.7971202 413.240623,57.7011041 C413.024536,58.6184639 412.916492,59.0765505 412.699203,59.9950971 C405.329408,60.3226408 397.959613,60.6501846 390.589818,60.9777283 C391.348526,55.9636981 391.737484,50.9116919 391.673858,45.9997224 C391.600629,40.4018099 391.347326,22.6562968 384.954728,22.4414945 C379.738608,22.2658551 379.205591,34.19628 379.426481,39.0631529 C379.814238,47.5638625 381.526134,54.5217936 385.062771,62.1988968 C388.296886,69.2197258 392.541811,75.9474269 397.310149,82.3179154 C402.206939,88.8604831 406.288598,96.3441456 409.448282,103.990393 C413.204609,113.083293 414.723226,122.426597 414.975328,131.963341 C415.267047,143.040491 413.002927,156.076969 406.521493,165.567431 C401.561077,172.829171 393.924773,178.548132 384.954728,179.785915 C376.777004,180.914517 368.757745,177.50735 363.60405,171.300633 C356.866912,163.189178 355.097393,151.510345 355.042171,141.693527 C355.008557,135.817914 355.359099,129.344178 356.775675,123.34633 C356.948545,122.434904 357.036181,121.979191 357.209051,121.068951" id="Fill-11"></path>
            <path d="M425,172 L425,2.04393808 C433.000392,2.02968789 441.000784,2.0154377 449,2 L449,168.845958 C441.000784,169.89691 433.000392,170.949049 425,172" id="Fill-13"></path>
            <path d="M485.411371,141.846077 C485.843314,141.797458 486.059884,141.773741 486.491827,141.725122 C492.757994,140.636526 494.070575,131.148664 494.593454,126.25591 C496.140552,111.76264 496.43011,96.7938506 496.428917,82.2152005 C496.428917,67.7195588 496.395411,52.7827867 494.593454,38.416401 C494.093309,34.430811 493.405311,31.2776769 492.432541,29.0554229 C490.488199,24.6121008 489.083486,23.9575201 486.491827,24.0061394 C486.059884,24.0144402 485.843314,24.0191835 485.411371,24.0274844 L485.411371,141.846077 Z M461,167 L461,2.0658283 C469.137522,2.05159828 477.273848,2.03736827 485.411371,2.02313825 C496.91111,1.53576025 506.375572,8.80729778 511.983654,18.216895 C522.743945,36.2712262 523,60.4397204 523,80.4779529 C523,101.144678 522.469942,125.3108 511.983654,144.180986 C506.455738,154.127766 497.305961,162.745226 485.411371,163.850423 C477.273848,164.899887 469.137522,165.949351 461,167 L461,167 Z" id="Fill-15"></path>
            <path d="M534,158 L534,2.08908245 C550.666266,2.0593883 567.333734,2.02969415 584,2 L584,23.3797882 C575.504061,23.548451 567.008122,23.7183015 558.512183,23.888152 L558.512183,66.5099475 C564.803335,66.1619321 571.093286,65.8139167 577.384438,65.4659012 L577.384438,86.8646937 C571.093286,87.3255469 564.803335,87.7875878 558.512183,88.2496288 L558.512183,133.003464 C567.008122,132.063941 575.504061,131.124418 584,130.184896 L584,151.565872 C567.333734,153.710977 550.666266,155.854895 534,158" id="Fill-17"></path>
            <path d="M548.928183,226.105963 C557.751443,225.452673 562.939216,217.675295 562.985641,206.297059 C563.035638,194.350328 558.21451,188.240214 549.190071,189.219552 C539.896602,190.228748 535.112375,197.578561 534.998097,208.852892 C534.886199,219.942105 539.834701,226.778363 548.928183,226.105963 M548.80319,243.70658 C537.905059,244.33479 531.003107,253.018652 530.857878,266.280324 C530.703126,280.466394 537.34676,289.012911 548.484163,288.830181 C559.485859,288.649839 566.115208,279.601711 566.165435,264.954634 C566.210441,251.640413 559.566806,243.085536 548.80319,243.70658 M548.354409,306.992126 C527.927108,306.538286 513.538718,287.58451 514.011307,268.002525 C514.313669,255.468192 518.271756,240.532091 530.932874,234.614262 C522.563156,229.839391 518.732442,221.020571 518.659828,208.70838 C518.555072,190.761412 530.979299,173.471317 549.451959,171.228394 C568.905511,168.867234 579.38224,185.182768 579.212013,203.084352 C579.08583,216.244506 574.5873,226.353186 566.549705,232.029765 C580.127432,236.641014 583.121293,252.976851 582.996301,265.289042 C582.799885,284.82206 570.503031,307.484183 548.354409,306.992126" id="Fill-19"></path>
            <path d="M12.6794776,242.638265 C18.941052,253.309501 25.2387022,263.962811 31.3848337,274.700974 C35.1607783,281.396042 37.9494456,286.937819 39.6582409,291.168547 C39.6943168,291.168547 39.7123548,291.167352 39.7484307,291.166157 C39.6582409,288.410208 39.4778614,285.201308 39.3876717,281.538261 C39.2986844,277.875215 39.2986844,275.067876 39.2986844,273.099511 L39.2986844,239.340926 C43.5796917,238.806707 45.7189928,238.537804 50,238 L50,305.900805 C44.8555761,305.911561 42.2833642,305.916342 37.1401429,305.927098 C31.0012266,294.467081 24.7985762,283.081163 18.1642175,271.894829 C14.5674499,265.749517 11.9603646,260.897325 10.3417591,257.185279 C10.2696073,257.191255 10.2335313,257.19484 10.1613795,257.202011 C10.3417591,260.152765 10.4307463,263.268445 10.520936,266.550248 C10.6111258,269.830855 10.7013156,272.215122 10.7013156,273.809413 L10.7013156,305.978488 C6.42030833,305.986854 4.27980471,305.991634 0,306 L0,244.189532 C5.07106953,243.571655 7.60720556,243.260923 12.6794776,242.638265" id="Fill-22"></path>
            <path d="M109.083937,267.883503 C109.083937,259.334336 107.576322,252.257346 104.727548,247.747382 C101.808624,243.126017 97.1692603,241.201046 90.8558253,241.920964 C84.3652336,242.662443 79.3109187,245.816423 76.3622711,250.427008 C73.5800793,254.777655 71.8275364,262.350562 71.8275364,270.341523 C71.8275364,278.633149 73.4564264,285.278908 76.0067688,289.163586 C79.1254392,293.916717 84.3652336,296.377133 90.500323,296.268127 C96.9909147,296.151934 101.783656,293.576523 104.727548,288.491583 C107.62507,283.486901 109.083937,276.540478 109.083937,267.883503 M90.500323,231.234805 C111.441666,228.586324 121.035472,248.836242 120.999901,267.089318 C120.962944,285.885028 111.660437,306.611697 90.500323,306.995014 C70.8858715,307.349582 59.8890804,288.732354 60.0008437,271.112949 C60.1137959,253.420474 71.4446878,233.643712 90.500323,231.234805" id="Fill-24"></path>
            <path d="M132.185008,226.738131 C135.650864,240.41981 139.140681,254.096722 142.578983,267.785549 C144.640767,276.118708 146.073592,282.10824 146.879856,285.743422 C147.309944,287.559226 147.525586,288.469511 147.955673,290.29723 C147.990416,290.296038 148.008386,290.296038 148.044327,290.294847 C148.85059,286.482135 150.732672,278.881732 153.510868,267.10641 C157.085744,252.283301 160.595927,237.443511 163.993496,222.578701 C168.796337,221.948412 171.197159,221.632672 176,221 C168.892179,249.056794 161.447715,277.018269 153.957727,304.974979 C149.192025,304.985702 146.807975,304.990468 142.042273,305 C134.948828,279.36547 127.48879,253.84413 120,228.321598 C124.873524,227.690118 127.311484,227.373186 132.185008,226.738131" id="Fill-26"></path>
            <path d="M225,215 L225,228.574632 C212.620841,230.006505 206.43067,230.721842 194.051512,232.15012 L194.051512,255.787402 C205.121939,254.913899 210.658335,254.476549 221.728762,253.60065 L221.728762,266.855358 C210.658335,267.510784 205.121939,267.837898 194.051512,268.490928 L194.051512,292.992126 C206.43067,292.728518 212.620841,292.597912 225,292.334303 L225,305.910134 C211,305.940089 197,305.970045 183,306 L183,220.650805 C197,218.771996 211,216.887196 225,215" id="Fill-28"></path>
            <path d="M253.37258,210.451318 C256.803033,226.422759 260.214328,242.397793 263.581321,258.382405 C265.910198,269.700947 267.701457,279.391095 269.044901,287.501938 C269.080822,287.500741 269.097585,287.500741 269.133506,287.499544 C270.100978,281.843266 270.584714,279.010338 271.552185,273.328915 C272.537617,267.758847 273.521852,262.583903 274.507284,257.805283 C277.979645,240.636492 281.41369,223.461714 284.805827,206.276161 C291.683496,205.364978 295.122331,204.908788 302,204 L302,304.85991 C297.773299,304.868292 295.659948,304.873081 291.433247,304.881462 L291.433247,246.485543 C291.433247,243.646628 291.433247,239.67502 291.521852,234.696442 C291.629615,229.289213 291.683496,226.583204 291.791259,221.165199 C291.719417,221.172383 291.683496,221.177172 291.611654,221.184356 C289.194173,234.970635 287.491519,243.978294 286.597086,248.418065 C282.770305,267.261947 278.874077,286.092658 274.955099,304.917383 C270.154859,304.926962 267.755338,304.931751 262.955099,304.942527 C259.160647,286.902066 255.307523,268.875974 251.402914,250.85946 C251.223309,250.203312 250.417482,246.501108 249.074037,239.527746 C247.964079,234.2187 247.408501,231.573756 246.298543,226.289853 C246.226701,226.298235 246.19078,226.301827 246.118938,226.310208 C246.388346,238.459711 246.566753,246.435254 246.566753,250.301495 L246.566753,304.97725 C242.340052,304.985632 240.226701,304.990421 236,305 L236,212.762202 C242.949511,211.837848 246.423069,211.375671 253.37258,210.451318" id="Fill-30"></path>
            <path d="M346.654763,259.082323 C344.681601,258.594028 342.158935,258.428869 339.011014,258.61198 C333.903158,258.908787 331.349229,259.058387 326.241373,259.35639 L326.241373,290.107004 C331.168867,290.008866 333.633817,289.959798 338.561311,289.86166 C348.903278,289.50621 353.764639,288.393185 354.029171,274.185956 C354.211938,264.384153 350.685256,260.080455 346.654763,259.082323 M337.212202,243.660341 C346.474401,242.797447 351.606305,241.537215 351.600299,227.842218 C351.594281,214.525409 346.38422,213.865972 337.302383,214.737243 C332.877498,215.236309 330.665055,215.485244 326.241373,215.985507 L326.241373,244.507676 C330.628983,244.167785 332.823389,243.999036 337.212202,243.660341 M352.319337,302.928337 C348.632735,304.325004 344.227088,304.938963 338.920833,304.949734 C329.353221,304.97008 324.568814,304.979654 315,305 L315,202.441306 C324.209292,201.232537 328.813337,200.629349 338.022629,199.426563 C347.375009,198.205826 354.388692,199.243453 359.064882,207.349388 C361.403578,211.400561 362.572325,217.488689 362.572325,225.719092 C362.572325,236.431661 359.514585,245.070173 354.20833,249.734108 C361.312195,253.712275 365,261.623132 365,274.705368 C365,291.678404 359.783926,299.983009 352.319337,302.928337" id="Fill-32"></path>
            <path d="M417,190 L417,207.031134 C404.621326,208.389532 398.43199,209.074679 386.053316,210.454489 L386.053316,240.752017 C397.123184,239.908668 402.65871,239.488777 413.728578,238.656134 L413.728578,255.535012 C402.65871,256.157116 397.123184,256.471142 386.053316,257.101572 L386.053316,288.510085 C398.43199,288.255534 404.621326,288.130637 417,287.880844 L417,304.913167 C403.000394,304.941715 389.000788,304.970263 375,305 L375,195.426458 C388.998424,193.601779 402.99803,191.791374 417,190" id="Fill-34"></path>
            <path d="M449.362031,202.714052 C444.889864,203.193948 442.653183,203.43509 438.181016,203.919761 L438.181016,241.564161 C442.6173,241.260943 444.83604,241.109334 449.272325,240.80731 C457.859029,240.224749 464.103796,237.033797 463.942325,220.722099 C463.765304,202.893118 458.217855,201.933325 449.362031,202.714052 M476.91149,304.900917 C472.081693,304.910467 469.666794,304.915242 464.835801,304.924792 C462.868239,298.213407 462.332392,293.771383 462.332392,277.345083 C462.332392,262.647364 458.933115,257.429388 450.077291,257.872277 C445.319259,258.109838 442.939047,258.229215 438.181016,258.467969 L438.181016,304.977318 C433.708849,304.985675 431.472167,304.99045 427,305 L427,188.348202 C436.195512,187.187856 440.793268,186.611264 449.987585,185.466437 C471.383178,181.513859 474.392532,203.546111 474.943927,218.894435 C475.452264,233.085994 471.097314,244.61186 465.104921,249.822674 C470.919097,253.664232 473.422506,262.159112 473.422506,275.624858 C473.422506,289.440379 474.138961,296.89429 477,304.376851 C476.964117,304.586955 476.947372,304.692007 476.91149,304.900917" id="Fill-36"></path>
        </g>
    </g>
</svg>