<svg width="585" height="308" xmlns="http://www.w3.org/2000/svg"><g fill="#FF6C2F" fill-rule="evenodd"><path d="M0 228.09V3.146L24.295 3.1c26.956-.19 35.571 29.475 35.155 51.158-.241 12.548-2.261 26.342-9.354 37.024-5.666 8.536-15.507 14.06-25.801 14.843v3.094c30.603-2.148 37.425 29.17 37.412 53.48-.013 24.852-7.797 58.45-37.412 62.229L0 228.09zM24.295 85.55c.43-.02.645-.031 1.075-.054 10.517-1.478 9.889-20.15 9.891-27.234.001-6.675.676-25.845-9.891-26.565l-1.075.02V85.55zm0 110.916l1.075-.122c13.242-2.587 12.173-26.762 12.148-36.074-.02-7.537.85-31.174-12.148-30.403l-1.075.08v66.519zM71.494 218.784V3.016l24.298-.044c28.999.14 35.142 52.329 35.154 72.133.015 21.763-6.414 65.113-35.154 67.685v2.988l28.96-2.55c2.449 22.555 4.909 45.11 7.378 67.663l-24.298 3.163a90629.454 90629.454 0 0 1-4.49-49.16c-3.021.3-4.53.452-7.55.755v49.972l-24.298 3.163zm24.298-95.717l1.074-.08c11.223-4.683 9.927-34.077 9.89-43.814-.033-9.6 1.618-44.104-9.89-48.79l-1.074.02v92.664zM160.194 205.384c-13.49-9.541-15.73-31.68-17.74-46.708-2.305-17.225-2.687-34.935-2.687-52.282 0-17.517.406-35.396 2.687-52.781 2.117-16.131 4.59-37.917 17.74-49.048 7.115-6.022 18.034-6.048 25.266-.073 12.876 10.638 15.652 31.703 17.74 47.097 2.24 16.51 2.58 33.706 2.58 50.448 0 16.809-.364 34.046-2.58 50.651-2.176 16.305-5.16 39.025-17.74 49.436-6.82 5.643-16.535 9.435-25.266 3.26m15.804-27.014c1.68-7.08 1.945-14.755 2.366-21.966 1.022-17.484 1.075-35.122 1.075-52.628 0-17.459-.048-35.051-1.075-52.487-.42-7.145-.667-14.784-2.366-21.794-1.612-4.767-4.73-4.728-6.343.118-1.806 7.126-1.923 14.745-2.365 22.038-1.069 17.629-1.075 35.367-1.075 52.997 0 17.583.001 35.275 1.075 52.857.436 7.135.53 14.624 2.365 21.583 1.613 4.635 4.731 4.262 6.343-.718M211.267 200.589c4.374-65.953 8.78-131.902 13.224-197.851l39.675-.072A159270.21 159270.21 0 0 0 277.39 191.98l-24.299 3.164c-.573-11.84-1.148-23.678-1.72-35.516l-14.085 1.498-1.72 36.299-24.299 3.163m27.31-67.38l11.504-1.011c-1.546-32.554-3.087-65.11-4.624-97.664-.903.02-1.354.03-2.257.052-1.546 32.874-3.087 65.749-4.624 98.624M284.92 191V2.629l24.299-.044c12.108-.561 21.275 8.555 26.449 18.594 10.986 21.31 10.967 48.48 10.967 71.565 0 23.698.096 51.973-10.967 73.01-5.403 10.277-13.434 20.899-26.45 22.085L284.92 191zm24.299-28.352l1.075-.121c6.858-1.482 7.383-12.52 8.064-17.597 2.162-16.121 1.827-33.714 1.827-50.443 0-16.645-.022-33.681-1.827-50.201-.5-4.575-1.183-8.183-2.15-10.733-1.935-5.097-3.333-5.85-5.914-5.8l-1.075.022v134.873zM357.497 121.494c7.347-.64 14.694-1.279 22.04-1.92-.752 5.104-1.135 10.24-1.074 15.222.069 5.6.282 23.384 6.559 23.101 5.013-.226 5.9-12.04 5.59-16.858-.842-13.123-5.343-24.289-12.471-35.244-7.328-11.262-14.4-22.599-19.138-35.573-2.218-8.319-3.38-15.595-3.657-24.078-.371-11.45 1.692-24.56 8.387-34.336C368.589 4.716 376.342-.004 385.022 0c8.453.002 16.25 4.248 21.288 10.964 6.218 8.292 8.625 19.317 8.494 29.504-.092 7.09-.86 14.521-1.721 17.435-.214.922-.323 1.382-.538 2.303-7.31.33-14.622.657-21.933.986.753-5.032 1.139-10.102 1.075-15.03-.072-5.618-.323-23.426-6.665-23.643-5.175-.175-5.704 11.797-5.484 16.68.385 8.532 2.083 15.514 5.59 23.218 3.209 7.046 7.422 13.796 12.15 20.19 4.858 6.567 8.908 14.075 12.043 21.748 3.726 9.126 5.233 18.502 5.483 28.072.289 11.115-1.958 24.198-8.387 33.722-4.921 7.287-12.497 13.027-21.395 14.27-8.111 1.131-16.068-2.286-21.182-8.516-6.681-8.14-8.438-19.86-8.494-29.712-.032-5.896.315-12.393 1.722-18.41.17-.915.257-1.373.429-2.287M424.59 172.82V2.374l24.298-.044v167.325c-8.099 1.054-16.199 2.11-24.298 3.163M462.006 167.949V2.307l24.298-.044c11.445-.489 20.865 6.814 26.447 16.264 10.71 18.132 10.965 42.403 10.965 62.528 0 20.755-.528 45.025-10.965 63.977-5.502 9.99-14.609 18.643-26.447 19.754l-24.298 3.163zm24.298-25.262l1.075-.121c6.237-1.093 7.543-10.623 8.063-15.535 1.54-14.556 1.828-29.589 1.828-44.23 0-14.56-.034-29.56-1.828-43.987-.498-4.004-1.182-7.17-2.15-9.402-1.936-4.463-3.333-5.12-5.913-5.07l-1.075.02v118.325zM534.579 158.501V2.175l49.559-.089v21.437l-25.263.51v42.735l18.707-1.047v21.456l-18.707 1.387v44.873c8.422-.94 16.84-1.882 25.263-2.825v21.438l-49.56 6.451M204.804 219.624a3893.773 3893.773 0 0 1 15.282 44.197c2.484 7.406 4.86 14.87 6.759 22.45.03 0 .043 0 .073-.003-.073-3.683-.22-7.997-.293-12.949-.074-4.95-.074-8.762-.074-11.429v-45.097l8.744-1.138v90.041l-10.508.022a4202.45 4202.45 0 0 0-15.502-46.17c-2.331-6.776-4.576-13.599-6.392-20.534-.06.006-.088.01-.147.015.147 4.034.22 8.323.294 12.857.074 4.535.147 7.845.147 10.054v43.826l-8.743.02v-84.814c4.145-.538 6.216-.809 10.36-1.348M267.328 209.873c22.589-2.82 25.182 32.719 25.203 47.016.02 15.65-2.54 50.049-25.203 50.349-22.396.298-24.893-31.124-25.202-47.014-.323-16.626 4.027-47.708 25.202-50.351m15.356 47.666c-.006-8.552-.435-17.79-3.6-25.996-2.31-5.99-6.246-8.715-11.462-8.121-5.364.61-9.642 4.332-11.977 10.23-3.234 8.175-3.738 17.435-3.747 25.925-.01 8.1.368 16.982 3.453 24.776 2.465 6.223 6.907 9.397 11.977 9.303 5.363-.098 9.378-3.304 11.756-9.78 3.1-8.442 3.606-17.656 3.6-26.337M302.668 206.886a16635.37 16635.37 0 0 1 8.524 52.045c1.201 7.557 2.415 15.114 3.528 22.685.351 2.28.529 3.42.88 5.704l.074-.002c1.39-9.662 2.98-19.298 4.482-28.942 2.891-18.29 5.757-36.587 8.597-54.886 3.94-.51 5.909-.768 9.847-1.28a14925.202 14925.202 0 0 1-18.076 103.3c-3.91.007-5.863.011-9.773.02a12706.914 12706.914 0 0 0-18.075-97.344c3.997-.519 5.995-.78 9.992-1.3M379.453 196.892v16.118c-8.572.953-17.145 1.905-25.717 2.859v28.703c7.665-.584 15.332-1.17 22.998-1.753v15.912l-22.998 1.32v29.755l25.717-.545v16.118c-11.635.026-23.27.052-34.904.076v-104.02l34.904-4.543M400.981 194.09c2.816 18.887 5.608 37.778 8.377 56.672 1.603 11.392 3.162 22.793 4.482 34.222l.073-.001c.794-6.6 1.19-9.907 1.985-16.537a792.399 792.399 0 0 1 2.425-18.1 26535.89 26535.89 0 0 0 8.449-59.613l14.109-1.836v116.348c-3.468.006-5.203.011-8.671.019v-67.662c0-3.292 0-7.902.074-13.672l.22-15.664-.148.016c-1.321 10.483-2.64 20.968-4.115 31.43a24130.872 24130.872 0 0 1-9.552 65.581l-9.845.022a23197.5 23197.5 0 0 0-9.48-63.746c-.146-.782-.808-5.179-1.91-13.467-.912-6.311-1.367-9.457-2.279-15.735l-.146.017c.145 9.459.333 18.919.368 28.38v64.581l-8.671.018V195.945l14.255-1.855M480.924 302.901c-3.013 1.576-6.614 2.27-10.948 2.28l-19.547.043v-117.57l18.812-2.448c7.72-1.452 14.607 2.202 17.193 9.805 2.515 6.558 2.82 14 2.867 20.844.06 8.841-1.272 19.56-6.834 26.9 7.823 6.794 9.027 18.79 8.817 28.347-.223 10.125-.185 25.584-10.36 31.8m-12.344-67.428c10.112.158 12.18-9.285 11.756-17.55-.42-8.155-1.069-16.905-11.684-15.343l-9.037 1.01v32.57c3.586-.275 5.378-.41 8.965-.687m7.715 17.716c-1.39-.684-3.674-.823-6.247-.673-4.173.242-6.259.365-10.433.61v35.113c4.026-.08 6.04-.123 10.067-.205 10.725.821 12.993-8.853 12.638-17.639-.249-6.155-.344-14.416-6.025-17.206M534.34 176.732v19.063c-8.574.952-17.146 1.904-25.718 2.858v34.111l22.998-1.753v18.83l-22.998 1.32v35.362l25.718-.546v19.063c-11.634.024-23.269.05-34.902.076v-123.84l34.902-4.544zM584.078 304.93c-3.968.01-5.951.014-9.918.022-2.25-9.948-1.906-20.476-2.057-30.427-.103-6.694.598-22.044-10.066-21.533l-9.771.514V305l-9.185.02V175.595l18.883-2.458c20.26-2.999 20.496 24.592 20.499 37.48 0 10.931-.786 24.351-8.083 33.72 6.765 7.217 6.91 19.131 6.833 28.366-.09 10.531.039 21.443 2.939 31.65l-.074.577m-22.63-112.714l-9.182 1.026v41.606l9.11-.646c11.455-.253 12.074-13.796 12.049-21.804-.023-7.268-.138-22.542-11.976-20.182M33.092 298.38c-2.163 5.303-9.42 9.431-14.875 9.378-8.877-.087-14.906-8.59-15.705-16.856 3.355-.822 5.031-1.24 8.385-2.086.515 5.817 2.976 10.091 7.672 9.826 9.777-.552 10.497-15.68 10.457-23.084-2.61 5.75-6.753 9.022-11.863 9.382C6.63 285.683 1.4 273.721 1.2 265.068c-.25-10.715 6.731-21.879 17.866-23.478 15.918-2.289 18.67 19.054 18.472 30.028-.16 9.03-1.04 18.413-4.446 26.762m-13.939-47.583c-6.325.717-9.157 5.072-9.149 13.677.005 7.616 2.777 11.474 8.822 11.085 5.755-.368 9.093-5.877 9.077-13.306-.016-7.15-2.716-12.14-8.75-11.456M82.255 277.81c.636-.737.917-1.157.917-1.157-1.634.192-3.622.304-6.037.44l-30.76 1.716-.037-10.151 30.734-2.32c2.342-.178 4.401-.333 6.033-.356-1.073-1.228-2.36-2.935-3.864-4.91-.257-.378-.386-.566-.645-.944a767.917 767.917 0 0 0-9.577-12.521l10.632-1.185a1446.102 1446.102 0 0 1 16.766 23.92 1106.05 1106.05 0 0 1-16.465 26.11l-10.674.219a815.884 815.884 0 0 0 9.594-14.082c.775-1.234 1.903-2.79 3.383-4.778M122.352 306.358c-3.53.01-5.293.012-8.822.02l-.442-54.736c-2.062 3.538-5.8 5.246-10.123 5.621-.29.024-.755.09-1.297.006a3.702 3.702 0 0 0-.793-.036c-.03-.08-.044-.124-.074-.205l-.08-10.762.07-.219c8.085-.894 13.17-7.263 13.569-15.278 2.934-.38 4.402-.572 7.336-.95l.656 76.54M148.268 226.161c17.454-2.219 19.08 28.13 19.224 39.504.145 11.637-.343 42.144-18.406 42.092-17.96-.05-18.91-27.332-19.156-39.619-.26-12.995 1.647-39.855 18.338-41.977m.115 11.48c-10.95 1.284-9.282 22.13-9.222 29.89.053 6.823-1.34 29.268 9.811 28.973 11.214-.297 9.445-23.193 9.288-30.232-.135-6.169 1.219-29.933-9.876-28.63"/></g></svg>