<?xml version="1.0" encoding="utf-8"?>
<!-- Generator: Adobe Illustrator 18.1.0, SVG Export Plug-In . SVG Version: 6.00 Build 0)  -->
<svg version="1.1" id="Layer_1" xmlns="http://www.w3.org/2000/svg" xmlns:xlink="http://www.w3.org/1999/xlink" x="0px" y="0px"
	 viewBox="0 0 408.8 83" enable-background="new 0 0 408.8 83" xml:space="preserve">
<g>
	<g>
		<path fill="#000000" d="M70.6,0H0v59.5C0,72.4,10.6,83,23.5,83h47.1c12.9,0,23.5-10.6,23.5-23.5v-36C94.1,10.6,83.5,0,70.6,0z
			 M62.9,65.5h-6.2l-9.7-19.2l-9.7,19.2h-6.2L9.6,22.6h5.9L34.3,60l3.5-6.9L22.3,22.6h5.9l12.5,24.8l3.5-6.9l-9-17.9H41l6.1,12.1
			l6.1-12.1H59l-9,17.9l3.5,6.9l12.5-24.8h5.9L56.4,53.2l3.5,6.9l18.9-37.4h5.9L62.9,65.5z"/>
	</g>
</g>
<rect x="-31.4" y="-31.3" fill="none" width="471.5" height="145.7"/>
<g>
	<g>
		<path fill="#000000" d="M114.4,46.2h8.5c2.1,0,4.8,0,6.2,0.9c1.5,0.9,2.8,2.6,2.8,4.9c0,2.5-1.3,4.4-3.5,5.3v0.1
			c2.9,0.6,4.5,2.8,4.5,5.7c0,3.5-2.5,6.8-7.1,6.8h-11.4V46.2z M117.5,56.3h6.3c3.6,0,5-1.3,5-3.8c0-3.3-2.3-3.7-5-3.7h-6.3V56.3z
			 M117.5,67.1h7.8c2.7,0,4.4-1.6,4.4-4.2c0-3.1-2.5-3.9-5.1-3.9h-7.1V67.1z"/>
		<path fill="#000000" d="M142.7,52.3c5.4,0,8.3,3.9,8.3,8.9c0,5-2.9,8.9-8.3,8.9c-5.4,0-8.3-3.9-8.3-8.9
			C134.4,56.2,137.3,52.3,142.7,52.3z M142.7,67.7c2.9,0,5.3-2.3,5.3-6.4c0-4.2-2.4-6.5-5.3-6.5c-2.9,0-5.3,2.3-5.3,6.5
			C137.4,65.4,139.8,67.7,142.7,67.7z"/>
		<path fill="#000000" d="M160.4,52.3c5.4,0,8.3,3.9,8.3,8.9c0,5-2.9,8.9-8.3,8.9c-5.4,0-8.3-3.9-8.3-8.9
			C152.2,56.2,155,52.3,160.4,52.3z M160.4,67.7c2.9,0,5.3-2.3,5.3-6.4c0-4.2-2.4-6.5-5.3-6.5c-2.9,0-5.3,2.3-5.3,6.5
			C155.1,65.4,157.5,67.7,160.4,67.7z"/>
		<path fill="#000000" d="M171,46.2h2.8v13.9l7.8-7.4h3.8l-6.8,6.2l7.2,10.8h-3.6l-5.8-8.9l-2.6,2.4v6.5H171V46.2z"/>
		<path fill="#000000" d="M188.5,64.4c0.1,2.5,2.3,3.3,4.6,3.3c1.7,0,4.1-0.4,4.1-2.5c0-2.2-2.8-2.5-5.6-3.2
			c-2.8-0.6-5.6-1.5-5.6-4.8c0-3.4,3.4-4.8,6.4-4.8c3.8,0,6.8,1.2,7,5.3h-2.8c-0.2-2.2-2.1-2.9-4-2.9c-1.7,0-3.6,0.5-3.6,2.2
			c0,2,3,2.3,5.6,3c2.8,0.6,5.6,1.5,5.6,4.8c0,4.1-3.8,5.4-7.2,5.4c-3.8,0-7-1.5-7.2-5.8H188.5z"/>
	</g>
	<g>
		<path fill="#000000" d="M229.3,69.7h-3.3l-5.4-19.8h-0.1l-5.4,19.8h-3.3l-6-23.5h3.2l4.6,19.6h0.1l5.3-19.6h3.4l5.2,19.6h0.1
			l4.8-19.6h3.1L229.3,69.7z"/>
		<path fill="#000000" d="M236.3,52.7h2.6v3.6h0.1c1.4-2.7,3.2-4.1,6.3-4v3c-4.5,0-6.2,2.6-6.2,6.9v7.6h-2.8V52.7z"/>
		<path fill="#000000" d="M249.1,49.6h-2.8v-3.4h2.8V49.6z M246.3,52.7h2.8v17h-2.8V52.7z"/>
		<path fill="#000000" d="M256.2,52.7h3.4v2.5h-3.4v10.6c0,1.3,0.4,1.5,2.1,1.5h1.3v2.5h-2.1c-2.9,0-4.1-0.6-4.1-3.7V55.1h-2.9v-2.5
			h2.9v-5.1h2.8V52.7z"/>
		<path fill="#000000" d="M264.5,49.6h-2.8v-3.4h2.8V49.6z M261.7,52.7h2.8v17h-2.8V52.7z"/>
		<path fill="#000000" d="M267.7,52.7h2.6v2.7h0.1c1.2-2.1,3.1-3.1,5.5-3.1c4.5,0,5.9,2.6,5.9,6.2v11.2H279V58.2
			c0-2.1-1.3-3.4-3.5-3.4c-3.4,0-5,2.3-5,5.3v9.6h-2.8V52.7z"/>
		<path fill="#000000" d="M299.6,68.2c0,5.5-2.5,8.4-7.9,8.4c-3.2,0-6.9-1.3-7-5h2.8c0.1,2,2.6,2.8,4.4,2.8c3.7,0,5.1-2.6,5.1-6.5
			v-1.1h-0.1c-0.9,2.1-3.2,3.1-5.3,3.1c-5.1,0-7.6-4-7.6-8.6c0-4,2-9,7.9-9c2.1,0,4.1,1,5.1,2.8h0h0.1v-2.4h2.6V68.2z M296.8,60.8
			c0-3-1.3-6.1-4.8-6.1c-3.6,0-5,2.9-5,6.2c0,3.1,1.1,6.5,4.8,6.5C295.4,67.4,296.8,64,296.8,60.8z"/>
	</g>
	<g>
		<path fill="#000000" d="M310.1,46.1h3.1v23.5h-3.1V46.1z"/>
		<path fill="#000000" d="M332.1,69.6h-2.8v-2.3h-0.1c-0.9,1.9-3.1,2.7-5.4,2.7c-5.2,0-7.8-4.2-7.8-9c0-4.8,2.6-8.9,7.8-8.9
			c1.7,0,4.2,0.7,5.5,2.7h0.1v-8.8h2.8V69.6z M324.2,67.6c3.8,0,5.2-3.2,5.2-6.4c0-3.4-1.5-6.5-5.4-6.5c-3.8,0-5.1,3.3-5.1,6.6
			C319,64.5,320.6,67.6,324.2,67.6z"/>
		<path fill="#000000" d="M349.8,64.2c-0.8,3.8-3.5,5.8-7.3,5.8c-5.4,0-8-3.8-8.2-9c0-5.1,3.4-8.9,8-8.9c6,0,7.9,5.6,7.7,9.7h-12.7
			c-0.1,3,1.6,5.6,5.3,5.6c2.3,0,3.9-1.1,4.4-3.3H349.8z M347.1,59.5c-0.1-2.7-2.1-4.8-4.9-4.8c-2.9,0-4.7,2.2-4.9,4.8H347.1z"/>
		<path fill="#000000" d="M366.9,69.6c-0.5,0.3-1.1,0.5-2,0.5c-1.5,0-2.4-0.8-2.4-2.6c-1.5,1.8-3.6,2.6-6,2.6
			c-3.1,0-5.6-1.4-5.6-4.8c0-3.9,2.9-4.7,5.8-5.2c3.1-0.6,5.7-0.4,5.7-2.5c0-2.4-2-2.8-3.8-2.8c-2.4,0-4.1,0.7-4.2,3.2h-2.8
			c0.2-4.2,3.4-5.7,7.2-5.7c3.1,0,6.4,0.7,6.4,4.7v8.8c0,1.3,0,1.9,0.9,1.9c0.2,0,0.5,0,0.9-0.2V69.6z M362.4,60.8
			c-1.1,0.8-3.2,0.8-5.1,1.1c-1.8,0.3-3.4,1-3.4,3.1c0,1.8,1.6,2.5,3.3,2.5c3.7,0,5.2-2.3,5.2-3.9V60.8z"/>
		<path fill="#000000" d="M370.1,64.3c0.1,2.5,2.3,3.3,4.6,3.3c1.7,0,4.1-0.4,4.1-2.5c0-2.2-2.8-2.5-5.6-3.2
			c-2.8-0.6-5.6-1.5-5.6-4.8c0-3.4,3.4-4.8,6.4-4.8c3.8,0,6.8,1.2,7,5.3h-2.8c-0.2-2.2-2.1-2.9-4-2.9c-1.7,0-3.6,0.5-3.6,2.2
			c0,2,3,2.3,5.6,3c2.8,0.6,5.6,1.5,5.6,4.8c0,4.1-3.8,5.4-7.2,5.4c-3.8,0-7-1.5-7.2-5.8H370.1z"/>
	</g>
</g>
<g>
	<g>
		<path fill="#000000" d="M134.4,11.2v6.5h-2.9l-0.3-3.1h-5v19.1l3.1,0.3V37h-9.8v-2.9l3.1-0.3V14.6h-5l-0.3,3.1h-2.9v-6.5H134.4z"
			/>
		<path fill="#000000" d="M142,20.3c1.2-0.6,2.7-0.9,4-0.9c4.2,0,6.3,2.1,6.3,5.5v8.9l3.1,0.3V37h-6.6V24.8c0-1.6-1.2-2.2-2.8-2.2
			c-1.7,0-3.1,0.4-4,0.8v10.3l3.1,0.3V37h-9.7v-2.9l3.1-0.3V14.4l-3.1-0.3v-2.9h6.6V20.3z"/>
		<path fill="#000000" d="M159.5,30c0.3,2.3,1.4,4.1,4.3,4.1c2.2,0,3.8-0.3,5.9-1.2v3.3c-2.2,1-4.3,1.2-5.9,1.2c-5.5,0-8-3.6-8-9.1
			c0-5.4,2.5-9.1,8-9.1c6,0,7,4.4,7,9.2V30H159.5z M159.4,27h7.7c0-2.3-0.5-4.4-3.3-4.4C160.8,22.6,159.7,24.6,159.4,27z"/>
	</g>
	<g>
		<path fill="#000000" d="M193.3,11.2l5.3,19.6l2.7-16.3l-3.4-0.4v-2.9h10.8v2.9l-3.6,0.4L200.6,37h-3.3l-5.7-20l-5.7,20h-3.3
			L178,14.5l-3.6-0.4v-2.9h10.8v2.9l-3.4,0.4l2.7,16.3l5.3-19.6H193.3z"/>
		<path fill="#000000" d="M214.6,20.3c1.2-0.6,2.7-0.9,4-0.9c4.2,0,6.3,2.1,6.3,5.5v8.9l3.1,0.3V37h-6.6V24.8c0-1.6-1.2-2.2-2.8-2.2
			c-1.7,0-3.1,0.4-4,0.8v10.3l3.1,0.3V37h-9.7v-2.9l3.1-0.3V14.4l-3.1-0.3v-2.9h6.6V20.3z"/>
		<path fill="#000000" d="M232.1,30c0.3,2.3,1.4,4.1,4.3,4.1c2.2,0,3.8-0.3,5.9-1.2v3.3c-2.2,1-4.3,1.2-5.9,1.2c-5.5,0-8-3.6-8-9.1
			s2.5-9.1,8-9.1c6,0,7,4.4,7,9.2V30H232.1z M232.1,27h7.7c0-2.3-0.5-4.4-3.3-4.4C233.4,22.6,232.3,24.6,232.1,27z"/>
		<path fill="#000000" d="M249.1,30c0.3,2.3,1.4,4.1,4.3,4.1c2.2,0,3.8-0.3,5.9-1.2v3.3c-2.2,1-4.3,1.2-5.9,1.2c-5.5,0-8-3.6-8-9.1
			s2.5-9.1,8-9.1c6,0,7,4.4,7,9.2V30H249.1z M249,27h7.7c0-2.3-0.5-4.4-3.3-4.4C250.4,22.6,249.3,24.6,249,27z"/>
		<path fill="#000000" d="M267.7,33.8l3.1,0.3V37h-9.7v-2.9l3.1-0.3V14.4l-3.1-0.3v-2.9h6.6V33.8z"/>
		<path fill="#000000" d="M275.2,30c0.3,2.3,1.4,4.1,4.3,4.1c2.2,0,3.8-0.3,5.9-1.2v3.3c-2.2,1-4.3,1.2-5.9,1.2c-5.5,0-8-3.6-8-9.1
			s2.5-9.1,8-9.1c6,0,7,4.4,7,9.2V30H275.2z M275.2,27h7.7c0-2.3-0.5-4.4-3.3-4.4C276.5,22.6,275.4,24.6,275.2,27z"/>
		<path fill="#000000" d="M294.1,20.7c1.5-0.9,3.1-1.4,4.8-1.4c1.3,0,2.4,0.2,3.2,0.4v5.7h-2.9l-0.3-2.9c-1.8,0-3,0.4-4,0.8v10.3
			l3.1,0.3V37h-9.7v-2.9l3.1-0.3V23l-3.1-0.3v-2.9h5.5L294.1,20.7z"/>
	</g>
	<g>
		<path fill="#000000" d="M320.9,11.2c3.1,0,5.4,0.6,7,1.2v6.1h-2.9l-0.4-3.6c-1.3-0.3-2.4-0.4-3.7-0.4c-5.1,0-7.6,4.1-7.6,9.7
			c0,5.6,2.5,9.7,7.6,9.7c1.3,0,2.4-0.1,3.7-0.4l0.4-3.6h2.9v6.1c-1.6,0.7-3.9,1.2-7,1.2c-7.8,0-11.4-5.9-11.4-13.1
			C309.6,17.1,313.1,11.2,320.9,11.2z"/>
		<path fill="#000000" d="M333.4,30c0.3,2.3,1.4,4.1,4.3,4.1c2.2,0,3.8-0.3,5.9-1.2v3.3c-2.2,1-4.3,1.2-5.9,1.2c-5.5,0-8-3.6-8-9.1
			c0-5.4,2.5-9.1,8-9.1c6,0,7,4.4,7,9.2V30H333.4z M333.3,27h7.7c0-2.3-0.5-4.4-3.3-4.4C334.7,22.6,333.6,24.6,333.3,27z"/>
		<path fill="#000000" d="M352.3,20.7c1.4-0.9,3.2-1.4,4.8-1.4c4.2,0,6.3,2.1,6.3,5.5v8.9l3.1,0.3V37h-6.6V24.8
			c0-1.6-1.2-2.2-2.8-2.2c-1.7,0-3.1,0.4-4,0.8v10.3l3.1,0.3V37h-9.7v-2.9l3.1-0.3V23l-3.1-0.3v-2.9h5.5L352.3,20.7z"/>
		<path fill="#000000" d="M376.3,37.2c-0.5,0.2-1.4,0.2-1.8,0.2c-4.3,0-5.9-1.8-5.9-5.1V23h-3.1v-2.9l3.1-0.3v-5.5l3.5-0.4v5.9h5.1
			V23H372v9.3c0,1.1,0.4,1.9,2.4,1.9c0.8,0,1.5-0.1,1.8-0.2V37.2z"/>
		<path fill="#000000" d="M384.3,20.7c1.5-0.9,3.1-1.4,4.8-1.4c1.3,0,2.4,0.2,3.2,0.4v5.7h-2.9l-0.3-2.9c-1.8,0-3,0.4-4,0.8v10.3
			l3.1,0.3V37h-9.7v-2.9l3.1-0.3V23l-3.1-0.3v-2.9h5.5L384.3,20.7z"/>
		<path fill="#000000" d="M397.4,30c0.3,2.3,1.4,4.1,4.3,4.1c2.2,0,3.8-0.3,5.9-1.2v3.3c-2.2,1-4.3,1.2-5.9,1.2c-5.5,0-8-3.6-8-9.1
			c0-5.4,2.5-9.1,8-9.1c6,0,7,4.4,7,9.2V30H397.4z M397.4,27h7.7c0-2.3-0.5-4.4-3.3-4.4C398.7,22.6,397.7,24.6,397.4,27z"/>
	</g>
</g>
</svg>
