<?xml version="1.0" standalone="no"?>
<!DOCTYPE svg PUBLIC "-//W3C//DTD SVG 1.1//EN" "http://www.w3.org/Graphics/SVG/1.1/DTD/svg11.dtd" >
<svg xmlns="http://www.w3.org/2000/svg">
<metadata>
Created by FontPrep 20130207 at Mon Feb  3 16:59:52 2014
 By Anthony Kolber
Copyright (c) 2013 by Type Dynamic. All rights reserved.
</metadata>
<defs>
<font id="3d458dca80a8138a9850a3a92e0bdb1c" horiz-adv-x='1024' >
  <font-face 
    font-family="Larsseit-Medium"
    font-weight="500"
    font-stretch="normal"
    units-per-em="2048"
    panose-1="0 0 0 0 0 0 0 0 0 0"
    ascent="1536"
    descent="-512"
    x-height="1036"
    cap-height="1434"
    bbox="-387 -590 6294 2019"
    underline-thickness="102"
    underline-position="-102"
    unicode-range="U+0020-FB01"
  />
<missing-glyph horiz-adv-x="1216" 
d="M248 1163v-909l287 455zM606 596l-301 -475h600zM971 1174l-297 -465l297 -465v930zM913 1313h-616l309 -492zM127 1434h963v-1434h-963v1434z" />
    <glyph glyph-name="fi" unicode="fi" horiz-adv-x="1212" 
d="M948 1485q58 0 100 -41t42 -98q0 -56 -41 -96t-101 -40t-99 39q-40 39 -40 97t40 99q40 40 99 40zM1057 1036v-1036h-217v1036h217zM537 1516q74 0 127 -23v-195q-59 23 -117 23q-121 0 -121 -156v-129h238v-198h-238v-838h-219v838h-182v198h182v135q0 165 85 255
t245 90z" />
    <glyph glyph-name="f_j" unicode="fj" horiz-adv-x="1212" 
d="M948 1485q58 0 100 -41t42 -98q0 -56 -41 -96t-101 -40t-99 39q-40 39 -40 97t40 99q40 40 99 40zM1057 1036v-1118q0 -381 -328 -381q-96 0 -151 19v196q50 -16 122 -16q140 0 140 188v1112h217zM537 1516q74 0 127 -23v-195q-59 23 -117 23q-121 0 -121 -156v-129h238
v-198h-238v-838h-219v838h-182v198h182v135q0 165 85 255t245 90z" />
    <glyph glyph-name=".notdef" horiz-adv-x="1216" 
d="M248 1163v-909l287 455zM606 596l-301 -475h600zM971 1174l-297 -465l297 -465v930zM913 1313h-616l309 -492zM127 1434h963v-1434h-963v1434z" />
    <glyph glyph-name=".null" horiz-adv-x="0" 
 />
    <glyph glyph-name="nonmarkingreturn" horiz-adv-x="681" 
 />
    <glyph glyph-name="space" unicode=" " horiz-adv-x="413" 
 />
    <glyph glyph-name="exclam" unicode="!" 
d="M262 262q60 0 104 -40t44 -101t-43 -103t-105 -41q-62 0 -103 41q-42 40 -42 102t42 102t103 40zM371 1434v-1012h-217v1012h217z" />
    <glyph glyph-name="quotedbl" unicode="&#x22;" horiz-adv-x="679" 
d="M621 1491l-48 -438h-141l-16 438h205zM276 1491l-47 -438h-141l-16 438h204z" />
    <glyph glyph-name="numbersign" unicode="#" horiz-adv-x="1366" 
d="M569 924l-65 -377h293l65 377h-293zM1241 547v-203h-264l-59 -344h-218l60 344h-293l-59 -344h-218l60 344h-219v203h256l65 377h-227v202h264l53 308h217l-53 -308h293l53 308h217l-53 -308h219v-202h-256l-65 -377h227z" />
    <glyph glyph-name="dollar" unicode="$" horiz-adv-x="1132" 
d="M657 1647v-193q156 -25 244 -129t96 -281h-233q-2 100 -58 156t-148 55q-92 0 -143 -50q-53 -50 -53 -138t58 -133t213 -105q223 -78 316 -175t93 -265q0 -169 -105 -279t-280 -130v-193h-165v193q-190 23 -292 143q-101 121 -106 307h232q4 -122 70 -188t182 -66
q115 0 174 56t59 144t-63 139t-243 113t-277 157t-97 261t96 278t265 132v191h165z" />
    <glyph glyph-name="percent" unicode="%" horiz-adv-x="1765" 
d="M1359 520q-75 0 -124 -54t-49 -134t49 -133t124 -53t123 52q48 54 48 134t-48 134t-123 54zM1359 692q151 0 252 -103t101 -258t-101 -256t-252 -101t-252 100q-101 102 -101 257t101 258t252 103zM408 1288q-76 0 -124 -53t-48 -134t49 -134t123 -53t122 52
q48 54 48 135t-47 134t-123 53zM408 1460q152 0 252 -102t100 -257t-100 -257t-252 -102t-252 100q-100 102 -101 258q1 156 101 258t252 102zM1409 1434l-819 -1434h-234l820 1434h233z" />
    <glyph glyph-name="ampersand" unicode="&#x26;" horiz-adv-x="1343" 
d="M420 1126q0 -88 52 -148q17 -22 52 -60l25 -29l34 19q25 12 31 18t26 18q98 60 97 174q0 60 -43 104q-42 44 -112 44t-116 -43t-46 -97zM598 168q138 0 236 92l-340 371h-2q-90 -53 -136 -107t-47 -150q0 -94 75 -150q76 -56 214 -56zM76 383q0 137 70 224q71 87 200 163
l12 8l-32 37q-133 145 -133 298t103 250q104 97 278 97t282 -92t109 -244q0 -152 -81 -234q-81 -81 -196 -147l-4 -2l260 -282l12 55q20 119 0 231l211 11q39 -273 -63 -471l262 -285h-295l-102 111q-156 -137 -390 -137t-369 109q-134 110 -134 300z" />
    <glyph glyph-name="quotesingle" unicode="'" horiz-adv-x="335" 
d="M276 1491l-47 -438h-141l-16 438h204z" />
    <glyph glyph-name="parenleft" unicode="(" horiz-adv-x="581" 
d="M299 658q0 -228 62 -399t202 -351l-155 -107q-156 193 -236 396t-80 461t80 460t236 395l155 -106q-139 -180 -201 -351q-62 -170 -63 -398z" />
    <glyph glyph-name="parenright" unicode=")" horiz-adv-x="581" 
d="M492 657q0 -257 -81 -459t-237 -397l-156 107q139 178 202 349q62 171 63 400q-1 229 -63 401t-202 349l156 106q156 -195 237 -397t81 -459z" />
    <glyph glyph-name="asterisk" unicode="*" horiz-adv-x="729" 
d="M442 1511l-6 -241l221 82l52 -150l-228 -69l148 -193l-127 -92l-137 194l-136 -194l-127 92l144 188l-228 72l50 150l223 -80l-6 241h157z" />
    <glyph glyph-name="plus" unicode="+" horiz-adv-x="966" 
d="M582 1139v-326h323v-195h-323v-323h-197v323h-324v195h324v326h197z" />
    <glyph glyph-name="comma" unicode="," horiz-adv-x="425" 
d="M213 256q59 0 99 -41t40 -111q0 -195 -157 -374l-68 24q55 100 68 234q-53 6 -87 42t-34 92t40 95t99 39z" />
    <glyph glyph-name="hyphen" unicode="-" horiz-adv-x="747" 
d="M696 629v-195h-645v195h645z" />
    <glyph glyph-name="period" unicode="." horiz-adv-x="432" 
d="M215 262q61 0 103 -40t42 -101t-42 -103t-103 -41q-61 0 -102 41q-41 40 -41 102t41 102t102 40z" />
    <glyph glyph-name="slash" unicode="/" horiz-adv-x="815" 
d="M805 1434l-580 -1434h-215l580 1434h215z" />
    <glyph glyph-name="zero" unicode="0" horiz-adv-x="1155" 
d="M578 1245q-129 0 -195 -138t-66 -389t66 -390q66 -140 195 -140q128 0 194 140t66 390q0 251 -66 389t-194 138zM578 1460q236 0 364 -198t129 -544q0 -345 -129 -545q-128 -200 -364 -200t-365 200t-129 545q0 346 129 544t365 198z" />
    <glyph glyph-name="one" unicode="1" horiz-adv-x="739" 
d="M592 1434v-1434h-230v1051h-303v194q168 0 251 41t110 148h172z" />
    <glyph glyph-name="two" unicode="2" horiz-adv-x="1007" 
d="M515 1460q198 0 304 -110t107 -295q0 -117 -45 -214t-131 -204l-336 -422h526v-215h-844v168l451 555q80 96 113 166q34 70 34 155q0 201 -184 201q-90 0 -143 -58t-52 -177h-229q-2 206 114 328t315 122z" />
    <glyph glyph-name="three" unicode="3" horiz-adv-x="1101" 
d="M113 1018q-1 206 115 324t312 118t308 -116t113 -293q-1 -121 -57 -199t-134 -107q100 -29 170 -117t70 -229q0 -193 -127 -309t-338 -117q-211 0 -336 119t-125 332h229q2 -119 68 -177q66 -59 170 -59q105 0 165 60t60 167q0 108 -77 167t-218 59h-63v201h61
q129 0 190 48q60 48 60 147t-49 153t-137 55q-89 0 -145 -57t-56 -170h-229z" />
    <glyph glyph-name="four" unicode="4" horiz-adv-x="1138" 
d="M657 481v647l-41 -84l-317 -563h358zM885 1434v-951h192v-207h-192v-276h-232v276h-600v187l551 971h281z" />
    <glyph glyph-name="five" unicode="5" horiz-adv-x="1099" 
d="M952 1434v-215h-567v-357q82 47 215 47q190 -1 308 -117t118 -333t-124 -351t-336 -134t-334 111q-122 112 -121 318h231q4 -213 228 -215q106 0 165 72t60 191t-61 185t-176 66t-202 -59h-204v791h800z" />
    <glyph glyph-name="six" unicode="6" horiz-adv-x="1130" 
d="M584 688q-100 0 -171 -68t-73 -167v-11q0 -102 68 -180t173 -78t170 73t65 181t-66 179t-166 71zM596 1460q182 0 300 -114t126 -299h-234q-14 199 -200 198q-127 1 -193 -113t-69 -364q40 53 116 89t166 36q203 0 323 -126t120 -330t-128 -334t-342 -130t-341 146
q-146 170 -146 561q0 392 122 586t380 194z" />
    <glyph glyph-name="seven" unicode="7" horiz-adv-x="1017" 
d="M946 1434v-187l-553 -1247h-250l541 1217h-608v217h870z" />
    <glyph glyph-name="eight" unicode="8" horiz-adv-x="1128" 
d="M563 1247q-88 0 -143 -56q-55 -55 -55 -149t55 -149t144 -55t145 55q55 55 55 147t-56 150q-57 57 -145 57zM801 408q0 102 -69 164t-168 63q-99 -1 -169 -63q-69 -62 -69 -164t69 -163q70 -61 170 -61t168 60q68 62 68 164zM139 1047q0 173 118 293t307 120t308 -120
t119 -293q0 -113 -50 -194t-116 -118q85 -41 147 -123t62 -211q0 -184 -135 -306t-335 -122t-335 122t-135 306q0 125 60 211t149 123q-66 39 -115 119t-49 193z" />
    <glyph glyph-name="nine" unicode="9" horiz-adv-x="1130" 
d="M546 745q101 0 172 71q70 71 70 174t-67 181q-68 78 -173 78q-105 -1 -170 -73t-65 -180t66 -180q66 -71 167 -71zM532 -27q-182 0 -300 114t-126 300h234q14 -199 201 -199q127 0 193 113t69 363q-41 -52 -117 -88t-166 -35q-202 0 -322 126q-120 125 -120 329t128 334
t342 130t341 -145q145 -170 145 -561t-122 -586t-380 -195z" />
    <glyph glyph-name="colon" unicode=":" horiz-adv-x="432" 
d="M215 262q61 0 103 -40t42 -101t-42 -103t-103 -41q-61 0 -102 41q-41 40 -41 102t41 102t102 40zM215 1059q61 0 103 -42q42 -43 42 -103t-42 -101t-103 -41t-102 41t-41 101t41 102t102 43z" />
    <glyph glyph-name="semicolon" unicode=";" horiz-adv-x="432" 
d="M215 256q59 0 100 -41t41 -111q0 -193 -159 -374l-66 24q51 94 68 234q-53 6 -88 42t-35 92t40 95t99 39zM215 1059q61 0 103 -42q42 -43 42 -103t-42 -101t-103 -41t-102 41t-41 101t41 102t102 43z" />
    <glyph glyph-name="less" unicode="&#x3c;" horiz-adv-x="552" 
d="M526 913l-301 -401l301 -399h-211l-290 383v34l290 383h211z" />
    <glyph glyph-name="equal" unicode="=" horiz-adv-x="966" 
d="M905 600v-192h-844v192h844zM905 1022v-191h-844v191h844z" />
    <glyph glyph-name="greater" unicode="&#x3e;" horiz-adv-x="552" 
d="M238 913l288 -383v-34l-288 -383h-213l303 399l-303 401h213z" />
    <glyph glyph-name="question" unicode="?" horiz-adv-x="876" 
d="M418 262q61 0 103 -40t42 -101t-42 -103t-103 -41q-61 0 -104 41q-42 40 -42 102t42 102q43 40 104 40zM427 1464q179 0 300 -104t121 -289q0 -100 -33 -181t-80 -130t-95 -91q-114 -100 -114 -186v-61h-219v70q0 139 117 244q49 44 98 87q117 103 117 242q0 105 -56 163
q-57 58 -155 58t-156 -60t-59 -173h-207q2 193 122 302t299 109z" />
    <glyph glyph-name="at" unicode="@" horiz-adv-x="1673" 
d="M840 1253q344 0 552 -215t207 -546q0 -216 -93 -318t-222 -102q-158 0 -217 125q-97 -127 -273 -127t-284 120t-107 299t107 301t280 122t254 -140l11 121h159v-569q0 -59 20 -88t73 -29q143 -1 143 277t-167 453t-445 175t-448 -174q-169 -174 -169 -446t169 -448
t450 -175q150 0 278 61l49 -135q-141 -66 -327 -65q-346 0 -556 214t-210 550t211 548t555 211zM809 743q-94 0 -156 -70q-61 -71 -61 -183t61 -180t155 -68t162 61q67 61 66 170v29q0 113 -66 177q-67 64 -161 64z" />
    <glyph glyph-name="A" unicode="A" horiz-adv-x="1445" 
d="M721 1147l-27 -78l-198 -512h454l-202 512zM846 1434l567 -1434h-252l-137 350h-604l-135 -350h-252l567 1434h246z" />
    <glyph glyph-name="B" unicode="B" horiz-adv-x="1193" 
d="M578 1219h-195v-390h201q100 1 159 53t59 143t-58 143q-60 52 -166 51zM643 625h-260v-410h260q113 0 177 54q64 53 65 151q-1 98 -65 152t-177 53zM578 1434q212 0 336 -108t124 -292t-141 -286q105 -41 165 -127t60 -205q0 -188 -130 -302t-349 -114h-489v1434h424z
" />
    <glyph glyph-name="C" unicode="C" horiz-adv-x="1499" 
d="M791 1460q255 0 421 -125t226 -344h-254q-92 254 -393 254q-209 0 -340 -148q-131 -149 -131 -379t132 -380t343 -150q158 0 258 72t143 193h246q-61 -229 -225 -355t-422 -125q-313 0 -515 211t-202 533q0 323 201 533t512 210z" />
    <glyph glyph-name="D" unicode="D" horiz-adv-x="1497" 
d="M678 1219h-295v-1004h295q233 0 365 132t133 370q0 238 -131 370t-367 132zM678 1434q334 0 534 -198t199 -520q0 -322 -200 -520q-200 -196 -533 -196h-524v1434h524z" />
    <glyph glyph-name="E" unicode="E" horiz-adv-x="1052" 
d="M958 1434v-215h-575v-375h502v-213h-502v-416h575v-215h-804v1434h804z" />
    <glyph glyph-name="F" unicode="F" horiz-adv-x="995" 
d="M944 1434v-215h-561v-394h477v-215h-477v-610h-229v1434h790z" />
    <glyph glyph-name="G" unicode="G" horiz-adv-x="1552" 
d="M791 1460q255 0 421 -125t226 -344h-254q-92 254 -396 254q-208 0 -338 -148q-130 -149 -130 -379t132 -380t330 -150t308 90q111 90 118 261h-389v215h633v-111q0 -313 -177 -491t-485 -178t-510 210q-202 211 -202 533q0 323 201 533t512 210z" />
    <glyph glyph-name="H" unicode="H" horiz-adv-x="1458" 
d="M1305 1434v-1434h-230v633h-692v-633h-229v1434h229v-584h692v584h230z" />
    <glyph glyph-name="I" unicode="I" horiz-adv-x="536" 
d="M383 1434v-1434h-229v1434h229z" />
    <glyph glyph-name="J" unicode="J" horiz-adv-x="1052" 
d="M918 1434v-1010q0 -217 -109 -330q-109 -112 -319 -112t-321 124q-110 124 -116 347h230q12 -256 215 -256q92 0 141 62t49 177v998h230z" />
    <glyph glyph-name="K" unicode="K" horiz-adv-x="1384" 
d="M391 0h-229v1434h229v-772l565 772h283l-467 -637l578 -797h-277l-457 612l-225 -286v-326z" />
    <glyph glyph-name="L" unicode="L" horiz-adv-x="1048" 
d="M381 1434v-1219h620v-215h-849v1434h229z" />
    <glyph glyph-name="M" unicode="M" horiz-adv-x="1806" 
d="M1655 1434v-1434h-230v995l-41 -116l-387 -879h-190l-385 879l-39 116v-995h-229v1434h258l454 -994l35 -88l494 1082h260z" />
    <glyph glyph-name="N" unicode="N" horiz-adv-x="1474" 
d="M1323 1434v-1434h-227l-658 954l-55 90v-1044h-229v1434h225l653 -953l62 -96v1049h229z" />
    <glyph glyph-name="O" unicode="O" horiz-adv-x="1632" 
d="M817 1245q-221 0 -359 -148q-138 -149 -138 -379t138 -380t359 -150t359 150q137 150 137 380t-137 379q-138 148 -359 148zM78 719q0 321 208 531t530 210q323 0 530 -210q206 -210 206 -532t-206 -533q-206 -212 -530 -212q-322 0 -530 212t-208 534z" />
    <glyph glyph-name="P" unicode="P" horiz-adv-x="1128" 
d="M594 1219h-211v-467h211q116 0 184 61t68 171t-68 172t-184 63zM594 1434q221 0 353 -125t132 -325t-132 -324t-353 -123h-211v-537h-229v1434h440z" />
    <glyph glyph-name="Q" unicode="Q" horiz-adv-x="1622" 
d="M817 1245q-221 0 -359 -148q-138 -149 -138 -379t138 -380t359 -150q63 0 119 13l-244 239h322l133 -129q166 149 166 393t-137 393q-138 148 -359 148zM78 719q0 321 208 531t530 210q323 0 530 -210t206 -531q0 -354 -241 -567l362 -365h-319l-242 242
q-143 -55 -295 -56q-323 0 -531 212t-208 534z" />
    <glyph glyph-name="R" unicode="R" horiz-adv-x="1153" 
d="M567 1219h-184v-453h184q115 0 184 58t68 167q1 109 -67 169t-185 59zM567 1434q221 0 353 -122t133 -321q0 -137 -69 -239t-191 -152l321 -600h-262l-299 561h-170v-561h-229v1434h413z" />
    <glyph glyph-name="S" unicode="S" horiz-adv-x="1101" 
d="M548 1460q198 0 312 -106t123 -310h-233q-2 100 -58 156t-148 55q-92 0 -144 -50t-52 -138t58 -133t212 -105q222 -78 316 -175t94 -257q0 -197 -129 -311t-346 -113q-217 0 -343 124t-130 333h231q4 -122 71 -188q68 -66 182 -66t173 56t59 144t-62 139q-64 51 -244 113
t-276 157q-97 95 -97 269t116 291q117 115 315 115z" />
    <glyph glyph-name="T" unicode="T" horiz-adv-x="1251" 
d="M1229 1434v-215h-490v-1219h-229v1219h-487v215h1206z" />
    <glyph glyph-name="U" unicode="U" horiz-adv-x="1413" 
d="M1278 1434v-863q0 -287 -150 -443t-422 -155q-272 0 -421 156q-150 156 -150 442v863h230v-863q0 -383 341 -383t341 383v863h231z" />
    <glyph glyph-name="V" unicode="V" horiz-adv-x="1411" 
d="M1382 1434l-569 -1434h-213l-571 1434h245l402 -1020l29 -97l30 97l402 1020h245z" />
    <glyph glyph-name="W" unicode="W" horiz-adv-x="2035" 
d="M2001 1434l-447 -1434h-235l-279 918l-22 96l-21 -96l-278 -918h-238l-446 1434h244l303 -983l22 -105l21 105l290 983h205l293 -983l19 -105l22 105l305 983h242z" />
    <glyph glyph-name="X" unicode="X" horiz-adv-x="1415" 
d="M1348 1434l-484 -705l502 -729h-272l-387 557l-383 -557h-273l500 729l-481 705h272l365 -531l368 531h273z" />
    <glyph glyph-name="Y" unicode="Y" horiz-adv-x="1392" 
d="M813 0h-233v539l-555 895h268l350 -555l51 -97l54 97l352 555h268l-555 -895v-539z" />
    <glyph glyph-name="Z" unicode="Z" horiz-adv-x="1218" 
d="M1116 1434v-187l-739 -1032h766v-215h-1063v186l745 1033h-739v215h1030z" />
    <glyph glyph-name="bracketleft" unicode="[" horiz-adv-x="626" 
d="M575 1466v-198h-225v-1227h225v-199h-432v1624h432z" />
    <glyph glyph-name="backslash" unicode="\" horiz-adv-x="815" 
d="M225 1434l580 -1434h-215l-580 1434h215z" />
    <glyph glyph-name="bracketright" unicode="]" horiz-adv-x="626" 
d="M483 1466v-1624h-432v199h225v1227h-225v198h432z" />
    <glyph glyph-name="asciicircum" unicode="^" horiz-adv-x="1103" 
d="M551 1561l518 -615h-227l-291 346l-287 -346h-229z" />
    <glyph glyph-name="underscore" unicode="_" horiz-adv-x="1300" 
d="M1249 0v-195h-1198v195h1198z" />
    <glyph glyph-name="grave" unicode="`" horiz-adv-x="538" 
d="M295 1499l223 -323h-194l-304 323h275z" />
    <glyph glyph-name="a" unicode="a" horiz-adv-x="1032" 
d="M307 283q0 -53 37 -85t105 -32q125 0 188 100q49 70 49 164v37l-248 -53q-131 -29 -131 -131zM520 1059q178 0 282 -97t103 -280v-682h-192l-11 135q-92 -158 -305 -158q-139 0 -224 79t-85 216q0 248 303 306l295 53v47q0 186 -170 186q-80 0 -133 -44t-53 -120h-211
q7 156 115 258t286 101z" />
    <glyph glyph-name="b" unicode="b" horiz-adv-x="1247" 
d="M954 516q0 148 -84 242t-208 94t-212 -91t-88 -241v-10q0 -150 88 -239t212 -89q126 0 209 93t83 241zM367 1495v-588q45 66 130 109t197 43q213 0 348 -155q136 -155 136 -386t-136 -386t-355 -155q-220 0 -333 168l-16 -145h-188v1495h217z" />
    <glyph glyph-name="c" unicode="c" horiz-adv-x="1126" 
d="M580 1059q182 0 309 -95t160 -272h-213q-27 80 -94 123t-158 43q-125 0 -207 -96t-82 -244t83 -244t210 -96q90 0 158 45t90 119h215q-39 -176 -166 -270t-305 -95q-221 0 -366 151q-144 152 -144 388t144 390t366 153z" />
    <glyph glyph-name="d" unicode="d" horiz-adv-x="1247" 
d="M586 852q-123 0 -207 -93t-84 -242t82 -242t208 -93t213 89t87 239v10q0 150 -88 241t-211 91zM1100 1495v-1495h-191l-14 145q-117 -168 -336 -168t-354 155t-135 386t136 386t353 155t324 -152v588h217z" />
    <glyph glyph-name="e" unicode="e" horiz-adv-x="1138" 
d="M572 868q-116 0 -190 -72t-85 -184h534q-2 117 -72 187q-71 69 -187 69zM70 513q0 241 139 393t359 153q220 0 352 -137t131 -396v-84h-756q8 -124 87 -198t200 -74q190 0 247 147h213q-49 -163 -168 -251t-299 -89q-225 -1 -365 147t-140 389z" />
    <glyph glyph-name="f" unicode="f" horiz-adv-x="704" 
d="M547 1516q84 0 137 -23v-195q-59 23 -117 23q-141 0 -141 -156v-129h248v-198h-248v-838h-219v838h-176v198h176v135q0 165 88 255t252 90z" />
    <glyph glyph-name="g" unicode="g" horiz-adv-x="1048" 
d="M616 4h-178q-57 -4 -93 -38t-36 -104t65 -109q65 -40 181 -40q229 0 229 166q0 125 -168 125zM517 881q-87 1 -139 -53t-52 -138t53 -138t139 -54t138 54t52 138t-52 138t-139 53zM666 180q331 0 331 -304q-1 -152 -119 -246q-118 -93 -332 -93t-333 83t-119 237
q0 123 111 186q-131 76 -131 213t106 219q-68 94 -67 213q0 162 113 266q114 104 294 105q76 0 148 -23h383v-188h-166q35 -76 35 -160q0 -158 -111 -261t-289 -103q-113 0 -201 41q-33 -33 -33 -83q1 -102 120 -102h260z" />
    <glyph glyph-name="h" unicode="h" horiz-adv-x="1107" 
d="M756 629q0 217 -181 217q-89 0 -149 -77t-59 -218v-551h-217v1495h217v-580q80 143 257 143t264 -104q87 -106 87 -282v-672h-219v629z" />
    <glyph glyph-name="i" unicode="i" 
d="M263 1485q58 0 99 -41t41 -98q0 -56 -41 -96t-100 -40t-99 39t-40 97t41 99q41 40 99 40zM371 1036v-1036h-217v1036h217z" />
    <glyph glyph-name="j" unicode="j" 
d="M263 1485q58 0 99 -41t41 -98q0 -56 -41 -96t-100 -40t-99 39t-40 97t41 99q41 40 99 40zM371 1036v-1118q0 -381 -328 -381q-96 0 -152 19v196q51 -16 123 -16q140 0 140 188v1112h217z" />
    <glyph glyph-name="k" unicode="k" horiz-adv-x="1060" 
d="M375 1495v-915l348 456h262l-319 -432l372 -604h-247l-279 436l-137 -170v-266h-217v1495h217z" />
    <glyph glyph-name="l" unicode="l" 
d="M371 1495v-1495h-217v1495h217z" />
    <glyph glyph-name="m" unicode="m" horiz-adv-x="1705" 
d="M1241 1059q162 -1 247 -105t85 -282v-672h-217v629q0 217 -174 217q-92 0 -152 -77t-61 -218v-551h-217v629q0 217 -174 217q-94 0 -152 -77t-59 -218v-551h-217v1036h188l16 -139q39 72 111 117t170 45q223 0 299 -193q100 193 307 193z" />
    <glyph glyph-name="n" unicode="n" horiz-adv-x="1107" 
d="M756 629q0 217 -181 217q-89 0 -149 -77t-59 -218v-551h-217v1036h188l16 -139q39 72 112 117t173 45q162 1 249 -105t87 -282v-672h-219v629z" />
    <glyph glyph-name="o" unicode="o" horiz-adv-x="1206" 
d="M604 858q-137 0 -223 -96t-86 -244t86 -244t223 -96t222 96t85 244t-85 244t-222 96zM602 1059q233 0 384 -152q151 -151 151 -389t-151 -390t-384 -151q-233 0 -383 152q-149 151 -149 389t150 390t382 151z" />
    <glyph glyph-name="p" unicode="p" horiz-adv-x="1259" 
d="M674 854q-125 0 -213 -90t-88 -238v-12q2 -150 89 -241t210 -91t208 94t85 243t-83 242t-208 93zM700 1059q220 0 355 -155t135 -386t-136 -386t-347 -155q-115 0 -200 43t-128 109v-569h-219v1476h190l15 -147q115 170 335 170z" />
    <glyph glyph-name="q" unicode="q" horiz-adv-x="1259" 
d="M885 526q0 148 -88 238t-213 90t-207 -93t-82 -241t84 -244q84 -94 207 -94t211 91t88 241v12zM558 1059q218 0 337 -170l14 147h191v-1476h-217v569q-105 -152 -323 -152t-354 155t-136 386t135 386t353 155z" />
    <glyph glyph-name="r" unicode="r" horiz-adv-x="722" 
d="M672 1047v-220q-127 1 -211 -71t-86 -217v-539h-217v1036h190l19 -176q29 80 105 134t200 53z" />
    <glyph glyph-name="s" unicode="s" horiz-adv-x="921" 
d="M98 738q0 130 96 226t258 95q163 0 262 -90t103 -238h-217q-4 141 -145 141q-66 0 -102 -34t-36 -87q0 -54 39 -83t150 -54q184 -38 261 -110t77 -214t-106 -228q-106 -85 -281 -85q-175 1 -277 91t-106 245h219q2 -71 48 -111t125 -40t119 33t40 90t-42 90
q-41 33 -185 63t-222 100t-78 200z" />
    <glyph glyph-name="t" unicode="t" horiz-adv-x="743" 
d="M678 1036v-200h-254l-4 -492q0 -86 31 -123t105 -37t122 17v-193q-59 -23 -160 -22q-160 0 -238 74t-77 237l4 539h-182v200h182l2 254h219l-2 -254h252z" />
    <glyph glyph-name="u" unicode="u" horiz-adv-x="1101" 
d="M952 1036v-1036h-190l-14 139q-80 -162 -281 -162q-164 1 -248 105t-84 283v671h217v-628q0 -219 174 -220q92 0 151 74q58 74 58 207v567h217z" />
    <glyph glyph-name="v" unicode="v" horiz-adv-x="1040" 
d="M1016 1036l-385 -1036h-219l-385 1036h233l240 -694l20 -84l21 84l241 694h234z" />
    <glyph glyph-name="w" unicode="w" horiz-adv-x="1585" 
d="M1559 1036l-322 -1036h-223l-223 680l-228 -680h-215l-321 1036h233l189 -678l20 -102l23 102l206 678h189l207 -678l22 -102l21 102l188 678h234z" />
    <glyph glyph-name="x" unicode="x" horiz-adv-x="1067" 
d="M1008 1036l-326 -506l344 -530h-256l-238 362l-235 -362h-256l344 530l-326 506h254l219 -336l222 336h254z" />
    <glyph glyph-name="y" unicode="y" horiz-adv-x="1048" 
d="M1016 1036l-549 -1476h-227l166 454l-379 1022h233l240 -694l20 -84l21 84l241 694h234z" />
    <glyph glyph-name="z" unicode="z" horiz-adv-x="958" 
d="M874 1036v-166l-512 -677h541v-193h-831v164l512 680h-508v192h798z" />
    <glyph glyph-name="braceleft" unicode="{" horiz-adv-x="626" 
d="M575 1466v-198h-47q-133 0 -133 -148v-256q0 -166 -125 -211q125 -45 125 -209v-256q0 -147 133 -147h47v-199h-53q-162 0 -244 90t-83 250v230q0 147 -134 147h-30v191h30q133 0 134 147v229q0 160 83 250t244 90h53z" />
    <glyph glyph-name="bar" unicode="|" horiz-adv-x="466" 
d="M338 1487v-1624h-205v1624h205z" />
    <glyph glyph-name="braceright" unicode="}" horiz-adv-x="626" 
d="M104 1466q162 0 246 -90t84 -250v-229q0 -147 133 -147h29v-191h-29q-133 0 -133 -147v-230q0 -160 -84 -250t-246 -90h-53v199h47q133 0 133 147v256q0 164 125 209q-125 45 -125 211v256q0 147 -133 148h-47v198h53z" />
    <glyph glyph-name="asciitilde" unicode="~" horiz-adv-x="1165" 
d="M379 915q72 1 132 -29t94 -66q90 -95 186 -95q131 0 178 168l149 -70q-84 -291 -332 -291q-72 0 -132 30t-95 66q-92 95 -184 95q-129 0 -178 -168l-150 70q84 290 332 290z" />
    <glyph glyph-name="exclamdown" unicode="&#xa1;" 
d="M260 770q-61 0 -104 40t-43 101t43 103t104 41q62 0 104 -41q42 -40 42 -102t-42 -102t-104 -40zM152 -401v1011h217v-1011h-217z" />
    <glyph glyph-name="cent" unicode="&#xa2;" horiz-adv-x="1126" 
d="M668 1247v-194q150 -23 251 -115t130 -246h-213q-27 80 -94 123t-158 43q-125 0 -207 -96t-82 -244t83 -244t210 -96q90 0 158 45t90 119h215q-35 -154 -137 -246t-246 -112v-197h-168v197q-193 27 -312 172q-118 145 -118 359t118 362q119 147 312 176v194h168z" />
    <glyph glyph-name="sterling" unicode="&#xa3;" horiz-adv-x="1064" 
d="M719 768v-166h-250q6 -43 6 -92q0 -131 -72 -244l-28 -49h307q86 0 125 41t39 129h203q-3 -191 -101 -289t-276 -98h-621v70l86 118q115 152 115 328q0 33 -8 86h-209v166h158q-70 178 -70 276q0 186 117 302t302 114q185 0 296 -105t114 -304h-209q0 94 -53 151
q-53 58 -144 58q-92 0 -144 -58t-52 -153q0 -94 20 -145q20 -50 25 -72q6 -22 27 -64h297z" />
    <glyph glyph-name="currency" unicode="&#xa4;" horiz-adv-x="1312" 
d="M655 784q-99 0 -163 -72t-64 -176q0 -106 65 -176t163 -70t164 70q67 70 67 176t-67 176q-67 72 -165 72zM1073 534q0 -118 -63 -217l247 -245l-139 -140l-252 246q-102 -57 -212 -57t-208 57l-249 -246l-144 140l248 245q-59 95 -59 217t59 218l-248 245l144 142
l245 -246q102 61 208 61t218 -63l250 248l139 -142l-245 -245q61 -100 61 -218z" />
    <glyph glyph-name="yen" unicode="&#xa5;" horiz-adv-x="1359" 
d="M1063 678v-166h-264v-145h264v-166h-264v-201h-234v201h-270v166h270v145h-270v166h184l-469 756h269l350 -555l51 -97l53 97l352 555h269l-469 -756h178z" />
    <glyph glyph-name="brokenbar" unicode="&#xa6;" horiz-adv-x="466" 
d="M338 436v-573h-205v573h205zM338 1487v-574h-205v574h205z" />
    <glyph glyph-name="section" unicode="&#xa7;" horiz-adv-x="1052" 
d="M764 666q0 72 -56 110t-216 66q-23 2 -91 18q-106 -49 -106 -151q0 -74 59 -113t221 -66l74 -14q115 53 115 150zM535 1475q175 1 281 -89t110 -237h-221q-1 76 -49 117t-129 41t-123 -40q-42 -41 -42 -103t50 -100t174 -60q211 -35 304 -108t93 -213t-158 -237
q121 -76 121 -230t-115 -238q-115 -82 -297 -82t-295 89q-112 89 -116 236h221q0 -76 54 -117t144 -41t137 39q46 40 46 102t-59 101t-215 66q-377 68 -377 305q0 162 164 260q-98 72 -98 222t110 234q110 83 285 83z" />
    <glyph glyph-name="dieresis" unicode="&#xa8;" horiz-adv-x="698" 
d="M549 1432q53 0 91 -36t38 -89t-38 -89t-91 -36t-90 36t-37 89t37 89t90 36zM149 1432q54 0 91 -36q36 -36 36 -89t-36 -89t-91 -36q-54 0 -92 36q-37 36 -37 89t37 89q38 36 92 36z" />
    <glyph glyph-name="copyright" unicode="&#xa9;" horiz-adv-x="1222" 
d="M612 1407q-186 0 -301 -123t-115 -309t116 -309q114 -123 300 -123t300 123t114 310t-114 309t-300 122zM612 1534q246 0 398 -158t152 -402t-152 -401t-398 -157t-398 158t-153 401q1 243 153 401t398 158zM618 1272q215 0 267 -209h-160q-27 70 -99 70t-109 -44
q-38 -44 -38 -115t38 -115t101 -44q90 0 117 78h154q-47 -215 -271 -215q-130 0 -212 83t-82 213t82 214t212 84z" />
    <glyph glyph-name="ordfeminine" unicode="&#xaa;" horiz-adv-x="786" 
d="M256 932q0 -31 24 -49t64 -19q92 0 133 60q31 41 31 90v28l-166 -30q-86 -18 -86 -80zM394 1456q130 0 206 -66t76 -190v-465h-146l-8 82q-78 -96 -215 -96q-100 0 -160 53q-59 53 -59 146q0 174 221 210l199 37v29q0 111 -117 111q-53 0 -86 -26t-33 -73h-166
q6 112 82 180t206 68z" />
    <glyph glyph-name="guillemotleft" unicode="&#xab;" horiz-adv-x="964" 
d="M940 913l-270 -401l270 -399h-213l-258 383v34l258 383h213zM496 913l-271 -401l271 -399h-213l-258 383v34l258 383h213z" />
    <glyph glyph-name="logicalnot" unicode="&#xac;" horiz-adv-x="1220" 
d="M1147 901v-588h-156v428h-909v160h1065z" />
    <glyph glyph-name="registered" unicode="&#xae;" horiz-adv-x="1222" 
d="M610 1137h-59v-142h59q78 0 78 71t-78 71zM623 1260q98 0 156 -54q59 -54 59 -148q0 -95 -95 -147l119 -225h-172l-90 199h-49v-199h-150v574h222zM612 1407q-186 0 -301 -123t-115 -309t116 -309q114 -123 300 -123t300 123t114 310t-114 309t-300 122zM612 1534
q246 0 398 -158t152 -402t-152 -401t-398 -157t-398 158t-153 401q1 243 153 401t398 158z" />
    <glyph glyph-name="macron" unicode="&#xaf;" horiz-adv-x="593" 
d="M573 1382v-170h-553v170h553z" />
    <glyph glyph-name="degree" unicode="&#xb0;" horiz-adv-x="714" 
d="M356 1333q-70 0 -114 -45t-45 -117q0 -73 45 -117q44 -44 114 -44t116 45t46 117t-46 116q-46 45 -116 45zM45 1170q0 136 89 222t222 87q134 0 224 -85q90 -84 90 -222t-90 -223t-224 -85t-222 85q-89 85 -89 221z" />
    <glyph glyph-name="plusminus" unicode="&#xb1;" horiz-adv-x="966" 
d="M905 354v-194h-844v194h844zM582 1321v-326h323v-194h-323v-324h-197v324h-324v194h324v326h197z" />
    <glyph glyph-name="two.sups" unicode="&#xb2;" horiz-adv-x="661" 
d="M337 1653q123 1 191 -63t68 -176t-109 -228l-176 -191h287v-159h-522v122l262 285q86 96 86 162q0 90 -92 90q-45 0 -72 -28t-27 -81h-170q-2 119 74 193t200 74z" />
    <glyph glyph-name="three.sups" unicode="&#xb3;" horiz-adv-x="720" 
d="M354 1653q123 0 194 -67q70 -68 70 -178t-106 -155q135 -43 135 -184q0 -115 -78 -181t-210 -67q-133 0 -209 69t-76 191h168q2 -51 36 -77t86 -27q52 0 82 28t31 72q0 104 -147 105h-51v137h49q121 0 121 92q0 39 -25 63t-68 24q-42 0 -70 -26q-28 -24 -28 -73h-170
q0 119 72 187t194 67z" />
    <glyph glyph-name="acute" unicode="&#xb4;" horiz-adv-x="538" 
d="M518 1499l-303 -323h-195l224 323h274z" />
    <glyph glyph-name="mu" unicode="&#xb5;" horiz-adv-x="1114" 
d="M967 1036v-1036h-191l-14 139q-82 -162 -281 -162q-61 0 -114 17v-434h-217v1476h217v-628q0 -219 172 -220q92 0 151 74t60 207v567h217z" />
    <glyph glyph-name="paragraph" unicode="&#xb6;" horiz-adv-x="1243" 
d="M1202 1434v-148h-176v-1450h-147v1450h-224v-1450h-149v801h-37q-184 0 -301 111q-117 110 -117 286t117 288t301 112h733z" />
    <glyph glyph-name="periodcentered" unicode="&#xb7;" horiz-adv-x="432" 
d="M215 674q61 0 103 -41t42 -101t-42 -103q-42 -42 -103 -42t-102 42t-41 102q0 59 41 101t102 42z" />
    <glyph glyph-name="cedilla" unicode="&#xb8;" horiz-adv-x="448" 
d="M428 -289q0 -84 -61 -133t-169 -49t-178 70l72 102q43 -51 121 -51t78 66t-80 65q-31 0 -64 -8l-41 14l56 225h112l-28 -125q82 0 132 -46t50 -130z" />
    <glyph glyph-name="one.sups" unicode="&#xb9;" 
d="M414 1638v-802h-170v559h-181v129q199 0 226 114h125z" />
    <glyph glyph-name="ordmasculine" unicode="&#xba;" horiz-adv-x="901" 
d="M452 1303q-88 -1 -146 -61t-58 -153t56 -153t146 -62q90 0 147 62q56 62 56 154t-56 152t-145 61zM450 1456q165 0 271 -102t106 -266t-106 -265q-106 -102 -271 -102t-272 102q-106 102 -106 265t106 266q107 102 272 102z" />
    <glyph glyph-name="guillemotright" unicode="&#xbb;" horiz-adv-x="964" 
d="M682 913l258 -383v-34l-258 -383h-213l270 399l-270 401h213zM238 913l258 -383v-34l-258 -383h-213l270 399l-270 401h213z" />
    <glyph glyph-name="onequarter" unicode="&#xbc;" horiz-adv-x="1501" 
d="M1159 289v309l-22 -45l-164 -264h186zM1327 803v-514h109v-150h-109v-139h-170v139h-362v135l321 529h211zM414 1434v-803h-170v559h-181v129q199 0 226 115h125zM1229 1434l-819 -1434h-234l819 1434h234z" />
    <glyph glyph-name="onehalf" unicode="&#xbd;" horiz-adv-x="1503" 
d="M1179 817q123 0 191 -63t68 -175t-109 -229l-176 -190h287v-160h-522v123l262 285q86 96 86 161q0 90 -92 90q-45 1 -72 -27t-27 -81h-170q-2 119 74 193t200 73zM414 1434v-803h-170v559h-181v129q199 0 226 115h125zM1229 1434l-819 -1434h-234l819 1434h234z" />
    <glyph glyph-name="threequarters" unicode="&#xbe;" horiz-adv-x="1658" 
d="M354 1448q123 0 194 -67q70 -67 70 -177t-106 -155q135 -43 135 -185q0 -116 -78 -182t-210 -66q-133 0 -209 69t-76 192h168q2 -51 36 -78t86 -27t82 28t31 72q0 104 -147 105h-51v137h49q121 0 121 92q0 39 -25 63q-25 23 -68 23q-42 0 -70 -24t-28 -74h-170
q0 118 72 186t194 68zM1317 289v309l-23 -45l-164 -264h187zM1485 803v-514h108v-150h-108v-139h-170v139h-363v135l322 529h211zM1386 1434l-819 -1434h-233l819 1434h233z" />
    <glyph glyph-name="questiondown" unicode="&#xbf;" horiz-adv-x="876" 
d="M457 770q-61 0 -104 40q-42 40 -42 101t42 103q41 42 103 41q62 0 104 -41q42 -40 42 -102t-42 -102t-103 -40zM447 -432q-179 0 -300 104t-120 289q0 100 32 181q33 81 81 130q48 50 96 92q112 101 112 185v61h219v-69q0 -141 -116 -245q-49 -44 -99 -87
q-118 -103 -116 -242q0 -105 56 -163t154 -58t157 60q58 60 59 174h206q-2 -192 -122 -302t-299 -110z" />
    <glyph glyph-name="Agrave" unicode="&#xc0;" horiz-adv-x="1445" 
d="M651 1735l193 -234h-228l-280 234h315zM721 1147l-27 -78l-198 -512h454l-202 512zM846 1434l567 -1434h-252l-137 350h-604l-135 -350h-252l567 1434h246z" />
    <glyph glyph-name="Aacute" unicode="&#xc1;" horiz-adv-x="1445" 
d="M1090 1735l-279 -234h-229l194 234h314zM721 1147l-27 -78l-198 -512h454l-202 512zM846 1434l567 -1434h-252l-137 350h-604l-135 -350h-252l567 1434h246z" />
    <glyph glyph-name="Acircumflex" unicode="&#xc2;" horiz-adv-x="1445" 
d="M788 1743l304 -244h-252l-119 109l-117 -109h-250l303 244h131zM721 1147l-27 -78l-198 -512h454l-202 512zM846 1434l567 -1434h-252l-137 350h-604l-135 -350h-252l567 1434h246z" />
    <glyph glyph-name="Atilde" unicode="&#xc3;" horiz-adv-x="1445" 
d="M594 1772q74 0 120 -34t77 -68t67 -34q76 0 76 117h135q0 -123 -55 -195t-164 -73q-74 0 -120 34q-46 33 -77 67t-67 34q-76 0 -76 -117h-135q0 123 55 196t164 73zM721 1147l-27 -78l-198 -512h454l-202 512zM846 1434l567 -1434h-252l-137 350h-604l-135 -350h-252
l567 1434h246z" />
    <glyph glyph-name="Adieresis" unicode="&#xc4;" horiz-adv-x="1445" 
d="M920 1749q53 0 91 -37t38 -89t-38 -89t-91 -37t-91 36q-37 36 -36 89q0 53 36 90q38 37 91 37zM519 1749q54 0 91 -37t37 -89t-37 -89t-91 -37t-91 36t-37 89t37 90t91 37zM721 1147l-27 -78l-198 -512h454l-202 512zM846 1434l567 -1434h-252l-137 350h-604l-135 -350
h-252l567 1434h246z" />
    <glyph glyph-name="Aring" unicode="&#xc5;" horiz-adv-x="1445" 
d="M720 1763q-34 -1 -56 -23t-21 -55q0 -33 23 -57q24 -24 56 -22q32 0 54 24t23 56q-1 32 -23 54t-56 23zM720 1884q89 0 146 -57q58 -57 58 -143t-58 -143q-58 -56 -146 -56q-89 0 -148 57q-58 57 -58 142t58 143q59 57 148 57zM721 1147l-27 -78l-198 -512h454l-202 512z
M846 1434l567 -1434h-252l-137 350h-604l-135 -350h-252l567 1434h246z" />
    <glyph glyph-name="AE" unicode="&#xc6;" horiz-adv-x="1931" 
d="M1030 555v596l-43 -80l-336 -516h379zM1837 1434v-215h-575v-375h501v-213h-501v-416h575v-215h-807v354h-504l-235 -354h-273l930 1434h889z" />
    <glyph glyph-name="Ccedilla" unicode="&#xc7;" horiz-adv-x="1499" 
d="M791 1460q255 0 421 -125t226 -344h-254q-92 254 -393 254q-209 0 -340 -148q-131 -149 -131 -379t132 -380t343 -150q158 0 258 72t143 193h246q-59 -221 -212 -344t-392 -134l-19 -88q82 0 132 -46t50 -130t-61 -133t-169 -49t-177 70l72 102q42 -51 120 -51t78 66
t-80 65q-31 0 -63 -8l-41 14l45 190q-287 23 -467 229t-180 520t201 524t512 210z" />
    <glyph glyph-name="Egrave" unicode="&#xc8;" horiz-adv-x="1052" 
d="M506 1735l192 -234h-227l-281 234h316zM958 1434v-215h-575v-375h502v-213h-502v-416h575v-215h-804v1434h804z" />
    <glyph glyph-name="Eacute" unicode="&#xc9;" horiz-adv-x="1052" 
d="M942 1735l-278 -234h-230l195 234h313zM958 1434v-215h-575v-375h502v-213h-502v-416h575v-215h-804v1434h804z" />
    <glyph glyph-name="Ecircumflex" unicode="&#xca;" horiz-adv-x="1052" 
d="M635 1743l303 -244h-252l-119 109l-116 -109h-250l303 244h131zM958 1434v-215h-575v-375h502v-213h-502v-416h575v-215h-804v1434h804z" />
    <glyph glyph-name="Edieresis" unicode="&#xcb;" horiz-adv-x="1052" 
d="M768 1749q53 0 91 -37t38 -89t-38 -89t-91 -37t-90 36t-37 89t37 90t90 37zM368 1749q54 0 91 -37t37 -89t-37 -89t-91 -37t-92 36q-37 36 -36 89q0 53 36 90q38 37 92 37zM958 1434v-215h-575v-375h502v-213h-502v-416h575v-215h-804v1434h804z" />
    <glyph glyph-name="Igrave" unicode="&#xcc;" horiz-adv-x="536" 
d="M199 1735l192 -234h-227l-281 234h316zM383 1434v-1434h-229v1434h229z" />
    <glyph glyph-name="Iacute" unicode="&#xcd;" horiz-adv-x="536" 
d="M633 1735l-279 -234h-229l194 234h314zM383 1434v-1434h-229v1434h229z" />
    <glyph glyph-name="Icircumflex" unicode="&#xce;" horiz-adv-x="536" 
d="M336 1743l303 -244h-252l-119 109l-116 -109h-250l303 244h131zM383 1434v-1434h-229v1434h229z" />
    <glyph glyph-name="Idieresis" unicode="&#xcf;" horiz-adv-x="536" 
d="M469 1749q53 0 91 -37t38 -89t-38 -89t-91 -37t-90 36t-37 89t37 90t90 37zM69 1749q54 0 91 -37t37 -89t-37 -89t-91 -37t-92 36q-37 36 -36 89q0 53 36 90q38 37 92 37zM383 1434v-1434h-229v1434h229z" />
    <glyph glyph-name="Eth" unicode="&#xd0;" horiz-adv-x="1515" 
d="M696 1219h-295v-404h238v-168h-238v-432h295q233 0 366 132q132 132 132 370t-131 370t-367 132zM696 1434q334 0 534 -198t200 -520t-200 -520q-200 -196 -534 -196h-524v647h-166v168h166v619h524z" />
    <glyph glyph-name="Ntilde" unicode="&#xd1;" horiz-adv-x="1474" 
d="M608 1772q74 0 120 -34t77 -68t67 -34q76 0 76 117h135q0 -123 -55 -195t-164 -73q-74 0 -120 34q-46 33 -76 67t-68 34q-76 0 -76 -117h-135q0 123 55 196t164 73zM1323 1434v-1434h-227l-658 954l-55 90v-1044h-229v1434h225l653 -953l62 -96v1049h229z" />
    <glyph glyph-name="Ograve" unicode="&#xd2;" horiz-adv-x="1632" 
d="M745 1755l193 -233h-227l-281 233h315zM817 1245q-221 0 -359 -148q-138 -149 -138 -379t138 -380t359 -150t359 150q137 150 137 380t-137 379q-138 148 -359 148zM78 719q0 321 208 531t530 210q323 0 530 -210q206 -210 206 -532t-206 -533q-206 -212 -530 -212
q-322 0 -530 212t-208 534z" />
    <glyph glyph-name="Oacute" unicode="&#xd3;" horiz-adv-x="1632" 
d="M1184 1755l-279 -233h-229l194 233h314zM817 1245q-221 0 -359 -148q-138 -149 -138 -379t138 -380t359 -150t359 150q137 150 137 380t-137 379q-138 148 -359 148zM78 719q0 321 208 531t530 210q323 0 530 -210q206 -210 206 -532t-206 -533q-206 -212 -530 -212
q-322 0 -530 212t-208 534z" />
    <glyph glyph-name="Ocircumflex" unicode="&#xd4;" horiz-adv-x="1632" 
d="M883 1763l303 -243h-252l-119 108l-117 -108h-249l303 243h131zM817 1245q-221 0 -359 -148q-138 -149 -138 -379t138 -380t359 -150t359 150q137 150 137 380t-137 379q-138 148 -359 148zM78 719q0 321 208 531t530 210q323 0 530 -210q206 -210 206 -532t-206 -533
q-206 -212 -530 -212q-322 0 -530 212t-208 534z" />
    <glyph glyph-name="Otilde" unicode="&#xd5;" horiz-adv-x="1632" 
d="M688 1792q74 0 120 -34t77 -68t67 -33q76 0 76 117h135q0 -123 -55 -196t-164 -73q-74 0 -120 34t-76 68t-68 33q-76 0 -76 -116h-135q0 124 55 196t164 72zM817 1245q-221 0 -359 -148q-138 -149 -138 -379t138 -380t359 -150t359 150q137 150 137 380t-137 379
q-138 148 -359 148zM78 719q0 321 208 531t530 210q323 0 530 -210q206 -210 206 -532t-206 -533q-206 -212 -530 -212q-322 0 -530 212t-208 534z" />
    <glyph glyph-name="Odieresis" unicode="&#xd6;" horiz-adv-x="1632" 
d="M1014 1769q53 -1 91 -37t38 -88t-38 -90q-38 -36 -91 -36t-90 36t-37 88q0 53 37 90t90 37zM485 1642q0 53 37 90t91 37t92 -36q37 -37 37 -89t-38 -90q-36 -36 -90 -36t-92 36q-37 36 -37 88zM817 1245q-221 0 -359 -148q-138 -149 -138 -379t138 -380t359 -150t359 150
q137 150 137 380t-137 379q-138 148 -359 148zM78 719q0 321 208 531t530 210q323 0 530 -210q206 -210 206 -532t-206 -533q-206 -212 -530 -212q-322 0 -530 212t-208 534z" />
    <glyph glyph-name="multiply" unicode="&#xd7;" horiz-adv-x="874" 
d="M684 1102l137 -139l-246 -248l246 -246l-139 -137l-244 246l-248 -246l-139 137l248 248l-248 248l137 137l248 -246z" />
    <glyph glyph-name="Oslash" unicode="&#xd8;" horiz-adv-x="1632" 
d="M817 1245q-221 0 -359 -148t-138 -390t157 -390l514 897q-88 31 -174 31zM1313 728q0 240 -160 388l-514 -899q82 -29 178 -29q221 0 359 150q137 150 137 390zM817 1460q154 0 285 -53l98 172l170 -86l-102 -176q135 -100 210 -256t74 -342q0 -322 -206 -534t-529 -212
q-150 0 -289 54l-100 -177l-170 84l104 183q-133 100 -208 257q-76 157 -76 345q0 321 208 531t531 210z" />
    <glyph glyph-name="Ugrave" unicode="&#xd9;" horiz-adv-x="1413" 
d="M635 1735l192 -234h-227l-281 234h316zM1278 1434v-863q0 -287 -150 -443t-422 -155q-272 0 -421 156q-150 156 -150 442v863h230v-863q0 -383 341 -383t341 383v863h231z" />
    <glyph glyph-name="Uacute" unicode="&#xda;" horiz-adv-x="1413" 
d="M1073 1735l-278 -234h-230l195 234h313zM1278 1434v-863q0 -287 -150 -443t-422 -155q-272 0 -421 156q-150 156 -150 442v863h230v-863q0 -383 341 -383t341 383v863h231z" />
    <glyph glyph-name="Ucircumflex" unicode="&#xdb;" horiz-adv-x="1413" 
d="M772 1743l303 -244h-252l-118 109l-117 -109h-250l303 244h131zM1278 1434v-863q0 -287 -150 -443t-422 -155q-272 0 -421 156q-150 156 -150 442v863h230v-863q0 -383 341 -383t341 383v863h231z" />
    <glyph glyph-name="Udieresis" unicode="&#xdc;" horiz-adv-x="1413" 
d="M903 1749q53 0 91 -37t38 -89t-38 -89t-91 -37t-90 36t-37 89t37 90t90 37zM503 1749q54 0 91 -37t37 -89t-37 -89t-91 -37t-91 36t-37 89t37 90t91 37zM1278 1434v-863q0 -287 -150 -443t-422 -155q-272 0 -421 156q-150 156 -150 442v863h230v-863q0 -383 341 -383
t341 383v863h231z" />
    <glyph glyph-name="Yacute" unicode="&#xdd;" horiz-adv-x="1392" 
d="M1063 1735l-279 -234h-229l195 234h313zM813 0h-233v539l-555 895h268l350 -555l51 -97l54 97l352 555h268l-555 -895v-539z" />
    <glyph glyph-name="Thorn" unicode="&#xde;" horiz-adv-x="1177" 
d="M633 997h-250v-415h250q111 0 175 54t64 153t-64 153t-175 55zM383 1434v-220h250q217 0 345 -116t128 -308q0 -190 -128 -307t-345 -116h-250v-367h-229v1434h229z" />
    <glyph glyph-name="germandbls" unicode="&#xdf;" horiz-adv-x="1159" 
d="M580 1509v-206q-205 0 -205 -224v-43h672v-174l-267 -416q170 -25 271 -147q100 -123 100 -285q0 -217 -123 -341t-358 -124q-86 0 -174 17l6 219q90 -23 147 -23q127 0 199 64t72 183q0 120 -80 186t-213 65h-97v152l267 424h-422v-836h-230v1075q1 434 435 434z" />
    <glyph glyph-name="agrave" unicode="&#xe0;" horiz-adv-x="1032" 
d="M401 1499l224 -323h-195l-303 323h274zM307 283q0 -53 37 -85t105 -32q125 0 188 100q49 70 49 164v37l-248 -53q-131 -29 -131 -131zM520 1059q178 0 282 -97t103 -280v-682h-192l-11 135q-92 -158 -305 -158q-139 0 -224 79t-85 216q0 248 303 306l295 53v47
q0 186 -170 186q-80 0 -133 -44t-53 -120h-211q7 156 115 258t286 101z" />
    <glyph glyph-name="aacute" unicode="&#xe1;" horiz-adv-x="1032" 
d="M903 1499l-303 -323h-194l223 323h274zM307 283q0 -53 37 -85t105 -32q125 0 188 100q49 70 49 164v37l-248 -53q-131 -29 -131 -131zM520 1059q178 0 282 -97t103 -280v-682h-192l-11 135q-92 -158 -305 -158q-139 0 -224 79t-85 216q0 248 303 306l295 53v47
q0 186 -170 186q-80 0 -133 -44t-53 -120h-211q7 156 115 258t286 101z" />
    <glyph glyph-name="acircumflex" unicode="&#xe2;" horiz-adv-x="1032" 
d="M598 1499l281 -323h-230l-127 176l-129 -176h-229l282 323h152zM307 283q0 -53 37 -85t105 -32q125 0 188 100q49 70 49 164v37l-248 -53q-131 -29 -131 -131zM520 1059q178 0 282 -97t103 -280v-682h-192l-11 135q-92 -158 -305 -158q-139 0 -224 79t-85 216
q0 248 303 306l295 53v47q0 186 -170 186q-80 0 -133 -44t-53 -120h-211q7 156 115 258t286 101z" />
    <glyph glyph-name="atilde" unicode="&#xe3;" horiz-adv-x="1032" 
d="M399 1460q57 0 99 -22t62 -50q52 -73 104 -71q76 0 75 125h135q0 -125 -55 -201t-164 -76q-57 0 -99 23q-42 22 -61 50q-50 72 -104 73q-76 0 -76 -127h-135q0 128 55 202t164 74zM307 283q0 -53 37 -85t105 -32q125 0 188 100q49 70 49 164v37l-248 -53
q-131 -29 -131 -131zM520 1059q178 0 282 -97t103 -280v-682h-192l-11 135q-92 -158 -305 -158q-139 0 -224 79t-85 216q0 248 303 306l295 53v47q0 186 -170 186q-80 0 -133 -44t-53 -120h-211q7 156 115 258t286 101z" />
    <glyph glyph-name="adieresis" unicode="&#xe4;" horiz-adv-x="1032" 
d="M721 1432q53 0 91 -36t38 -89t-38 -89t-91 -36t-90 36t-37 89t37 89t90 36zM321 1432q54 0 91 -36t37 -89t-37 -89t-91 -36t-92 36q-37 36 -36 89q0 53 36 89q38 36 92 36zM307 283q0 -53 37 -85t105 -32q125 0 188 100q49 70 49 164v37l-248 -53q-131 -29 -131 -131z
M520 1059q178 0 282 -97t103 -280v-682h-192l-11 135q-92 -158 -305 -158q-139 0 -224 79t-85 216q0 248 303 306l295 53v47q0 186 -170 186q-80 0 -133 -44t-53 -120h-211q7 156 115 258t286 101z" />
    <glyph glyph-name="aring" unicode="&#xe5;" horiz-adv-x="1032" 
d="M623 1354q0 40 -28 68t-70 28q-41 0 -69 -28t-28 -68t28 -70q28 -29 70 -29t69 29q28 29 28 70zM525 1569q97 1 159 -61t64 -155q0 -93 -62 -155t-160 -61q-98 0 -160 61q-62 60 -62 154t62 156t159 61zM307 283q0 -53 37 -85t105 -32q125 0 188 100q49 70 49 164v37
l-248 -53q-131 -29 -131 -131zM520 1059q178 0 282 -97t103 -280v-682h-192l-11 135q-92 -158 -305 -158q-139 0 -224 79t-85 216q0 248 303 306l295 53v47q0 186 -170 186q-80 0 -133 -44t-53 -120h-211q7 156 115 258t286 101z" />
    <glyph glyph-name="ae" unicode="&#xe6;" horiz-adv-x="1755" 
d="M307 286q0 -56 38 -88t104 -32q125 0 186 92q51 70 51 154v55l-233 -51q-74 -14 -110 -44t-36 -86zM1189 868q-116 0 -191 -72t-85 -184h535q-2 116 -72 186t-187 70zM1191 1059q214 0 345 -137t131 -396v-84h-756q8 -124 87 -198t200 -74q190 0 248 147h213
q-49 -163 -168 -251t-299 -89q-270 0 -414 205q-131 -205 -370 -205q-147 0 -234 80q-86 80 -86 211q0 250 303 307l295 56v41q0 193 -174 192q-80 0 -131 -43t-51 -121h-211q6 158 112 258t281 101q221 0 324 -141q141 141 355 141z" />
    <glyph glyph-name="ccedilla" unicode="&#xe7;" horiz-adv-x="1126" 
d="M580 1059q182 0 309 -95t160 -272h-213q-27 80 -94 123t-158 43q-125 0 -207 -96t-82 -244t83 -244t210 -96q90 0 158 45t90 119h215q-37 -164 -149 -256t-273 -106l-21 -93q82 0 132 -46t50 -130t-60 -133q-62 -49 -170 -49t-177 70l72 102q43 -51 121 -51t77 66
q0 66 -80 65q-31 0 -63 -8l-41 14l47 195q-198 23 -322 169q-124 145 -124 373t144 382t366 153z" />
    <glyph glyph-name="egrave" unicode="&#xe8;" horiz-adv-x="1138" 
d="M446 1499l224 -323h-195l-303 323h274zM572 868q-116 0 -190 -72t-85 -184h534q-2 117 -72 187q-71 69 -187 69zM70 513q0 241 139 393t359 153q220 0 352 -137t131 -396v-84h-756q8 -124 87 -198t200 -74q190 0 247 147h213q-49 -163 -168 -251t-299 -89
q-225 -1 -365 147t-140 389z" />
    <glyph glyph-name="eacute" unicode="&#xe9;" horiz-adv-x="1138" 
d="M948 1499l-303 -323h-194l223 323h274zM572 868q-116 0 -190 -72t-85 -184h534q-2 117 -72 187q-71 69 -187 69zM70 513q0 241 139 393t359 153q220 0 352 -137t131 -396v-84h-756q8 -124 87 -198t200 -74q190 0 247 147h213q-49 -163 -168 -251t-299 -89
q-225 -1 -365 147t-140 389z" />
    <glyph glyph-name="ecircumflex" unicode="&#xea;" horiz-adv-x="1138" 
d="M572 868q-116 0 -190 -72t-85 -184h534q-2 117 -72 187q-71 69 -187 69zM641 1499l281 -323h-230l-127 176l-129 -176h-229l282 323h152zM70 513q0 241 139 393t359 153q220 0 352 -137t131 -396v-84h-756q8 -124 87 -198t200 -74q190 0 247 147h213q-49 -163 -168 -251
t-299 -89q-225 -1 -365 147t-140 389z" />
    <glyph glyph-name="edieresis" unicode="&#xeb;" horiz-adv-x="1138" 
d="M372 1432q54 0 91 -36t37 -89t-37 -89t-91 -36t-91 36t-37 89t37 89t91 36zM772 1432q53 0 91 -36t38 -89t-38 -89t-91 -36t-90 36t-37 89t37 89t90 36zM572 868q-116 0 -190 -72t-85 -184h534q-2 117 -72 187q-71 69 -187 69zM70 513q0 241 139 393t359 153
q220 0 352 -137t131 -396v-84h-756q8 -124 87 -198t200 -74q190 0 247 147h213q-49 -163 -168 -251t-299 -89q-225 -1 -365 147t-140 389z" />
    <glyph glyph-name="igrave" unicode="&#xec;" 
d="M371 1036v-1036h-217v1036h217zM143 1499l224 -323h-195l-303 323h274z" />
    <glyph glyph-name="iacute" unicode="&#xed;" 
d="M371 1036v-1036h-217v1036h217zM643 1499l-303 -323h-195l224 323h274z" />
    <glyph glyph-name="icircumflex" unicode="&#xee;" 
d="M340 1499l281 -323h-230l-127 176l-129 -176h-229l282 323h152zM371 1036v-1036h-217v1036h217z" />
    <glyph glyph-name="idieresis" unicode="&#xef;" 
d="M371 1036v-1036h-217v1036h217zM463 1432q53 0 91 -36t38 -89t-38 -89t-91 -36t-90 36t-37 89t37 89t90 36zM62 1432q54 0 92 -36t36 -89q0 -53 -36 -89t-92 -36q-54 0 -91 36t-37 89t37 89t91 36z" />
    <glyph glyph-name="eth" unicode="&#xf0;" horiz-adv-x="1155" 
d="M576 774q-124 0 -201 -84q-78 -84 -78 -215t78 -216t203 -85q126 0 204 85t78 210t-78 221l-6 8q-76 76 -200 76zM893 1292v-176h-172l231 -301q127 -164 127 -340q0 -219 -142 -358t-360 -139q-219 0 -359 138q-140 140 -140 357t138 355t351 143l-110 145h-316v176h181
l-156 203h266l154 -203h307z" />
    <glyph glyph-name="ntilde" unicode="&#xf1;" horiz-adv-x="1122" 
d="M449 1460q57 0 99 -22t61 -50q52 -73 104 -71q76 0 75 125h136q0 -125 -56 -201t-163 -76q-57 0 -99 23q-42 22 -62 50q-50 72 -104 73q-76 0 -75 -127h-136q-1 128 55 202t165 74zM756 629q0 217 -181 217q-89 0 -149 -77t-59 -218v-551h-217v1036h188l16 -139
q39 72 112 117t173 45q162 1 249 -105t87 -282v-672h-219v629z" />
    <glyph glyph-name="ograve" unicode="&#xf2;" horiz-adv-x="1206" 
d="M483 1499l224 -323h-195l-303 323h274zM604 858q-137 0 -223 -96t-86 -244t86 -244t223 -96t222 96t85 244t-85 244t-222 96zM602 1059q233 0 384 -152q151 -151 151 -389t-151 -390t-384 -151q-233 0 -383 152q-149 151 -149 389t150 390t382 151z" />
    <glyph glyph-name="oacute" unicode="&#xf3;" horiz-adv-x="1206" 
d="M985 1499l-303 -323h-195l224 323h274zM604 858q-137 0 -223 -96t-86 -244t86 -244t223 -96t222 96t85 244t-85 244t-222 96zM602 1059q233 0 384 -152q151 -151 151 -389t-151 -390t-384 -151q-233 0 -383 152q-149 151 -149 389t150 390t382 151z" />
    <glyph glyph-name="ocircumflex" unicode="&#xf4;" horiz-adv-x="1206" 
d="M678 1499l280 -323h-229l-127 176l-129 -176h-229l282 323h152zM604 858q-137 0 -223 -96t-86 -244t86 -244t223 -96t222 96t85 244t-85 244t-222 96zM602 1059q233 0 384 -152q151 -151 151 -389t-151 -390t-384 -151q-233 0 -383 152q-149 151 -149 389t150 390
t382 151z" />
    <glyph glyph-name="otilde" unicode="&#xf5;" horiz-adv-x="1206" 
d="M475 1460q57 0 99 -22t62 -49q52 -74 103 -72q76 0 76 125h135q0 -125 -55 -201t-164 -76q-57 0 -99 23t-62 50q-50 73 -103 73q-76 0 -76 -127h-135q0 128 55 202t164 74zM604 858q-137 0 -223 -96t-86 -244t86 -244t223 -96t222 96t85 244t-85 244t-222 96zM602 1059
q233 0 384 -152q151 -151 151 -389t-151 -390t-384 -151q-233 0 -383 152q-149 151 -149 389t150 390t382 151z" />
    <glyph glyph-name="odieresis" unicode="&#xf6;" horiz-adv-x="1206" 
d="M801 1432q53 0 91 -36t38 -89t-38 -89t-91 -36t-90 36t-37 89t37 89t90 36zM400 1432q54 0 92 -36t36 -89q0 -53 -36 -89t-92 -36q-54 0 -91 36t-37 89t37 89t91 36zM604 858q-137 0 -223 -96t-86 -244t86 -244t223 -96t222 96t85 244t-85 244t-222 96zM602 1059
q233 0 384 -152q151 -151 151 -389t-151 -390t-384 -151q-233 0 -383 152q-149 151 -149 389t150 390t382 151z" />
    <glyph glyph-name="divide" unicode="&#xf7;" horiz-adv-x="966" 
d="M905 813v-195h-844v195h844zM469 471q59 0 100 -39t41 -97t-41 -98t-100 -40t-99 40t-40 97t40 97t99 40zM469 1235q59 0 100 -39t41 -97q0 -57 -41 -97t-100 -40t-99 40q-40 38 -40 96t40 97q40 40 99 40z" />
    <glyph glyph-name="oslash" unicode="&#xf8;" horiz-adv-x="1206" 
d="M911 524q0 152 -96 248l-309 -579q43 -14 98 -15q137 0 222 96q85 98 85 250zM604 858q-137 0 -223 -96t-86 -250t98 -252l312 582q-50 16 -101 16zM602 1059q106 0 201 -35l86 162l119 -56l-90 -167q219 -154 219 -445q0 -238 -151 -390t-384 -151q-100 0 -194 33
l-86 -162l-119 54l88 166q-105 72 -163 188t-58 262q0 238 150 390t382 151z" />
    <glyph glyph-name="ugrave" unicode="&#xf9;" horiz-adv-x="1101" 
d="M430 1499l223 -323h-194l-303 323h274zM952 1036v-1036h-190l-14 139q-80 -162 -281 -162q-164 1 -248 105t-84 283v671h217v-628q0 -219 174 -220q92 0 151 74q58 74 58 207v567h217z" />
    <glyph glyph-name="uacute" unicode="&#xfa;" horiz-adv-x="1101" 
d="M930 1499l-303 -323h-195l223 323h275zM952 1036v-1036h-190l-14 139q-80 -162 -281 -162q-164 1 -248 105t-84 283v671h217v-628q0 -219 174 -220q92 0 151 74q58 74 58 207v567h217z" />
    <glyph glyph-name="ucircumflex" unicode="&#xfb;" horiz-adv-x="1101" 
d="M621 1499l280 -323h-229l-127 176l-129 -176h-230l283 323h152zM952 1036v-1036h-190l-14 139q-80 -162 -281 -162q-164 1 -248 105t-84 283v671h217v-628q0 -219 174 -220q92 0 151 74q58 74 58 207v567h217z" />
    <glyph glyph-name="udieresis" unicode="&#xfc;" horiz-adv-x="1101" 
d="M743 1432q53 0 91 -36t38 -89t-38 -89t-90 -36q-54 0 -91 36t-37 89t37 89t90 36zM343 1432q54 0 91 -36t37 -89t-37 -89t-91 -36t-91 36t-37 89t37 89t91 36zM952 1036v-1036h-190l-14 139q-80 -162 -281 -162q-164 1 -248 105t-84 283v671h217v-628q0 -219 174 -220
q92 0 151 74q58 74 58 207v567h217z" />
    <glyph glyph-name="yacute" unicode="&#xfd;" horiz-adv-x="1048" 
d="M901 1499l-303 -323h-195l224 323h274zM1016 1036l-549 -1476h-227l166 454l-379 1022h233l240 -694l20 -84l21 84l241 694h234z" />
    <glyph glyph-name="thorn" unicode="&#xfe;" horiz-adv-x="1261" 
d="M965 516q0 148 -83 242t-208 94t-212 -81t-89 -226v-47q0 -148 87 -232t212 -84t209 93t84 241zM379 1495v-588q111 152 326 152t350 -155t135 -386t-136 -386t-353 -155t-322 152v-569h-219v1935h219z" />
    <glyph glyph-name="ydieresis" unicode="&#xff;" horiz-adv-x="1048" 
d="M719 1432q53 0 91 -36t38 -89t-38 -89t-91 -36t-90 36t-37 89t37 89t90 36zM318 1432q54 0 92 -36t36 -89q0 -53 -36 -89t-92 -36q-54 0 -91 36t-37 89t37 89t91 36zM1016 1036l-549 -1476h-227l166 454l-379 1022h233l240 -694l20 -84l21 84l241 694h234z" />
    <glyph glyph-name="Amacron" unicode="&#x100;" horiz-adv-x="1445" 
d="M997 1683v-170h-553v170h553zM721 1147l-27 -78l-198 -512h454l-202 512zM846 1434l567 -1434h-252l-137 350h-604l-135 -350h-252l567 1434h246z" />
    <glyph glyph-name="amacron" unicode="&#x101;" horiz-adv-x="1032" 
d="M807 1382v-170h-553v170h553zM307 283q0 -53 37 -85t105 -32q125 0 188 100q49 70 49 164v37l-248 -53q-131 -29 -131 -131zM520 1059q178 0 282 -97t103 -280v-682h-192l-11 135q-92 -158 -305 -158q-139 0 -224 79t-85 216q0 248 303 306l295 53v47q0 186 -170 186
q-80 0 -133 -44t-53 -120h-211q7 156 115 258t286 101z" />
    <glyph glyph-name="Abreve" unicode="&#x102;" horiz-adv-x="1445" 
d="M1032 1759q0 -119 -87 -193t-224 -73q-137 0 -223 74t-86 192h178q0 -53 35 -86t96 -33t96 33t35 86h180zM721 1147l-27 -78l-198 -512h454l-202 512zM846 1434l567 -1434h-252l-137 350h-604l-135 -350h-252l567 1434h246z" />
    <glyph glyph-name="abreve" unicode="&#x103;" horiz-adv-x="1032" 
d="M836 1456q0 -131 -87 -214t-225 -83t-223 83q-86 83 -86 214h178q0 -66 36 -108t95 -43q59 0 96 43q36 43 35 108h181zM307 283q0 -53 37 -85t105 -32q125 0 188 100q49 70 49 164v37l-248 -53q-131 -29 -131 -131zM520 1059q178 0 282 -97t103 -280v-682h-192l-11 135
q-92 -158 -305 -158q-139 0 -224 79t-85 216q0 248 303 306l295 53v47q0 186 -170 186q-80 0 -133 -44t-53 -120h-211q7 156 115 258t286 101z" />
    <glyph glyph-name="Aogonek" unicode="&#x104;" horiz-adv-x="1445" 
d="M721 1147l-27 -78l-198 -512h454l-202 512zM1315 -285q51 0 84 17l31 -119q-43 -25 -136 -25t-162 62t-69 174q0 113 94 186l-133 340h-604l-135 -350h-252l567 1434h246l567 -1434h-67q-137 -59 -138 -176q0 -51 28 -80t79 -29z" />
    <glyph glyph-name="aogonek" unicode="&#x105;" horiz-adv-x="1032" 
d="M307 283q0 -53 37 -85t105 -32q125 0 188 100q49 70 49 164v37l-248 -53q-131 -29 -131 -131zM520 1059q178 0 282 -97t103 -280v-682h-18q-137 -59 -137 -176q0 -51 28 -80t78 -29q51 0 84 17l31 -119q-43 -25 -136 -25t-162 62t-69 178q0 117 107 192l-9 115
q-92 -158 -305 -158q-139 0 -224 79t-85 216q0 248 303 306l295 53v47q0 186 -170 186q-80 0 -133 -44t-53 -120h-211q7 156 115 258t286 101z" />
    <glyph glyph-name="Cacute" unicode="&#x106;" horiz-adv-x="1499" 
d="M1157 1755l-278 -233h-230l195 233h313zM791 1460q255 0 421 -125t226 -344h-254q-92 254 -393 254q-209 0 -340 -148q-131 -149 -131 -379t132 -380t343 -150q158 0 258 72t143 193h246q-61 -229 -225 -355t-422 -125q-313 0 -515 211t-202 533q0 323 201 533t512 210z
" />
    <glyph glyph-name="cacute" unicode="&#x107;" horiz-adv-x="1126" 
d="M961 1499l-304 -323h-194l223 323h275zM580 1059q182 0 309 -95t160 -272h-213q-27 80 -94 123t-158 43q-125 0 -207 -96t-82 -244t83 -244t210 -96q90 0 158 45t90 119h215q-39 -176 -166 -270t-305 -95q-221 0 -366 151q-144 152 -144 388t144 390t366 153z" />
    <glyph glyph-name="Ccircumflex" unicode="&#x108;" horiz-adv-x="1499" 
d="M856 1763l303 -243h-252l-119 108l-116 -108h-250l303 243h131zM791 1460q255 0 421 -125t226 -344h-254q-92 254 -393 254q-209 0 -340 -148q-131 -149 -131 -379t132 -380t343 -150q158 0 258 72t143 193h246q-61 -229 -225 -355t-422 -125q-313 0 -515 211t-202 533
q0 323 201 533t512 210z" />
    <glyph glyph-name="ccircumflex" unicode="&#x109;" horiz-adv-x="1126" 
d="M653 1499l281 -323h-229l-127 176l-129 -176h-230l283 323h151zM580 1059q182 0 309 -95t160 -272h-213q-27 80 -94 123t-158 43q-125 0 -207 -96t-82 -244t83 -244t210 -96q90 0 158 45t90 119h215q-39 -176 -166 -270t-305 -95q-221 0 -366 151q-144 152 -144 388
t144 390t366 153z" />
    <glyph glyph-name="Cdotaccent" unicode="&#x10a;" horiz-adv-x="1499" 
d="M789 1776q55 0 94 -37t39 -91t-39 -92t-94 -38t-94 37q-38 39 -38 93t38 91q39 37 94 37zM791 1460q255 0 421 -125t226 -344h-254q-92 254 -393 254q-209 0 -340 -148q-131 -149 -131 -379t132 -380t343 -150q158 0 258 72t143 193h246q-61 -229 -225 -355t-422 -125
q-313 0 -515 211t-202 533q0 323 201 533t512 210z" />
    <glyph glyph-name="cdotaccent" unicode="&#x10b;" horiz-adv-x="1126" 
d="M578 1460q59 0 100 -40t41 -97t-41 -97t-100 -40t-100 40q-40 40 -40 97t40 97q41 40 100 40zM580 1059q182 0 309 -95t160 -272h-213q-27 80 -94 123t-158 43q-125 0 -207 -96t-82 -244t83 -244t210 -96q90 0 158 45t90 119h215q-39 -176 -166 -270t-305 -95
q-221 0 -366 151q-144 152 -144 388t144 390t366 153z" />
    <glyph glyph-name="Ccaron" unicode="&#x10c;" horiz-adv-x="1499" 
d="M1159 1757l-303 -244h-131l-303 244h250l116 -108l119 108h252zM791 1460q255 0 421 -125t226 -344h-254q-92 254 -393 254q-209 0 -340 -148q-131 -149 -131 -379t132 -380t343 -150q158 0 258 72t143 193h246q-61 -229 -225 -355t-422 -125q-313 0 -515 211t-202 533
q0 323 201 533t512 210z" />
    <glyph glyph-name="ccaron" unicode="&#x10d;" horiz-adv-x="1126" 
d="M934 1477l-281 -324h-151l-283 324h230l129 -177l127 177h229zM580 1059q182 0 309 -95t160 -272h-213q-27 80 -94 123t-158 43q-125 0 -207 -96t-82 -244t83 -244t210 -96q90 0 158 45t90 119h215q-39 -176 -166 -270t-305 -95q-221 0 -366 151q-144 152 -144 388
t144 390t366 153z" />
    <glyph glyph-name="Dcaron" unicode="&#x10e;" horiz-adv-x="1497" 
d="M1049 1737l-304 -244h-131l-303 244h250l117 -109l119 109h252zM678 1219h-295v-1004h295q233 0 365 132t133 370q0 238 -131 370t-367 132zM678 1434q334 0 534 -198t199 -520q0 -322 -200 -520q-200 -196 -533 -196h-524v1434h524z" />
    <glyph glyph-name="dcaron" unicode="&#x10f;" horiz-adv-x="1540" 
d="M1377 1495q57 0 99 -42t42 -110q0 -195 -160 -376l-66 24q53 104 68 232q-53 6 -88 43t-35 92t41 96t99 41zM586 852q-123 0 -207 -93t-84 -242t82 -242t208 -93t213 89t87 239v10q0 150 -88 241t-211 91zM1100 1495v-1495h-191l-14 145q-117 -168 -336 -168t-354 155
t-135 386t136 386t353 155t324 -152v588h217z" />
    <glyph glyph-name="Dcroat" unicode="&#x110;" horiz-adv-x="1515" 
d="M696 1219h-295v-404h238v-168h-238v-432h295q233 0 366 132q132 132 132 370t-131 370t-367 132zM696 1434q334 0 534 -198t200 -520t-200 -520q-200 -196 -534 -196h-524v647h-166v168h166v619h524z" />
    <glyph glyph-name="dcroat" unicode="&#x111;" horiz-adv-x="1257" 
d="M586 852q-123 0 -207 -93t-84 -242t82 -242t208 -93t213 89t87 239v10q0 150 -88 241t-211 91zM1100 1495v-111h147v-163h-147v-1221h-191l-14 145q-117 -168 -336 -168t-354 155t-135 386t136 386t353 155t324 -152v314h-199v163h199v111h217z" />
    <glyph glyph-name="Emacron" unicode="&#x112;" horiz-adv-x="1052" 
d="M844 1683v-170h-553v170h553zM958 1434v-215h-575v-375h502v-213h-502v-416h575v-215h-804v1434h804z" />
    <glyph glyph-name="emacron" unicode="&#x113;" horiz-adv-x="1138" 
d="M842 1382v-170h-553v170h553zM572 868q-116 0 -190 -72t-85 -184h534q-2 117 -72 187q-71 69 -187 69zM70 513q0 241 139 393t359 153q220 0 352 -137t131 -396v-84h-756q8 -124 87 -198t200 -74q190 0 247 147h213q-49 -163 -168 -251t-299 -89q-225 -1 -365 147
t-140 389z" />
    <glyph glyph-name="Ebreve" unicode="&#x114;" horiz-adv-x="1052" 
d="M883 1759q0 -119 -87 -193q-86 -74 -224 -73q-138 0 -224 74t-86 192h178q0 -53 35 -86t96 -33t97 33q35 33 34 86h181zM958 1434v-215h-575v-375h502v-213h-502v-416h575v-215h-804v1434h804z" />
    <glyph glyph-name="ebreve" unicode="&#x115;" horiz-adv-x="1138" 
d="M572 868q-116 0 -190 -72t-85 -184h534q-2 117 -72 187q-71 69 -187 69zM877 1456q0 -131 -87 -214q-86 -83 -224 -83t-224 83t-86 214h178q0 -66 36 -108t95 -43q59 0 95 43t36 108h181zM70 513q0 241 139 393t359 153q220 0 352 -137t131 -396v-84h-756q8 -124 87 -198
t200 -74q190 0 247 147h213q-49 -163 -168 -251t-299 -89q-225 -1 -365 147t-140 389z" />
    <glyph glyph-name="Edotaccent" unicode="&#x116;" horiz-adv-x="1052" 
d="M573 1755q55 0 95 -37t39 -91q0 -54 -39 -92q-38 -38 -94 -38t-94 38t-38 92t38 91t93 37zM958 1434v-215h-575v-375h502v-213h-502v-416h575v-215h-804v1434h804z" />
    <glyph glyph-name="edotaccent" unicode="&#x117;" horiz-adv-x="1138" 
d="M565 1460q59 0 101 -40t41 -97q0 -57 -41 -97q-40 -40 -100 -40t-100 40t-40 97t40 97t99 40zM572 868q-116 0 -190 -72t-85 -184h534q-2 117 -72 187q-71 69 -187 69zM70 513q0 241 139 393t359 153q220 0 352 -137t131 -396v-84h-756q8 -124 87 -198t200 -74
q190 0 247 147h213q-49 -163 -168 -251t-299 -89q-225 -1 -365 147t-140 389z" />
    <glyph glyph-name="Eogonek" unicode="&#x118;" horiz-adv-x="1052" 
d="M958 1434v-215h-575v-375h502v-213h-502v-416h575v-215h-47q-137 -59 -137 -176q0 -51 28 -80t79 -29t84 17l30 -119q-43 -25 -136 -25t-162 62t-69 170q0 109 83 180h-557v1434h804z" />
    <glyph glyph-name="eogonek" unicode="&#x119;" horiz-adv-x="1138" 
d="M572 868q-116 0 -190 -72t-85 -184h534q-2 117 -72 187q-71 69 -187 69zM70 513q0 241 139 393t359 153q220 0 352 -137t131 -396v-84h-756q8 -124 87 -198t200 -74q190 0 247 147h213q-54 -176 -186 -264q-29 -20 -57 -30q-72 -49 -72 -142q0 -51 28 -80t79 -29t84 17
l30 -119q-43 -24 -136 -24t-162 61t-68 168q0 61 20 105l-27 -3q-225 -1 -365 147t-140 389z" />
    <glyph glyph-name="Ecaron" unicode="&#x11a;" horiz-adv-x="1052" 
d="M938 1737l-303 -244h-131l-303 244h250l116 -109l119 109h252zM958 1434v-215h-575v-375h502v-213h-502v-416h575v-215h-804v1434h804z" />
    <glyph glyph-name="ecaron" unicode="&#x11b;" horiz-adv-x="1138" 
d="M572 868q-116 0 -190 -72t-85 -184h534q-2 117 -72 187q-71 69 -187 69zM922 1477l-281 -324h-152l-282 324h229l129 -177l127 177h230zM70 513q0 241 139 393t359 153q220 0 352 -137t131 -396v-84h-756q8 -124 87 -198t200 -74q190 0 247 147h213q-49 -163 -168 -251
t-299 -89q-225 -1 -365 147t-140 389z" />
    <glyph glyph-name="Gcircumflex" unicode="&#x11c;" horiz-adv-x="1552" 
d="M856 1763l303 -243h-252l-119 108l-116 -108h-250l303 243h131zM791 1460q255 0 421 -125t226 -344h-254q-92 254 -396 254q-208 0 -338 -148q-130 -149 -130 -379t132 -380t330 -150t308 90q111 90 118 261h-389v215h633v-111q0 -313 -177 -491t-485 -178t-510 210
q-202 211 -202 533q0 323 201 533t512 210z" />
    <glyph glyph-name="gcircumflex" unicode="&#x11d;" horiz-adv-x="1048" 
d="M616 4h-178q-57 -4 -93 -38t-36 -104t65 -109q65 -40 181 -40q229 0 229 166q0 125 -168 125zM606 1499l281 -323h-230l-127 176l-129 -176h-229l283 323h151zM517 881q-87 1 -139 -53t-52 -138t53 -138t139 -54t138 54t52 138t-52 138t-139 53zM666 180q331 0 331 -304
q-1 -152 -119 -246q-118 -93 -332 -93t-333 83t-119 237q0 123 111 186q-131 76 -131 213t106 219q-68 94 -67 213q0 162 113 266q114 104 294 105q76 0 148 -23h383v-188h-166q35 -76 35 -160q0 -158 -111 -261t-289 -103q-113 0 -201 41q-33 -33 -33 -83q1 -102 120 -102
h260z" />
    <glyph glyph-name="Gbreve" unicode="&#x11e;" horiz-adv-x="1552" 
d="M1102 1780q0 -119 -87 -193t-224 -74t-224 74q-86 74 -86 193h178q0 -53 35 -86q34 -33 96 -33t97 33t35 86h180zM791 1460q255 0 421 -125t226 -344h-254q-92 254 -396 254q-208 0 -338 -148q-130 -149 -130 -379t132 -380t330 -150t308 90q111 90 118 261h-389v215h633
v-111q0 -313 -177 -491t-485 -178t-510 210q-202 211 -202 533q0 323 201 533t512 210z" />
    <glyph glyph-name="gbreve" unicode="&#x11f;" horiz-adv-x="1048" 
d="M842 1456q0 -131 -87 -214t-225 -83t-223 83q-86 83 -86 214h178q0 -66 36 -108t95 -43q59 0 96 43q36 43 36 108h180zM616 4h-178q-57 -4 -93 -38t-36 -104t65 -109q65 -40 181 -40q229 0 229 166q0 125 -168 125zM517 881q-87 1 -139 -53t-52 -138t53 -138t139 -54
t138 54t52 138t-52 138t-139 53zM666 180q331 0 331 -304q-1 -152 -119 -246q-118 -93 -332 -93t-333 83t-119 237q0 123 111 186q-131 76 -131 213t106 219q-68 94 -67 213q0 162 113 266q114 104 294 105q76 0 148 -23h383v-188h-166q35 -76 35 -160q0 -158 -111 -261
t-289 -103q-113 0 -201 41q-33 -33 -33 -83q1 -102 120 -102h260z" />
    <glyph glyph-name="Gdotaccent" unicode="&#x120;" horiz-adv-x="1552" 
d="M789 1776q55 0 94 -37t39 -91t-39 -92t-94 -38t-94 37q-38 39 -38 93t38 91q39 37 94 37zM791 1460q255 0 421 -125t226 -344h-254q-92 254 -396 254q-208 0 -338 -148q-130 -149 -130 -379t132 -380t330 -150t308 90q111 90 118 261h-389v215h633v-111q0 -313 -177 -491
t-485 -178t-510 210q-202 211 -202 533q0 323 201 533t512 210z" />
    <glyph glyph-name="gdotaccent" unicode="&#x121;" horiz-adv-x="1048" 
d="M530 1460q58 0 100 -40t42 -97t-41 -97t-101 -40t-99 40q-40 40 -40 97t40 97t99 40zM616 4h-178q-57 -4 -93 -38t-36 -104t65 -109q65 -40 181 -40q229 0 229 166q0 125 -168 125zM517 881q-87 1 -139 -53t-52 -138t53 -138t139 -54t138 54t52 138t-52 138t-139 53z
M666 180q331 0 331 -304q-1 -152 -119 -246q-118 -93 -332 -93t-333 83t-119 237q0 123 111 186q-131 76 -131 213t106 219q-68 94 -67 213q0 162 113 266q114 104 294 105q76 0 148 -23h383v-188h-166q35 -76 35 -160q0 -158 -111 -261t-289 -103q-113 0 -201 41
q-33 -33 -33 -83q1 -102 120 -102h260z" />
    <glyph glyph-name="Gcommaaccent" unicode="&#x122;" horiz-adv-x="1552" 
d="M800 -92q58 0 98 -42t40 -120t-44 -172t-114 -164l-61 31q53 94 61 194q-53 6 -87 43q-34 38 -34 94t41 96q42 40 100 40zM791 1460q255 0 421 -125t226 -344h-254q-92 254 -396 254q-208 0 -338 -148q-130 -149 -130 -379t132 -380t330 -150t308 90q111 90 118 261h-389
v215h633v-111q0 -313 -177 -491t-485 -178t-510 210q-202 211 -202 533q0 323 201 533t512 210z" />
    <glyph glyph-name="gcommaaccent" unicode="&#x123;" horiz-adv-x="1048" 
d="M670 1294q0 -55 -41 -95t-101 -40t-99 41q-40 41 -40 111q0 191 158 375l67 -25q-55 -109 -67 -231q53 -6 88 -44t35 -92zM616 4h-178q-57 -4 -93 -38t-36 -104t65 -109q65 -40 181 -40q229 0 229 166q0 125 -168 125zM517 881q-87 1 -139 -53t-52 -138t53 -138t139 -54
t138 54t52 138t-52 138t-139 53zM666 180q331 0 331 -304q-1 -152 -119 -246q-118 -93 -332 -93t-333 83t-119 237q0 123 111 186q-131 76 -131 213t106 219q-68 94 -67 213q0 162 113 266q114 104 294 105q76 0 148 -23h383v-188h-166q35 -76 35 -160q0 -158 -111 -261
t-289 -103q-113 0 -201 41q-33 -33 -33 -83q1 -102 120 -102h260z" />
    <glyph glyph-name="Hcircumflex" unicode="&#x124;" horiz-adv-x="1458" 
d="M793 1743l303 -244h-252l-119 109l-117 -109h-250l304 244h131zM1305 1434v-1434h-230v633h-692v-633h-229v1434h229v-584h692v584h230z" />
    <glyph glyph-name="hcircumflex" unicode="&#x125;" horiz-adv-x="1107" 
d="M332 1792l303 -244h-252l-119 109l-117 -109h-249l303 244h131zM756 629q0 217 -181 217q-89 0 -149 -77t-59 -218v-551h-217v1495h217v-580q80 143 257 143t264 -104q87 -106 87 -282v-672h-219v629z" />
    <glyph glyph-name="Hbar" unicode="&#x126;" horiz-adv-x="1490" 
d="M397 850h693v225h-693v-225zM1319 1434v-193h156v-166h-156v-1075h-229v633h-693v-633h-229v1075h-152v166h152v193h229v-193h693v193h229z" />
    <glyph glyph-name="hbar" unicode="&#x127;" horiz-adv-x="1118" 
d="M766 629q0 217 -181 217q-89 0 -149 -77t-59 -218v-551h-217v1221h-150v163h150v111h217v-111h196v-163h-196v-306q80 143 257 143t264 -104q87 -106 87 -282v-672h-219v629z" />
    <glyph glyph-name="Itilde" unicode="&#x128;" horiz-adv-x="536" 
d="M143 1772q74 0 120 -34t77 -68t68 -34q76 0 75 117h135q0 -123 -55 -195t-164 -73q-73 0 -119 34q-46 33 -77 67t-68 34q-76 0 -76 -117h-135q0 123 55 196t164 73zM383 1434v-1434h-229v1434h229z" />
    <glyph glyph-name="itilde" unicode="&#x129;" 
d="M371 1036v-1036h-217v1036h217zM135 1460q57 0 99 -22t62 -49q52 -74 103 -72q76 0 76 125h135q0 -125 -55 -201t-164 -76q-57 0 -99 23t-62 50q-50 73 -103 73q-76 0 -76 -127h-135q0 128 55 202t164 74z" />
    <glyph glyph-name="Imacron" unicode="&#x12a;" horiz-adv-x="536" 
d="M547 1683v-170h-553v170h553zM383 1434v-1434h-229v1434h229z" />
    <glyph glyph-name="imacron" unicode="&#x12b;" 
d="M371 1036v-1036h-217v1036h217zM539 1382v-170h-553v170h553z" />
    <glyph glyph-name="Ibreve" unicode="&#x12c;" horiz-adv-x="536" 
d="M578 1759q0 -119 -88 -193t-224 -73q-137 0 -223 74t-86 192h178q0 -53 35 -86t96 -33t96 33t35 86h181zM383 1434v-1434h-229v1434h229z" />
    <glyph glyph-name="ibreve" unicode="&#x12d;" 
d="M371 1036v-1036h-217v1036h217zM573 1456q0 -131 -87 -214t-224 -83t-223 83t-86 214h178q0 -66 36 -108t95 -43q59 0 95 43t36 108h180z" />
    <glyph glyph-name="Iogonek" unicode="&#x12e;" horiz-adv-x="536" 
d="M383 1434v-1434h-68q-137 -59 -137 -176q0 -51 28 -80t79 -29t84 17l30 -119q-43 -25 -136 -25t-162 62t-68 168q0 135 121 213v1403h229z" />
    <glyph glyph-name="iogonek" unicode="&#x12f;" 
d="M263 1485q58 0 99 -41t41 -98q0 -56 -41 -96t-100 -40t-99 39t-40 97t41 99q41 40 99 40zM371 1036v-1036h-37q-137 -59 -137 -176q-1 -51 27 -80t79 -29t84 17l31 -119q-43 -25 -136 -25t-162 62t-69 178q0 117 103 188v1020h217z" />
    <glyph glyph-name="Idotaccent" unicode="&#x130;" horiz-adv-x="536" 
d="M264 1755q55 0 94 -37t39 -91t-39 -92t-94 -38t-93 38t-38 92t38 91t93 37zM383 1434v-1434h-229v1434h229z" />
    <glyph glyph-name="dotlessi" unicode="&#x131;" 
d="M371 1036v-1036h-217v1036h217z" />
    <glyph glyph-name="Jcircumflex" unicode="&#x134;" horiz-adv-x="1052" 
d="M868 1743l303 -244h-251l-119 109l-117 -109h-250l303 244h131zM918 1434v-1010q0 -217 -109 -330q-109 -112 -319 -112t-321 124q-110 124 -116 347h230q12 -256 215 -256q92 0 141 62t49 177v998h230z" />
    <glyph glyph-name="jcircumflex" unicode="&#x135;" 
d="M342 1499l281 -323h-230l-127 176l-129 -176h-229l282 323h152zM371 1036v-1118q0 -381 -328 -381q-96 0 -152 19v196q51 -16 123 -16q140 0 140 188v1112h217z" />
    <glyph glyph-name="Kcommaaccent" unicode="&#x136;" horiz-adv-x="1384" 
d="M702 -72q60 0 100 -42t40 -120t-44 -172t-114 -163l-61 30q53 94 61 195q-53 6 -87 43t-34 93t40 96t99 40zM391 0h-229v1434h229v-772l565 772h283l-467 -637l578 -797h-277l-457 612l-225 -286v-326z" />
    <glyph glyph-name="kcommaaccent" unicode="&#x137;" horiz-adv-x="1060" 
d="M567 -72q59 0 99 -42t41 -120q0 -78 -44 -172t-114 -163l-62 30q53 94 62 195q-53 6 -87 43t-34 93t40 96t99 40zM375 1495v-915l348 456h262l-319 -432l372 -604h-247l-279 436l-137 -170v-266h-217v1495h217z" />
    <glyph glyph-name="Lacute" unicode="&#x139;" horiz-adv-x="1048" 
d="M633 1735l-279 -234h-229l194 234h314zM381 1434v-1219h620v-215h-849v1434h229z" />
    <glyph glyph-name="lacute" unicode="&#x13a;" 
d="M659 1812l-278 -233h-229l194 233h313zM371 1495v-1495h-217v1495h217z" />
    <glyph glyph-name="Lcommaaccent" unicode="&#x13b;" horiz-adv-x="1048" 
d="M587 -72q58 0 98 -42t40 -120t-44 -172t-114 -163l-61 30q53 94 61 195q-53 6 -87 43t-34 93t41 96q42 40 100 40zM381 1434v-1219h620v-215h-849v1434h229z" />
    <glyph glyph-name="lcommaaccent" unicode="&#x13c;" 
d="M260 -72q59 0 99 -42t40 -120t-44 -172t-113 -163l-62 30q53 94 62 195q-53 6 -87 43t-34 93t40 96t99 40zM371 1495v-1495h-217v1495h217z" />
    <glyph glyph-name="Lcaron" unicode="&#x13d;" horiz-adv-x="1048" 
d="M906 1446q58 0 100 -42t41 -110q0 -195 -160 -376l-66 24q53 104 68 232q-53 6 -88 43t-35 92t41 96t99 41zM381 1434v-1219h620v-215h-849v1434h229z" />
    <glyph glyph-name="lcaron" unicode="&#x13e;" horiz-adv-x="811" 
d="M648 1495q58 0 100 -42t40 -110q0 -195 -159 -376l-66 24q53 104 68 232q-53 6 -88 43t-35 92t41 96t99 41zM371 1495v-1495h-217v1495h217z" />
    <glyph glyph-name="Ldot" unicode="&#x13f;" horiz-adv-x="1048" 
d="M813 819q61 0 103 -41t42 -101q0 -61 -42 -103t-103 -42t-102 42t-41 102t41 102q41 41 102 41zM381 1434v-1219h620v-215h-849v1434h229z" />
    <glyph glyph-name="ldot" unicode="&#x140;" horiz-adv-x="874" 
d="M657 674q61 0 103 -41t43 -101q0 -60 -42 -103q-41 -42 -103 -42t-103 42t-41 102q0 59 41 101t102 42zM371 1495v-1495h-217v1495h217z" />
    <glyph glyph-name="Lslash" unicode="&#x141;" horiz-adv-x="1079" 
d="M410 1434v-631l174 69l55 -155l-229 -90v-412h620v-215h-850v537l-149 -60l-56 156l205 80v721h230z" />
    <glyph glyph-name="lslash" unicode="&#x142;" horiz-adv-x="591" 
d="M401 1495v-696l158 63l55 -153l-213 -86v-623h-217v535l-151 -60l-56 154l207 82v784h217z" />
    <glyph glyph-name="Nacute" unicode="&#x143;" horiz-adv-x="1474" 
d="M1104 1735l-279 -234h-229l195 234h313zM1323 1434v-1434h-227l-658 954l-55 90v-1044h-229v1434h225l653 -953l62 -96v1049h229z" />
    <glyph glyph-name="nacute" unicode="&#x144;" horiz-adv-x="1122" 
d="M967 1499l-303 -323h-195l223 323h275zM756 629q0 217 -181 217q-89 0 -149 -77t-59 -218v-551h-217v1036h188l16 -139q39 72 112 117t173 45q162 1 249 -105t87 -282v-672h-219v629z" />
    <glyph glyph-name="Ncommaaccent" unicode="&#x145;" horiz-adv-x="1474" 
d="M735 -72q59 0 99 -42t40 -120t-44 -172t-113 -163l-62 30q53 94 62 195q-53 6 -87 43t-34 93t40 96t99 40zM1323 1434v-1434h-227l-658 954l-55 90v-1044h-229v1434h225l653 -953l62 -96v1049h229z" />
    <glyph glyph-name="ncommaaccent" unicode="&#x146;" horiz-adv-x="1122" 
d="M562 -72q58 0 98 -42t40 -120t-44 -172t-113 -163l-62 30q53 94 62 195q-53 6 -87 43t-34 93t41 96t99 40zM756 629q0 217 -181 217q-89 0 -149 -77t-59 -218v-551h-217v1036h188l16 -139q39 72 112 117t173 45q162 1 249 -105t87 -282v-672h-219v629z" />
    <glyph glyph-name="Ncaron" unicode="&#x147;" horiz-adv-x="1474" 
d="M1106 1737l-303 -244h-131l-303 244h249l117 -109l119 109h252zM1323 1434v-1434h-227l-658 954l-55 90v-1044h-229v1434h225l653 -953l62 -96v1049h229z" />
    <glyph glyph-name="ncaron" unicode="&#x148;" horiz-adv-x="1122" 
d="M930 1477l-281 -324h-151l-283 324h229l129 -177l127 177h230zM756 629q0 217 -181 217q-89 0 -149 -77t-59 -218v-551h-217v1036h188l16 -139q39 72 112 117t173 45q162 1 249 -105t87 -282v-672h-219v629z" />
    <glyph glyph-name="Eng" unicode="&#x14a;" horiz-adv-x="1474" 
d="M1323 1434v-1434q-2 -217 -114 -329t-316 -111v204q96 0 148 58t53 168v12l-656 952l-55 90v-1044h-229v1434h225l653 -953l62 -96v1049h229z" />
    <glyph glyph-name="eng" unicode="&#x14b;" horiz-adv-x="1107" 
d="M756 629q0 217 -181 217q-89 0 -149 -77t-59 -218v-551h-217v1036h188l16 -139q39 72 112 117t173 45q162 1 249 -105t87 -282v-754q0 -381 -385 -381v199q90 0 128 47t38 141v705z" />
    <glyph glyph-name="Omacron" unicode="&#x14c;" horiz-adv-x="1632" 
d="M1092 1704v-170h-553v170h553zM817 1245q-221 0 -359 -148q-138 -149 -138 -379t138 -380t359 -150t359 150q137 150 137 380t-137 379q-138 148 -359 148zM78 719q0 321 208 531t530 210q323 0 530 -210q206 -210 206 -532t-206 -533q-206 -212 -530 -212
q-322 0 -530 212t-208 534z" />
    <glyph glyph-name="omacron" unicode="&#x14d;" horiz-adv-x="1206" 
d="M879 1382v-170h-553v170h553zM604 858q-137 0 -223 -96t-86 -244t86 -244t223 -96t222 96t85 244t-85 244t-222 96zM602 1059q233 0 384 -152q151 -151 151 -389t-151 -390t-384 -151q-233 0 -383 152q-149 151 -149 389t150 390t382 151z" />
    <glyph glyph-name="Obreve" unicode="&#x14e;" horiz-adv-x="1632" 
d="M1126 1780q0 -119 -87 -193t-224 -74t-223 74t-86 193h178q0 -53 35 -86t96 -33t96 33t35 86h180zM817 1245q-221 0 -359 -148q-138 -149 -138 -379t138 -380t359 -150t359 150q137 150 137 380t-137 379q-138 148 -359 148zM78 719q0 321 208 531t530 210
q323 0 530 -210q206 -210 206 -532t-206 -533q-206 -212 -530 -212q-322 0 -530 212t-208 534z" />
    <glyph glyph-name="obreve" unicode="&#x14f;" horiz-adv-x="1206" 
d="M913 1456q0 -131 -87 -214t-224 -83t-223 83t-86 214h178q0 -66 36 -108t95 -43q59 0 95 43t36 108h180zM604 858q-137 0 -223 -96t-86 -244t86 -244t223 -96t222 96t85 244t-85 244t-222 96zM602 1059q233 0 384 -152q151 -151 151 -389t-151 -390t-384 -151
q-233 0 -383 152q-149 151 -149 389t150 390t382 151z" />
    <glyph glyph-name="Ohungarumlaut" unicode="&#x150;" horiz-adv-x="1632" 
d="M1270 1761l-199 -248h-188l155 248h232zM915 1761l-198 -248h-189l156 248h231zM817 1245q-221 0 -359 -148q-138 -149 -138 -379t138 -380t359 -150t359 150q137 150 137 380t-137 379q-138 148 -359 148zM78 719q0 321 208 531t530 210q323 0 530 -210
q206 -210 206 -532t-206 -533q-206 -212 -530 -212q-322 0 -530 212t-208 534z" />
    <glyph glyph-name="ohungarumlaut" unicode="&#x151;" horiz-adv-x="1206" 
d="M1079 1499l-215 -323h-184l168 323h231zM711 1499l-215 -323h-187l168 323h234zM604 858q-137 0 -223 -96t-86 -244t86 -244t223 -96t222 96t85 244t-85 244t-222 96zM602 1059q233 0 384 -152q151 -151 151 -389t-151 -390t-384 -151q-233 0 -383 152q-149 151 -149 389
t150 390t382 151z" />
    <glyph glyph-name="OE" unicode="&#x152;" horiz-adv-x="2232" 
d="M825 1245q-221 0 -359 -148q-138 -149 -138 -379t138 -380t359 -150t360 150q138 150 138 380t-138 379q-139 148 -360 148zM2128 1434v-215h-576v-375h502v-213h-502v-416h576v-215h-805v168q-199 -195 -509 -195t-518 211t-208 534q0 322 207 532t517 210t511 -194v168
h805z" />
    <glyph glyph-name="oe" unicode="&#x153;" horiz-adv-x="1978" 
d="M1412 868q-116 0 -190 -72t-85 -184h534q-3 116 -73 186t-186 70zM599 858q-132 0 -218 -96t-86 -244t86 -244t218 -96t216 85t94 220v70q-10 133 -94 219t-216 86zM618 1059q248 0 400 -191q141 190 397 191q213 0 344 -137t131 -396v-84h-755q8 -124 87 -198t199 -74
q190 0 248 147h213q-49 -163 -168 -251t-299 -89q-258 0 -399 187q-150 -186 -398 -186t-399 151q-149 151 -149 389t150 390t398 151z" />
    <glyph glyph-name="Racute" unicode="&#x154;" horiz-adv-x="1153" 
d="M936 1735l-279 -234h-229l195 234h313zM567 1219h-184v-453h184q115 0 184 58t68 167q1 109 -67 169t-185 59zM567 1434q221 0 353 -122t133 -321q0 -137 -69 -239t-191 -152l321 -600h-262l-299 561h-170v-561h-229v1434h413z" />
    <glyph glyph-name="racute" unicode="&#x155;" horiz-adv-x="722" 
d="M788 1499l-303 -323h-194l223 323h274zM672 1047v-220q-127 1 -211 -71t-86 -217v-539h-217v1036h190l19 -176q29 80 105 134t200 53z" />
    <glyph glyph-name="Rcommaaccent" unicode="&#x156;" horiz-adv-x="1153" 
d="M599 -72q58 0 98 -42t40 -120t-44 -172t-113 -163l-62 30q53 94 62 195q-53 6 -87 43t-34 93t41 96t99 40zM567 1219h-184v-453h184q115 0 184 58t68 167q1 109 -67 169t-185 59zM567 1434q221 0 353 -122t133 -321q0 -137 -69 -239t-191 -152l321 -600h-262l-299 561
h-170v-561h-229v1434h413z" />
    <glyph glyph-name="rcommaaccent" unicode="&#x157;" horiz-adv-x="722" 
d="M263 -72q58 0 98 -42t40 -120t-44 -172t-113 -163l-62 30q53 94 62 195q-53 6 -87 43t-34 93t41 96t99 40zM672 1047v-220q-127 1 -211 -71t-86 -217v-539h-217v1036h190l19 -176q29 80 105 134t200 53z" />
    <glyph glyph-name="Rcaron" unicode="&#x158;" horiz-adv-x="1153" 
d="M926 1737l-303 -244h-131l-304 244h250l117 -109l119 109h252zM567 1219h-184v-453h184q115 0 184 58t68 167q1 109 -67 169t-185 59zM567 1434q221 0 353 -122t133 -321q0 -137 -69 -239t-191 -152l321 -600h-262l-299 561h-170v-561h-229v1434h413z" />
    <glyph glyph-name="rcaron" unicode="&#x159;" horiz-adv-x="722" 
d="M762 1477l-281 -324h-151l-283 324h229l130 -177l126 177h230zM672 1047v-220q-127 1 -211 -71t-86 -217v-539h-217v1036h190l19 -176q29 80 105 134t200 53z" />
    <glyph glyph-name="Sacute" unicode="&#x15a;" horiz-adv-x="1101" 
d="M918 1755l-279 -233h-229l194 233h314zM548 1460q198 0 312 -106t123 -310h-233q-2 100 -58 156t-148 55q-92 0 -144 -50t-52 -138t58 -133t212 -105q222 -78 316 -175t94 -257q0 -197 -129 -311t-346 -113q-217 0 -343 124t-130 333h231q4 -122 71 -188q68 -66 182 -66
t173 56t59 144t-62 139q-64 51 -244 113t-276 157q-97 95 -97 269t116 291q117 115 315 115z" />
    <glyph glyph-name="sacute" unicode="&#x15b;" horiz-adv-x="921" 
d="M842 1499l-303 -323h-195l223 323h275zM98 738q0 130 96 226t258 95q163 0 262 -90t103 -238h-217q-4 141 -145 141q-66 0 -102 -34t-36 -87q0 -54 39 -83t150 -54q184 -38 261 -110t77 -214t-106 -228q-106 -85 -281 -85q-175 1 -277 91t-106 245h219q2 -71 48 -111
t125 -40t119 33t40 90t-42 90q-41 33 -185 63t-222 100t-78 200z" />
    <glyph glyph-name="Scircumflex" unicode="&#x15c;" horiz-adv-x="1101" 
d="M616 1763l304 -243h-252l-119 108l-117 -108h-250l303 243h131zM548 1460q198 0 312 -106t123 -310h-233q-2 100 -58 156t-148 55q-92 0 -144 -50t-52 -138t58 -133t212 -105q222 -78 316 -175t94 -257q0 -197 -129 -311t-346 -113q-217 0 -343 124t-130 333h231
q4 -122 71 -188q68 -66 182 -66t173 56t59 144t-62 139q-64 51 -244 113t-276 157q-97 95 -97 269t116 291q117 115 315 115z" />
    <glyph glyph-name="scircumflex" unicode="&#x15d;" horiz-adv-x="921" 
d="M535 1499l280 -323h-229l-127 176l-129 -176h-230l283 323h152zM98 738q0 130 96 226t258 95q163 0 262 -90t103 -238h-217q-4 141 -145 141q-66 0 -102 -34t-36 -87q0 -54 39 -83t150 -54q184 -38 261 -110t77 -214t-106 -228q-106 -85 -281 -85q-175 1 -277 91
t-106 245h219q2 -71 48 -111t125 -40t119 33t40 90t-42 90q-41 33 -185 63t-222 100t-78 200z" />
    <glyph glyph-name="Scedilla" unicode="&#x15e;" horiz-adv-x="1101" 
d="M548 1460q198 0 312 -106t123 -310h-233q-2 100 -58 156t-148 55q-92 0 -144 -50t-52 -138t58 -133t212 -105q222 -78 316 -175t94 -269t-114 -284t-298 -126l-20 -88q82 0 132 -46t50 -130t-61 -133t-169 -49t-177 70l71 102q43 -51 121 -51t78 66t-80 65q-31 0 -63 -8
l-41 14l45 190q-202 17 -310 139t-112 314h231q4 -122 71 -188q68 -66 182 -66t173 56t59 144t-62 139q-64 51 -244 113t-276 157q-97 95 -97 269t116 291q117 115 315 115z" />
    <glyph glyph-name="scedilla" unicode="&#x15f;" horiz-adv-x="921" 
d="M98 738q0 130 96 226t258 95q163 0 262 -90t103 -238h-217q-4 141 -145 141q-66 0 -102 -34t-36 -87q0 -54 39 -83t150 -54q184 -38 261 -110t77 -208t-91 -220t-237 -96l-20 -93q82 0 132 -46t50 -130t-62 -133t-168 -49q-108 0 -178 70l72 102q43 -51 121 -51t78 66
t-80 65q-31 0 -64 -8l-41 14l47 195q-157 14 -241 102t-88 229h219q2 -71 48 -111t125 -40t119 33t40 90t-42 90q-41 33 -185 63t-222 100t-78 200z" />
    <glyph glyph-name="Scaron" unicode="&#x160;" horiz-adv-x="1101" 
d="M920 1757l-304 -244h-131l-303 244h250l117 -108l119 108h252zM548 1460q198 0 312 -106t123 -310h-233q-2 100 -58 156t-148 55q-92 0 -144 -50t-52 -138t58 -133t212 -105q222 -78 316 -175t94 -257q0 -197 -129 -311t-346 -113q-217 0 -343 124t-130 333h231
q4 -122 71 -188q68 -66 182 -66t173 56t59 144t-62 139q-64 51 -244 113t-276 157q-97 95 -97 269t116 291q117 115 315 115z" />
    <glyph glyph-name="scaron" unicode="&#x161;" horiz-adv-x="921" 
d="M815 1477l-280 -324h-152l-283 324h230l129 -177l127 177h229zM98 738q0 130 96 226t258 95q163 0 262 -90t103 -238h-217q-4 141 -145 141q-66 0 -102 -34t-36 -87q0 -54 39 -83t150 -54q184 -38 261 -110t77 -214t-106 -228q-106 -85 -281 -85q-175 1 -277 91t-106 245
h219q2 -71 48 -111t125 -40t119 33t40 90t-42 90q-41 33 -185 63t-222 100t-78 200z" />
    <glyph glyph-name="Tcommaaccent" unicode="&#x162;" horiz-adv-x="1251" 
d="M624 -72q58 0 98 -42t40 -120t-44 -172t-114 -163l-61 30q53 94 61 195q-53 6 -87 43t-34 93t41 96q42 40 100 40zM1229 1434v-215h-490v-1219h-229v1219h-487v215h1206z" />
    <glyph glyph-name="tcommaaccent" unicode="&#x163;" horiz-adv-x="743" 
d="M420 -86q59 0 99 -42t40 -120t-44 -172t-114 -164l-61 31q53 94 61 195q-53 6 -87 43t-34 92t41 96q40 41 99 41zM678 1036v-200h-254l-4 -492q0 -86 31 -123t105 -37t122 17v-193q-59 -23 -160 -22q-160 0 -238 74t-77 237l4 539h-182v200h182l2 254h219l-2 -254h252z
" />
    <glyph glyph-name="Tcaron" unicode="&#x164;" horiz-adv-x="1251" 
d="M991 1737l-303 -244h-131l-303 244h250l117 -109l118 109h252zM1229 1434v-215h-490v-1219h-229v1219h-487v215h1206z" />
    <glyph glyph-name="tcaron" unicode="&#x165;" horiz-adv-x="1034" 
d="M873 1495q57 0 99 -42t42 -110q0 -195 -160 -376l-66 24q53 104 68 232q-53 6 -88 43t-35 92t41 96t99 41zM678 1036v-200h-254l-4 -492q0 -86 31 -123t105 -37t122 17v-193q-59 -23 -160 -22q-160 0 -238 74t-77 237l4 539h-182v200h182l2 254h219l-2 -254h252z" />
    <glyph glyph-name="Tbar" unicode="&#x166;" horiz-adv-x="1251" 
d="M1229 1434v-215h-490v-435h308v-163h-308v-621h-229v621h-305v163h305v435h-487v215h1206z" />
    <glyph glyph-name="tbar" unicode="&#x167;" horiz-adv-x="743" 
d="M678 1036v-176h-254l-2 -209h256v-174h-258v-133q0 -86 31 -123t105 -37t122 17v-193q-59 -23 -160 -22q-160 0 -238 74t-77 237v180h-178v174h180l2 209h-182v176h182l2 254h219l-2 -254h252z" />
    <glyph glyph-name="Utilde" unicode="&#x168;" horiz-adv-x="1413" 
d="M578 1772q74 0 120 -34t76 -68q31 -34 68 -34q76 0 76 117h135q1 -123 -55 -195t-164 -73q-74 0 -120 34q-46 33 -77 67t-68 34q-76 0 -75 -117h-136q0 123 56 196t164 73zM1278 1434v-863q0 -287 -150 -443t-422 -155q-272 0 -421 156q-150 156 -150 442v863h230v-863
q0 -383 341 -383t341 383v863h231z" />
    <glyph glyph-name="utilde" unicode="&#x169;" horiz-adv-x="1101" 
d="M420 1460q57 0 99 -22t62 -49q52 -74 103 -72q76 0 76 125h135q0 -125 -55 -201t-164 -76q-57 0 -99 23t-62 50q-50 73 -103 73q-76 0 -76 -127h-135q0 128 55 202t164 74zM952 1036v-1036h-190l-14 139q-80 -162 -281 -162q-164 1 -248 105t-84 283v671h217v-628
q0 -219 174 -220q92 0 151 74q58 74 58 207v567h217z" />
    <glyph glyph-name="Umacron" unicode="&#x16a;" horiz-adv-x="1413" 
d="M981 1683v-170h-553v170h553zM1278 1434v-863q0 -287 -150 -443t-422 -155q-272 0 -421 156q-150 156 -150 442v863h230v-863q0 -383 341 -383t341 383v863h231z" />
    <glyph glyph-name="umacron" unicode="&#x16b;" horiz-adv-x="1101" 
d="M823 1382v-170h-553v170h553zM952 1036v-1036h-190l-14 139q-80 -162 -281 -162q-164 1 -248 105t-84 283v671h217v-628q0 -219 174 -220q92 0 151 74q58 74 58 207v567h217z" />
    <glyph glyph-name="Ubreve" unicode="&#x16c;" horiz-adv-x="1413" 
d="M1016 1759q0 -119 -87 -193t-224 -73q-137 0 -224 74q-86 74 -86 192h178q0 -53 35 -86q34 -33 96 -33t97 33t35 86h180zM1278 1434v-863q0 -287 -150 -443t-422 -155q-272 0 -421 156q-150 156 -150 442v863h230v-863q0 -383 341 -383t341 383v863h231z" />
    <glyph glyph-name="ubreve" unicode="&#x16d;" horiz-adv-x="1101" 
d="M856 1456q0 -131 -87 -214t-224 -83t-223 83t-86 214h178q0 -66 36 -108t95 -43q59 0 95 43t36 108h180zM952 1036v-1036h-190l-14 139q-80 -162 -281 -162q-164 1 -248 105t-84 283v671h217v-628q0 -219 174 -220q92 0 151 74q58 74 58 207v567h217z" />
    <glyph glyph-name="Uring" unicode="&#x16e;" horiz-adv-x="1413" 
d="M703 1763q-33 -1 -55 -23t-22 -55t24 -57q22 -24 54 -22q32 0 56 24q22 24 22 56t-22 55q-23 22 -57 22zM498 1684q0 84 58 142t147 58t147 -57t57 -143q0 -86 -57 -143q-56 -56 -146 -56t-148 57t-58 142zM1278 1434v-863q0 -287 -150 -443t-422 -155q-272 0 -421 156
q-150 156 -150 442v863h230v-863q0 -383 341 -383t341 383v863h231z" />
    <glyph glyph-name="uring" unicode="&#x16f;" horiz-adv-x="1101" 
d="M643 1354q1 40 -27 68t-70 28t-70 -28t-28 -68t28 -70q28 -29 70 -29t70 29t27 70zM324 1352q0 94 62 156t160 61q98 1 160 -61t62 -155t-62 -155t-160 -61q-98 0 -160 61q-62 60 -62 154zM952 1036v-1036h-190l-14 139q-80 -162 -281 -162q-164 1 -248 105t-84 283v671
h217v-628q0 -219 174 -220q92 0 151 74q58 74 58 207v567h217z" />
    <glyph glyph-name="Uhungarumlaut" unicode="&#x170;" horiz-adv-x="1413" 
d="M1159 1741l-198 -248h-189l156 248h231zM805 1741l-199 -248h-188l155 248h232zM1278 1434v-863q0 -287 -150 -443t-422 -155q-272 0 -421 156q-150 156 -150 442v863h230v-863q0 -383 341 -383t341 383v863h231z" />
    <glyph glyph-name="uhungarumlaut" unicode="&#x171;" horiz-adv-x="1101" 
d="M1022 1499l-215 -323h-184l168 323h231zM653 1499l-215 -323h-186l168 323h233zM952 1036v-1036h-190l-14 139q-80 -162 -281 -162q-164 1 -248 105t-84 283v671h217v-628q0 -219 174 -220q92 0 151 74q58 74 58 207v567h217z" />
    <glyph glyph-name="Uogonek" unicode="&#x172;" horiz-adv-x="1413" 
d="M1278 1434v-863q0 -229 -97 -375t-278 -196q-92 -55 -92 -156q0 -51 28 -80q28 -28 79 -28t83 16l31 -119q-43 -25 -136 -25t-162 62q-68 60 -68 152t39 151q-272 0 -421 156q-148 156 -149 442v863h230v-863q0 -383 341 -383t341 383v863h231z" />
    <glyph glyph-name="uogonek" unicode="&#x173;" horiz-adv-x="1101" 
d="M952 1036v-1036h-4q-137 -59 -137 -176q0 -51 28 -80t79 -29t83 17l31 -119q-43 -25 -136 -25t-162 62q-68 62 -68 174q0 113 94 186l-12 129q-80 -162 -281 -162q-164 1 -248 105t-84 283v671h217v-628q0 -219 174 -220q92 0 151 74q58 74 58 207v567h217z" />
    <glyph glyph-name="Wcircumflex" unicode="&#x174;" horiz-adv-x="2035" 
d="M1083 1743l303 -244h-251l-119 109l-117 -109h-250l303 244h131zM2001 1434l-447 -1434h-235l-279 918l-22 96l-21 -96l-278 -918h-238l-446 1434h244l303 -983l22 -105l21 105l290 983h205l293 -983l19 -105l22 105l305 983h242z" />
    <glyph glyph-name="wcircumflex" unicode="&#x175;" horiz-adv-x="1585" 
d="M866 1499l281 -323h-229l-127 176l-129 -176h-230l283 323h151zM1559 1036l-322 -1036h-223l-223 680l-228 -680h-215l-321 1036h233l189 -678l20 -102l23 102l206 678h189l207 -678l22 -102l21 102l188 678h234z" />
    <glyph glyph-name="Ycircumflex" unicode="&#x176;" horiz-adv-x="1392" 
d="M762 1743l303 -244h-252l-119 109l-116 -109h-250l303 244h131zM813 0h-233v539l-555 895h268l350 -555l51 -97l54 97l352 555h268l-555 -895v-539z" />
    <glyph glyph-name="ycircumflex" unicode="&#x177;" horiz-adv-x="1048" 
d="M594 1499l280 -323h-229l-127 176l-129 -176h-229l282 323h152zM1016 1036l-549 -1476h-227l166 454l-379 1022h233l240 -694l20 -84l21 84l241 694h234z" />
    <glyph glyph-name="Ydieresis" unicode="&#x178;" horiz-adv-x="1392" 
d="M893 1749q53 0 91 -37t38 -89t-38 -89t-91 -37t-90 36t-37 89t37 90t90 37zM493 1749q54 0 91 -37t37 -89t-37 -89t-91 -37t-92 36q-37 36 -36 89q0 53 36 90q38 37 92 37zM813 0h-233v539l-555 895h268l350 -555l51 -97l54 97l352 555h268l-555 -895v-539z" />
    <glyph glyph-name="Zacute" unicode="&#x179;" horiz-adv-x="1218" 
d="M977 1735l-279 -234h-229l195 234h313zM1116 1434v-187l-739 -1032h766v-215h-1063v186l745 1033h-739v215h1030z" />
    <glyph glyph-name="zacute" unicode="&#x17a;" horiz-adv-x="958" 
d="M868 1499l-303 -323h-194l223 323h274zM874 1036v-166l-512 -677h541v-193h-831v164l512 680h-508v192h798z" />
    <glyph glyph-name="Zdotaccent" unicode="&#x17b;" horiz-adv-x="1218" 
d="M608 1755q55 0 94 -37t39 -91t-39 -92t-94 -38t-93 38t-38 92t38 91t93 37zM1116 1434v-187l-739 -1032h766v-215h-1063v186l745 1033h-739v215h1030z" />
    <glyph glyph-name="zdotaccent" unicode="&#x17c;" horiz-adv-x="958" 
d="M485 1460q59 0 101 -40t41 -97q0 -57 -41 -97q-40 -40 -100 -40t-100 40t-40 97t40 97t99 40zM874 1036v-166l-512 -677h541v-193h-831v164l512 680h-508v192h798z" />
    <glyph glyph-name="Zcaron" unicode="&#x17d;" horiz-adv-x="1218" 
d="M979 1737l-303 -244h-131l-303 244h250l116 -109l119 109h252zM1116 1434v-187l-739 -1032h766v-215h-1063v186l745 1033h-739v215h1030z" />
    <glyph glyph-name="zcaron" unicode="&#x17e;" horiz-adv-x="958" 
d="M842 1477l-281 -324h-151l-283 324h229l129 -177l127 177h230zM874 1036v-166l-512 -677h541v-193h-831v164l512 680h-508v192h798z" />
    <glyph glyph-name="florin" unicode="&#x192;" horiz-adv-x="720" 
d="M651 1516q82 0 142 -23l-23 -195q-57 23 -113 23q-141 0 -159 -156l-13 -129h258l-20 -198h-258l-105 -969q-16 -160 -112 -246t-256 -86q-80 0 -139 23l20 194q61 -25 113 -24q145 0 159 155l101 953h-183l19 198h184l17 148q16 158 113 245t255 87z" />
    <glyph glyph-name="Aringacute" unicode="&#x1fa;" horiz-adv-x="1445" 
d="M720 1763q-34 -1 -56 -23t-21 -55q0 -33 23 -57q24 -24 56 -22q32 0 54 24t23 56q-1 32 -23 54t-56 23zM721 1147l-27 -78l-198 -512h454l-202 512zM924 1690q0 -92 -58 -149q-58 -56 -146 -56q-89 0 -148 57q-58 57 -58 141q0 131 113 181l129 155h313l-217 -182
q72 -55 72 -147zM846 1434l567 -1434h-252l-137 350h-604l-135 -350h-252l567 1434h246z" />
    <glyph glyph-name="aringacute" unicode="&#x1fb;" horiz-adv-x="1032" 
d="M623 1354q0 40 -28 68t-70 28q-41 0 -69 -28t-28 -68t28 -70q28 -29 70 -29t69 29q28 29 28 70zM307 283q0 -53 37 -85t105 -32q125 0 188 100q49 70 49 164v37l-248 -53q-131 -29 -131 -131zM748 1352q0 -92 -62 -154t-160 -61q-98 0 -160 61q-62 62 -62 158t69 160
l184 219h313l-231 -195q109 -55 109 -188zM520 1059q178 0 282 -97t103 -280v-682h-192l-11 135q-92 -158 -305 -158q-139 0 -224 79t-85 216q0 248 303 306l295 53v47q0 186 -170 186q-80 0 -133 -44t-53 -120h-211q7 156 115 258t286 101z" />
    <glyph glyph-name="AEacute" unicode="&#x1fc;" horiz-adv-x="1931" 
d="M1561 1735l-279 -234h-229l194 234h314zM1030 555v596l-43 -80l-336 -516h379zM1837 1434v-215h-575v-375h501v-213h-501v-416h575v-215h-807v354h-504l-235 -354h-273l930 1434h889z" />
    <glyph glyph-name="aeacute" unicode="&#x1fd;" horiz-adv-x="1742" 
d="M1243 1499l-303 -323h-195l224 323h274zM307 285q0 -57 35 -88t100 -31q119 0 183 92q51 70 51 154v55l-230 -51q-74 -14 -106 -44t-33 -87zM1177 868q-116 0 -191 -72t-85 -184h535q-2 116 -72 186t-187 70zM1179 1059q214 0 345 -137t131 -396v-84h-756q8 -124 87 -198
t200 -74q190 0 248 147h213q-49 -163 -168 -251t-299 -89q-274 0 -412 205q-131 -205 -367 -205q-147 0 -230 79t-83 212q0 252 297 307l291 56v41q0 193 -170 192q-78 0 -127 -43t-49 -121h-211q6 158 110 258t277 101q221 0 319 -139q140 139 354 139z" />
    <glyph glyph-name="Oslashacute" unicode="&#x1fe;" horiz-adv-x="1632" 
d="M1165 1743l-278 -234h-230l195 234h313zM817 1245q-221 0 -359 -148t-138 -390t157 -390l514 897q-88 31 -174 31zM1313 728q0 240 -160 388l-514 -899q82 -29 178 -29q221 0 359 150q137 150 137 390zM817 1460q154 0 285 -53l98 172l170 -86l-102 -176
q135 -100 210 -256t74 -342q0 -322 -206 -534t-529 -212q-150 0 -289 54l-100 -177l-170 84l104 183q-133 100 -208 257q-76 157 -76 345q0 321 208 531t531 210z" />
    <glyph glyph-name="oslashacute" unicode="&#x1ff;" horiz-adv-x="1206" 
d="M981 1499l-303 -323h-195l224 323h274zM911 524q0 152 -96 248l-309 -579q43 -14 98 -15q137 0 222 96q85 98 85 250zM604 858q-137 0 -223 -96t-86 -250t98 -252l312 582q-50 16 -101 16zM602 1059q106 0 201 -35l86 162l119 -56l-90 -167q219 -154 219 -445
q0 -238 -151 -390t-384 -151q-100 0 -194 33l-86 -162l-119 54l88 166q-105 72 -163 188t-58 262q0 238 150 390t382 151z" />
    <glyph glyph-name="Scommaaccent" unicode="&#x218;" horiz-adv-x="1101" 
d="M555 -92q59 0 99 -42t40 -120t-44 -172t-113 -164l-62 31q53 94 62 194q-53 6 -87 43q-34 38 -34 94t40 96t99 40zM548 1460q198 0 312 -106t123 -310h-233q-2 100 -58 156t-148 55q-92 0 -144 -50t-52 -138t58 -133t212 -105q222 -78 316 -175t94 -257q0 -197 -129 -311
t-346 -113q-217 0 -343 124t-130 333h231q4 -122 71 -188q68 -66 182 -66t173 56t59 144t-62 139q-64 51 -244 113t-276 157q-97 95 -97 269t116 291q117 115 315 115z" />
    <glyph glyph-name="scommaaccent" unicode="&#x219;" horiz-adv-x="921" 
d="M464 -80q58 0 98 -42t40 -120t-44 -172t-114 -164l-61 31q53 94 61 195q-53 6 -87 43q-33 37 -33 93t41 96t99 40zM98 738q0 130 96 226t258 95q163 0 262 -90t103 -238h-217q-4 141 -145 141q-66 0 -102 -34t-36 -87q0 -54 39 -83t150 -54q184 -38 261 -110t77 -214
t-106 -228q-106 -85 -281 -85q-175 1 -277 91t-106 245h219q2 -71 48 -111t125 -40t119 33t40 90t-42 90q-41 33 -185 63t-222 100t-78 200z" />
    <glyph glyph-name="circumflex" unicode="&#x2c6;" horiz-adv-x="755" 
d="M455 1499l280 -323h-229l-127 176l-129 -176h-230l283 323h152z" />
    <glyph glyph-name="caron" unicode="&#x2c7;" horiz-adv-x="755" 
d="M735 1477l-280 -324h-152l-283 324h230l129 -177l127 177h229z" />
    <glyph glyph-name="breve" unicode="&#x2d8;" horiz-adv-x="661" 
d="M641 1456q0 -131 -87 -214t-224 -83t-224 83q-86 83 -86 214h179q-1 -66 35 -108t96 -43q60 0 95 43q36 43 36 108h180z" />
    <glyph glyph-name="dotaccent" unicode="&#x2d9;" horiz-adv-x="321" 
d="M160 1460q59 0 100 -40t41 -97t-41 -97t-100 -40t-100 40q-40 40 -40 97t40 97q41 40 100 40z" />
    <glyph glyph-name="ring" unicode="&#x2da;" horiz-adv-x="485" 
d="M340 1354q0 40 -28 68t-69 28q-42 0 -70 -28t-28 -68t28 -70q28 -29 70 -29q41 0 69 29t28 70zM243 1569q97 1 159 -61t62 -155t-62 -155t-159 -61q-97 0 -160 61q-63 60 -63 154t63 156t160 61z" />
    <glyph glyph-name="ogonek" unicode="&#x2db;" horiz-adv-x="395" 
d="M154 -176q0 -51 28 -80t78 -29q51 0 84 17l31 -119q-43 -25 -136 -25t-162 62t-69 168q0 168 195 252l88 -70q-137 -59 -137 -176z" />
    <glyph glyph-name="tilde" unicode="&#x2dc;" horiz-adv-x="735" 
d="M240 1460q57 0 99 -22t61 -50q52 -73 104 -71q76 0 76 125h135q1 -125 -55 -201t-164 -76q-58 0 -100 23q-42 22 -61 50q-50 72 -104 73q-76 0 -75 -127h-136q0 128 56 202t164 74z" />
    <glyph glyph-name="hungarumlaut" unicode="&#x2dd;" horiz-adv-x="811" 
d="M791 1499l-216 -323h-184l168 323h232zM422 1499l-215 -323h-187l168 323h234z" />
    <glyph glyph-name="uni03A9" unicode="&#x3a9;" horiz-adv-x="1761" 
d="M887 1503q307 1 491 -197t185 -505q0 -127 -44 -243q-43 -116 -91 -178t-115 -134h370v-246h-686v217q313 244 314 574q0 211 -114 339q-115 128 -311 127q-196 0 -311 -128t-114 -338q0 -330 313 -574v-217h-684v246h373q-252 252 -252 557t184 503q185 197 492 197z
" />
    <glyph glyph-name="pi" unicode="&#x3c0;" horiz-adv-x="1495" 
d="M1034 -12q-144 0 -188 77q-45 77 -27 224l70 526h-227l-66 -493q-29 -199 -88 -322h-234q90 158 117 360l62 455h-39q-164 0 -262 -117l-107 156q92 92 178 131t244 39h532q137 0 198 35q60 35 101 119l181 -105q-43 -125 -124 -191t-235 -67h-22l-64 -469
q-18 -141 78 -141q59 0 117 47l82 -162q-133 -102 -277 -102z" />
    <glyph glyph-name="Wgrave" unicode="&#x1e80;" horiz-adv-x="2035" 
d="M946 1735l193 -234h-228l-280 234h315zM2001 1434l-447 -1434h-235l-279 918l-22 96l-21 -96l-278 -918h-238l-446 1434h244l303 -983l22 -105l21 105l290 983h205l293 -983l19 -105l22 105l305 983h242z" />
    <glyph glyph-name="wgrave" unicode="&#x1e81;" horiz-adv-x="1585" 
d="M670 1499l223 -323h-195l-303 323h275zM1559 1036l-322 -1036h-223l-223 680l-228 -680h-215l-321 1036h233l189 -678l20 -102l23 102l206 678h189l207 -678l22 -102l21 102l188 678h234z" />
    <glyph glyph-name="Wacute" unicode="&#x1e82;" horiz-adv-x="2035" 
d="M1399 1735l-279 -234h-229l194 234h314zM2001 1434l-447 -1434h-235l-279 918l-22 96l-21 -96l-278 -918h-238l-446 1434h244l303 -983l22 -105l21 105l290 983h205l293 -983l19 -105l22 105l305 983h242z" />
    <glyph glyph-name="wacute" unicode="&#x1e83;" horiz-adv-x="1585" 
d="M1171 1499l-303 -323h-194l223 323h274zM1559 1036l-322 -1036h-223l-223 680l-228 -680h-215l-321 1036h233l189 -678l20 -102l23 102l206 678h189l207 -678l22 -102l21 102l188 678h234z" />
    <glyph glyph-name="Wdieresis" unicode="&#x1e84;" horiz-adv-x="2035" 
d="M1217 1749q53 0 91 -37t38 -89t-38 -89t-91 -37t-91 36q-37 36 -36 89q0 53 36 90q38 37 91 37zM816 1749q54 0 91 -37t37 -89t-37 -89t-91 -37t-91 36t-37 89t37 90t91 37zM2001 1434l-447 -1434h-235l-279 918l-22 96l-21 -96l-278 -918h-238l-446 1434h244l303 -983
l22 -105l21 105l290 983h205l293 -983l19 -105l22 105l305 983h242z" />
    <glyph glyph-name="wdieresis" unicode="&#x1e85;" horiz-adv-x="1585" 
d="M989 1432q53 0 91 -36t38 -89t-38 -89t-91 -36t-90 36t-37 89t37 89t90 36zM589 1432q54 0 91 -36t37 -89t-37 -89t-91 -36t-91 36t-37 89t37 89t91 36zM1559 1036l-322 -1036h-223l-223 680l-228 -680h-215l-321 1036h233l189 -678l20 -102l23 102l206 678h189l207 -678
l22 -102l21 102l188 678h234z" />
    <glyph glyph-name="Ygrave" unicode="&#x1ef2;" horiz-adv-x="1392" 
d="M625 1735l192 -234h-227l-281 234h316zM813 0h-233v539l-555 895h268l350 -555l51 -97l54 97l352 555h268l-555 -895v-539z" />
    <glyph glyph-name="ygrave" unicode="&#x1ef3;" horiz-adv-x="1048" 
d="M399 1499l224 -323h-195l-303 323h274zM1016 1036l-549 -1476h-227l166 454l-379 1022h233l240 -694l20 -84l21 84l241 694h234z" />
    <glyph glyph-name="endash" unicode="&#x2013;" horiz-adv-x="1054" 
d="M1004 629v-195h-953v195h953z" />
    <glyph glyph-name="emdash" unicode="&#x2014;" horiz-adv-x="1443" 
d="M1393 629v-195h-1342v195h1342z" />
    <glyph glyph-name="quoteleft" unicode="&#x2018;" horiz-adv-x="407" 
d="M344 1118q0 -55 -41 -95t-100 -40t-100 41q-40 41 -40 111q0 190 158 374l68 -24q-55 -109 -68 -232q53 -6 88 -43t35 -92z" />
    <glyph glyph-name="quoteright" unicode="&#x2019;" horiz-adv-x="407" 
d="M203 1495q59 0 100 -42t41 -110q0 -195 -160 -376l-65 24q53 104 67 232q-53 6 -88 43t-35 92t40 96q41 41 100 41z" />
    <glyph glyph-name="quotesinglbase" unicode="&#x201a;" horiz-adv-x="407" 
d="M203 256q59 0 100 -41t41 -111q0 -193 -160 -374l-65 24q51 100 67 234q-53 6 -88 42t-35 92t40 95q41 39 100 39z" />
    <glyph glyph-name="quotedblleft" unicode="&#x201c;" horiz-adv-x="804" 
d="M598 983q-59 0 -99 41t-40 111q-1 190 157 374l68 -24q-55 -109 -68 -232q52 -6 88 -43t36 -92t-42 -95q-41 -40 -100 -40zM344 1118q0 -55 -41 -95t-100 -40t-100 41q-40 41 -40 111q0 190 158 374l68 -24q-55 -109 -68 -232q53 -6 88 -43t35 -92z" />
    <glyph glyph-name="quotedblright" unicode="&#x201d;" horiz-adv-x="804" 
d="M599 1495q58 0 99 -42t41 -110q0 -195 -159 -376l-66 24q53 104 68 232q-53 6 -88 43t-35 92t41 96t99 41zM203 1495q59 0 100 -42t41 -110q0 -195 -160 -376l-65 24q53 104 67 232q-53 6 -88 43t-35 92t40 96q41 41 100 41z" />
    <glyph glyph-name="quotedblbase" unicode="&#x201e;" horiz-adv-x="813" 
d="M608 256q58 0 100 -41t42 -111q0 -193 -160 -374l-66 24q51 100 68 234q-53 6 -88 42t-35 92t40 95t99 39zM203 256q59 0 100 -41t41 -111q0 -193 -160 -374l-65 24q51 100 67 234q-53 6 -88 42t-35 92t40 95q41 39 100 39z" />
    <glyph glyph-name="dagger" unicode="&#x2020;" horiz-adv-x="940" 
d="M580 1487v-389h325v-213h-325v-1022h-220v1022h-323v213h323v389h220z" />
    <glyph glyph-name="daggerdbl" unicode="&#x2021;" horiz-adv-x="940" 
d="M580 1487v-389h325v-213h-325v-420h325v-213h-325v-389h-220v389h-323v213h323v420h-323v213h323v389h220z" />
    <glyph glyph-name="bullet" unicode="&#x2022;" horiz-adv-x="727" 
d="M362 821q123 0 207 -84t84 -207q0 -124 -84 -206t-207 -82q-124 0 -206 83t-82 205t82 207q82 84 206 84z" />
    <glyph glyph-name="ellipsis" unicode="&#x2026;" horiz-adv-x="1347" 
d="M1133 262q61 0 103 -40t42 -101t-42 -103t-103 -41q-61 0 -104 41q-42 40 -42 102t42 102q43 40 104 40zM674 262q61 0 103 -40t42 -101t-42 -103t-103 -41q-61 0 -104 41q-42 40 -42 102t42 102q43 40 104 40zM215 262q61 0 103 -40t42 -101t-42 -103t-103 -41
q-61 0 -102 41q-41 40 -41 102t41 102t102 40z" />
    <glyph glyph-name="perthousand" unicode="&#x2030;" horiz-adv-x="2570" 
d="M2162 520q-75 0 -124 -54t-49 -134t49 -133t124 -53t123 52q48 54 48 134t-48 134t-123 54zM2162 692q151 0 252 -103t101 -258t-101 -256t-252 -101t-252 100q-102 102 -102 257t102 258t252 103zM1359 520q-75 0 -124 -54t-49 -134t49 -133t124 -53t123 52
q48 54 48 134t-48 134t-123 54zM1359 692q151 0 252 -103t101 -258t-101 -256t-252 -101t-252 100q-101 102 -101 257t101 258t252 103zM408 1288q-76 0 -124 -53t-48 -134t49 -134t123 -53t122 52q48 54 48 135t-47 134t-123 53zM408 1460q152 0 252 -102t100 -257
t-100 -257t-252 -102t-252 100q-100 102 -101 258q1 156 101 258t252 102zM1409 1434l-819 -1434h-234l820 1434h233z" />
    <glyph glyph-name="guilsinglleft" unicode="&#x2039;" horiz-adv-x="552" 
d="M526 913l-301 -401l301 -399h-211l-290 383v34l290 383h211z" />
    <glyph glyph-name="guilsinglright" unicode="&#x203a;" horiz-adv-x="552" 
d="M238 913l288 -383v-34l-288 -383h-213l303 399l-303 401h213z" />
    <glyph glyph-name="fraction" unicode="&#x2044;" horiz-adv-x="276" 
d="M666 1434l-820 -1434h-233l819 1434h234z" />
    <glyph glyph-name="zero.sups" unicode="&#x2070;" horiz-adv-x="757" 
d="M379 1495q-133 0 -133 -258t133 -258t133 258t-133 258zM74 1238q0 196 79 306t225 109q146 0 226 -110q80 -109 80 -305t-80 -306t-226 -111q-146 0 -225 111q-79 110 -79 306z" />
    <glyph glyph-name="four.sups" unicode="&#x2074;" horiz-adv-x="759" 
d="M418 1124v310l-23 -45l-164 -265h187zM586 1638v-514h108v-149h-108v-139h-170v139h-363v135l322 528h211z" />
    <glyph glyph-name="five.sups" unicode="&#x2075;" horiz-adv-x="716" 
d="M606 1638v-159h-330v-156q49 25 117 25q113 0 185 -64t72 -185q0 -122 -78 -200q-76 -78 -208 -78t-207 66t-75 186h168q2 -94 115 -94q55 0 86 32t30 85q0 53 -30 84q-31 30 -88 30t-107 -28h-150v456h500z" />
    <glyph glyph-name="six.sups" unicode="&#x2076;" horiz-adv-x="735" 
d="M374 1196q-50 0 -86 -28t-38 -70v-8q0 -45 35 -79t88 -34t86 30q33 31 33 79t-34 79t-84 31zM385 1653q115 0 189 -67t75 -177h-170q-12 86 -102 86q-135 0 -135 -215q56 57 168 57q112 -1 183 -69t71 -184t-79 -190q-79 -73 -211 -73t-218 93t-86 309q0 430 315 430z
" />
    <glyph glyph-name="seven.sups" unicode="&#x2077;" horiz-adv-x="638" 
d="M590 1638v-135l-316 -667h-184l303 641h-338v161h535z" />
    <glyph glyph-name="eight.sups" unicode="&#x2078;" horiz-adv-x="727" 
d="M463 1409q1 41 -27 67t-72 27q-44 -1 -72 -27t-28 -67t28 -68t72 -27t72 28q28 26 27 67zM364 1180q-50 0 -84 -30t-34 -76t35 -75t84 -29t84 30q35 28 35 74t-35 76t-85 30zM364 1653q120 0 194 -70t73 -173q0 -103 -92 -163q115 -61 115 -173t-84 -183
q-84 -70 -206 -70t-206 70q-84 69 -84 185t114 171q-92 59 -92 163t74 173q74 70 194 70z" />
    <glyph glyph-name="nine.sups" unicode="&#x2079;" horiz-adv-x="735" 
d="M362 1272q51 0 88 33q36 33 36 79t-35 79q-35 34 -87 34t-86 -33t-34 -80q0 -48 34 -80t84 -32zM358 1653q306 0 308 -402q0 -430 -314 -430q-118 0 -190 67t-74 177h170q12 -86 100 -86q133 0 136 217q-57 -53 -168 -53q-111 1 -183 67q-71 66 -71 182t78 188
q78 73 208 73z" />
    <glyph glyph-name="n.sups" unicode="&#x207f;" horiz-adv-x="849" 
d="M480 1456q129 0 192 -71t63 -191v-459h-170v416q0 141 -123 141q-63 0 -106 -46t-43 -130v-381h-168v707h147l11 -94q68 108 197 108z" />
    <glyph glyph-name="Euro" unicode="&#x20ac;" horiz-adv-x="1230" 
d="M715 621v-168h-283q72 -264 277 -265q102 0 164 56t79 162h248q-47 -213 -165 -323q-117 -110 -321 -110t-337 126t-182 354h-164v168h139q-2 31 -2 99t2 101h-139v168h164q51 223 184 347t330 124q416 0 491 -430h-248q-30 215 -238 215t-282 -256h283v-168h-309
q-11 -87 -3 -200h312z" />
    <glyph glyph-name="afii61289" unicode="&#x2113;" horiz-adv-x="1175" 
d="M819 1178q0 182 -145 182q-68 0 -106 -47t-38 -135v-457q121 111 205 235q84 126 84 222zM334 1163q0 185 89 279t243 94t247 -89q92 -89 93 -245q0 -195 -138 -370t-319 -332v-166q0 -82 31 -122q30 -40 110 -40t136 51t122 158l133 -102q-184 -303 -444 -304
q-227 0 -272 215q-20 29 -21 142q-74 -55 -174 -142l-113 162q150 123 277 242v569z" />
    <glyph glyph-name="trademark" unicode="&#x2122;" horiz-adv-x="1269" 
d="M1194 1434v-574h-147v316l-19 -58l-100 -258h-105l-100 258l-18 58v-316h-148v574h176l144 -373l8 33l135 340h174zM485 1434v-138h-145v-436h-147v436h-148v138h440z" />
    <glyph glyph-name="Omega" unicode="&#x2126;" horiz-adv-x="1761" 
d="M887 1503q307 1 491 -197t185 -505q0 -127 -44 -243q-43 -116 -91 -178t-115 -134h370v-246h-686v217q313 244 314 574q0 211 -114 339q-115 128 -311 127q-196 0 -311 -128t-114 -338q0 -330 313 -574v-217h-684v246h373q-252 252 -252 557t184 503q185 197 492 197z
" />
    <glyph glyph-name="estimated" unicode="&#x212e;" horiz-adv-x="1204" 
d="M618 1092q230 0 371 -140t141 -389h-819v-321q0 -88 74 -129q96 -72 242 -72q272 0 438 250l55 -37q-178 -281 -493 -281q-238 0 -397 156q-158 155 -158 403t158 404t388 156zM618 1026q-136 0 -233 -70q-74 -47 -74 -129v-196h600v198q0 57 -13 89t-56 51
q-88 57 -224 57z" />
    <glyph glyph-name="partialdiff" unicode="&#x2202;" horiz-adv-x="1107" 
d="M561 743q-113 1 -187 -77t-75 -202q0 -124 74 -202q73 -78 187 -78t186 78t73 203q-1 125 -73 201t-185 77zM520 1526q152 0 260 -73t162 -201q104 -242 102 -584q0 -276 -65 -412t-175 -206q-110 -69 -245 -68q-211 0 -349 136t-138 347t133 345t323 134t289 -127
q-4 233 -84 365q-79 132 -235 131q-156 0 -256 -139l-152 141q160 211 430 211z" />
    <glyph glyph-name="uni2206" unicode="&#x2206;" horiz-adv-x="1476" 
d="M739 899l-360 -717h721zM739 1309l660 -1309h-1319z" />
    <glyph glyph-name="product" unicode="&#x220f;" horiz-adv-x="1411" 
d="M1339 1434v-213h-239v-1450h-209v1450h-371v-1450h-209v1450h-239v213h1267z" />
    <glyph glyph-name="summation" unicode="&#x2211;" horiz-adv-x="1249" 
d="M1137 1434v-226h-727l346 -463l-363 -520h768v-225h-1073v152l408 587l-402 543v152h1043z" />
    <glyph glyph-name="minus" unicode="&#x2212;" horiz-adv-x="966" 
d="M905 813v-195h-844v195h844z" />
    <glyph glyph-name="radical" unicode="&#x221a;" horiz-adv-x="1427" 
d="M1182 1421l190 -78l-610 -1482l-348 667l-250 -141l-98 172l456 270l232 -485z" />
    <glyph glyph-name="infinity" unicode="&#x221e;" horiz-adv-x="1552" 
d="M419 758q-77 0 -117 -47t-40 -118t40 -117t108 -46q96 0 192 121l33 39l-33 43q-106 125 -183 125zM1124 780q-113 0 -227 -149l-31 -41l37 -41q41 -45 66 -69t69 -48t88 -24q76 0 123 53t47 133t-47 133t-125 53zM1124 211q-72 0 -140 31q-68 30 -106 62t-90 83l-38 39
l-39 -39q-145 -145 -296 -145t-241 100t-90 251t90 252t240 101q84 0 150 -38t145 -113l39 -41l30 34q164 187 336 188t271 -109q99 -111 99 -273t-98 -272q-100 -110 -262 -111z" />
    <glyph glyph-name="integral" unicode="&#x222b;" horiz-adv-x="888" 
d="M601 1536q132 0 241 -43l-47 -182q-74 33 -140 32q-115 0 -114 -153v-1233q0 -188 -67 -270t-210 -82t-241 47l51 180q70 -33 141 -33q123 0 123 158v1233q0 186 65 266q66 80 198 80z" />
    <glyph glyph-name="approxequal" unicode="&#x2248;" horiz-adv-x="1171" 
d="M412 1155q72 0 132 -30q60 -29 94 -65q92 -96 185 -95q131 0 178 168l150 -70q-84 -291 -332 -291q-72 0 -132 30t-95 66q-94 96 -184 95q-129 0 -179 -168l-149 69q84 291 332 291zM416 690q72 0 131 -30t93 -66q92 -96 185 -94q131 0 179 168l149 -70
q-86 -289 -330 -289q-74 0 -134 30t-95 67q-91 96 -184 96q-125 0 -179 -170l-147 67q84 291 332 291z" />
    <glyph glyph-name="notequal" unicode="&#x2260;" horiz-adv-x="940" 
d="M905 600v-192h-434l-57 -175h-205l57 175h-205v192h269l76 231h-345v191h406l65 199h205l-65 -199h233v-191h-295l-75 -231h370z" />
    <glyph glyph-name="lessequal" unicode="&#x2264;" horiz-adv-x="729" 
d="M684 393v-166h-641v166h641zM684 1200l-381 -350l381 -350h-262l-379 346v8l379 346h262z" />
    <glyph glyph-name="greaterequal" unicode="&#x2265;" horiz-adv-x="729" 
d="M684 393v-166h-641v166h641zM305 1200l379 -346v-8l-379 -346h-262l381 350l-381 350h262z" />
    <glyph glyph-name="lozenge" unicode="&#x25ca;" horiz-adv-x="1144" 
d="M573 1186l-286 -498l286 -500l283 500zM641 1511l446 -823l-446 -821h-137l-447 821l447 823h137z" />
    <glyph glyph-name="commaaccent" unicode="&#xf6c3;" horiz-adv-x="425" 
d="M214 -72q58 0 98 -42t40 -120t-44 -172t-113 -163l-62 30q53 94 62 195q-53 6 -87 43t-34 93t41 96t99 40z" />
    <glyph glyph-name="g.alt" horiz-adv-x="1249" 
d="M549 1059q217 0 336 -170l12 147h193v-1013q0 -217 -140 -351t-350 -135q-211 0 -344 93t-162 286h217q39 -180 275 -180q135 0 210 75t74 205v134q-43 -66 -129 -109t-200 -43q-207 0 -339 150t-132 381q0 232 131 381t348 149zM877 537q0 141 -89 228t-212 87t-202 -90
t-79 -234t81 -234q81 -89 203 -89q123 0 209 88t89 231v13z" />
    <glyph glyph-name="a.alt" horiz-adv-x="1247" 
d="M885 526q0 148 -88 238t-213 90t-207 -93t-82 -243t82 -243t208 -93t213 89t87 239v16zM558 1059q218 0 337 -170l14 147h191v-1036h-191l-14 145q-117 -168 -336 -168t-354 155t-135 386t135 386t353 155z" />
    <glyph glyph-name="parenleft.cap" horiz-adv-x="581" 
d="M299 698q0 -228 62 -398q62 -171 202 -351l-155 -107q-156 193 -236 396q-80 202 -80 460t80 460t236 396l155 -106q-139 -180 -201 -351t-63 -399z" />
    <glyph glyph-name="parenright.cap" horiz-adv-x="581" 
d="M492 698q0 -256 -81 -458t-237 -398l-156 107q139 178 202 349q62 171 63 400q-1 228 -63 400t-202 350l156 106q156 -196 237 -398t81 -458z" />
    <glyph glyph-name="bracketleft.cap" horiz-adv-x="626" 
d="M575 1507v-198h-225v-1227h225v-199h-432v1624h432z" />
    <glyph glyph-name="bracketright.cap" horiz-adv-x="626" 
d="M483 1507v-1624h-432v199h225v1227h-225v198h432z" />
    <glyph glyph-name="braceleft.cap" horiz-adv-x="626" 
d="M575 1507v-198h-47q-133 0 -133 -148v-256q0 -166 -125 -211q125 -45 125 -209v-256q0 -147 133 -147h47v-199h-53q-162 0 -244 90t-83 250v230q0 147 -134 147h-30v191h30q133 0 134 147v229q0 160 83 250t244 90h53z" />
    <glyph glyph-name="braceright.cap" horiz-adv-x="626" 
d="M104 1507q162 0 246 -90t84 -250v-229q0 -147 133 -147h29v-191h-29q-133 0 -133 -147v-230q0 -160 -84 -250t-246 -90h-53v199h47q133 0 133 147v256q0 164 125 209q-125 45 -125 211v256q0 147 -133 148h-47v198h53z" />
    <glyph glyph-name="hyphen.cap" horiz-adv-x="747" 
d="M696 780v-194h-645v194h645z" />
    <glyph glyph-name="endash.cap" horiz-adv-x="1054" 
d="M1004 772v-194h-953v194h953z" />
    <glyph glyph-name="emdash.cap" horiz-adv-x="1443" 
d="M1393 780v-194h-1342v194h1342z" />
    <glyph glyph-name="at.cap" horiz-adv-x="1673" 
d="M840 1479q344 0 552 -215t207 -547q0 -215 -93 -317t-222 -103q-158 0 -217 125q-97 -127 -273 -127t-284 120t-107 300t107 301t280 121t254 -140l11 121h159v-569q0 -59 20 -88t73 -29q143 0 143 278t-167 452q-167 175 -445 175t-448 -174q-169 -174 -169 -446
q0 -271 169 -447t450 -176q150 0 278 62l49 -136q-141 -66 -327 -65q-346 0 -556 214t-210 550t211 548t555 212zM1036 727q0 113 -66 177t-161 65q-93 0 -155 -71q-62 -70 -62 -182t61 -180t155 -69q94 0 162 61q67 61 66 170v29z" />
    <glyph glyph-name="periodcentered.cap" horiz-adv-x="432" 
d="M215 856q61 0 103 -41t42 -101t-42 -102t-103 -43q-61 0 -102 42q-41 43 -41 103t41 101t102 41z" />
    <glyph glyph-name="exclamdown.cap" 
d="M260 1171q-61 0 -104 40q-43 39 -43 101t43 103t104 41q62 0 104 -41t42 -102t-42 -102q-43 -40 -104 -40zM152 0v1012h217v-1012h-217z" />
    <glyph glyph-name="questiondown.cap" horiz-adv-x="876" 
d="M457 1174q-61 0 -104 39q-42 39 -42 101t42 103q41 41 103 41t104 -41t42 -102t-42 -101t-103 -40zM447 -29q-179 1 -300 105t-120 289q0 100 32 181q33 81 81 130t96 91q112 100 112 185v62h219v-70q0 -138 -116 -245q-49 -44 -99 -87q-118 -103 -116 -241
q0 -105 56 -163t154 -58t157 60q58 60 59 173h206q-2 -193 -122 -303t-299 -109z" />
    <glyph glyph-name="endash_guilsinglright" horiz-adv-x="1347" 
d="M72 475v189h858l-361 319l107 129l598 -541l-598 -542l-107 129l359 317h-856z" />
    <glyph glyph-name="emdash_guilsinglright" horiz-adv-x="2019" 
d="M72 475v189h1530l-363 319l104 129l605 -541l-605 -542l-104 129l358 317h-1525z" />
    <glyph glyph-name="guilsinglleft_endash" horiz-adv-x="1347" 
d="M1274 664v-189h-852l358 -317l-104 -129l-604 542l604 541l104 -131l-362 -317h856z" />
    <glyph glyph-name="guilsinglleft_emdash" horiz-adv-x="2019" 
d="M1948 664v-189h-1526l358 -317l-104 -129l-604 542l604 541l104 -131l-362 -317h1530z" />
    <glyph glyph-name="guilsinglleft.cap" horiz-adv-x="552" 
d="M526 1098l-301 -402l301 -399h-211l-290 383v35l290 383h211z" />
    <glyph glyph-name="guilsinglright.cap" horiz-adv-x="552" 
d="M238 1098l288 -383v-35l-288 -383h-213l303 399l-303 402h213z" />
    <glyph glyph-name="guillemotleft.cap" horiz-adv-x="964" 
d="M940 1098l-270 -402l270 -399h-213l-258 383v35l258 383h213zM496 1098l-271 -402l271 -399h-213l-258 383v35l258 383h213z" />
    <glyph glyph-name="guillemotright.cap" horiz-adv-x="964" 
d="M682 1098l258 -383v-35l-258 -383h-213l270 399l-270 402h213zM238 1098l258 -383v-35l-258 -383h-213l270 399l-270 402h213z" />
    <glyph glyph-name="germandbls.cap" horiz-adv-x="1292" 
d="M668 1460q162 0 276 -52t213 -155l-299 -405q162 -16 262 -126t100 -298t-131 -314q-132 -124 -374 -124q-88 0 -189 18l9 219q74 -23 187 -23t187 61q74 60 74 179t-97 184t-272 64l-34 103l282 389q-70 66 -199 66t-207 -80q-78 -79 -77 -216v-950h-232v944
q1 228 139 372t382 144z" />
    <glyph glyph-name="grave.cap" horiz-adv-x="548" 
d="M336 1735l192 -234h-227l-281 234h316z" />
    <glyph glyph-name="acute.cap" horiz-adv-x="548" 
d="M528 1735l-278 -234h-230l195 234h313z" />
    <glyph glyph-name="circumflex.cap" horiz-adv-x="778" 
d="M455 1743l303 -244h-252l-119 109l-117 -109h-250l304 244h131z" />
    <glyph glyph-name="caron.cap" horiz-adv-x="778" 
d="M758 1737l-303 -244h-131l-304 244h250l117 -109l119 109h252z" />
    <glyph glyph-name="tilde.cap" horiz-adv-x="735" 
d="M240 1772q74 0 120 -34t76 -68q31 -34 68 -34q76 0 76 117h135q1 -123 -55 -195t-164 -73q-74 0 -120 34q-46 33 -77 67t-68 34q-76 0 -75 -117h-136q0 123 56 196t164 73z" />
    <glyph glyph-name="dieresis.cap" horiz-adv-x="698" 
d="M549 1749q53 0 91 -37t38 -89t-38 -89t-91 -37t-90 36t-37 89t37 90t90 37zM149 1749q54 0 91 -37q36 -37 36 -89t-36 -89t-91 -37q-54 0 -92 36q-37 36 -37 89t37 90q38 37 92 37z" />
    <glyph glyph-name="macron.cap" horiz-adv-x="593" 
d="M573 1683v-170h-553v170h553z" />
    <glyph glyph-name="breve.cap" horiz-adv-x="661" 
d="M641 1759q0 -119 -87 -193t-224 -73q-137 0 -224 74q-86 74 -86 192h179q1 -53 35 -86t96 -33t96 33q35 33 35 86h180z" />
    <glyph glyph-name="ring.cap" horiz-adv-x="428" 
d="M214 1763q-34 -1 -56 -23t-21 -55q0 -33 23 -57q24 -24 56 -22q32 0 54 24t23 56q-1 32 -23 54t-56 23zM214 1884q89 0 146 -57q58 -57 58 -143t-58 -143q-58 -56 -146 -56q-89 0 -147 57q-59 57 -59 142q0 84 58 142t148 58z" />
    <glyph glyph-name="hungarumlaut.cap" horiz-adv-x="782" 
d="M762 1741l-199 -248h-188l155 248h232zM408 1741l-199 -248h-189l156 248h232z" />
    <glyph glyph-name="dotaccent.cap" horiz-adv-x="305" 
d="M152 1755q55 0 94 -37t39 -91t-39 -92t-94 -38t-94 38q-38 38 -38 92t38 91q39 37 94 37z" />
    <glyph glyph-name="aogonek.alt" horiz-adv-x="1247" 
d="M885 526q0 148 -88 238t-213 90t-207 -93t-82 -243t82 -243t208 -93t213 89t87 239v16zM558 1059q218 0 337 -170l14 147h191v-1036h-10q-137 -59 -138 -176q0 -51 28 -80t79 -29t84 17l31 -119q-43 -25 -136 -25t-162 62t-69 175q0 114 100 191l-12 129
q-117 -168 -336 -168t-354 155t-135 386t135 386t353 155z" />
    <glyph glyph-name="aringacute.alt" horiz-adv-x="1247" 
d="M688 1354q0 40 -28 68t-69 28q-42 0 -70 -28q-27 -28 -27 -68t28 -70q28 -29 69 -29t69 29t28 70zM592 1137q-98 0 -161 61q-62 62 -62 158t69 160l185 219h313l-231 -195q109 -55 108 -188q0 -92 -62 -154q-61 -62 -159 -61zM885 526q0 148 -88 238t-213 90t-207 -93
t-82 -243t82 -243t208 -93t213 89t87 239v16zM558 1059q218 0 337 -170l14 147h191v-1036h-191l-14 145q-117 -168 -336 -168t-354 155t-135 386t135 386t353 155z" />
    <glyph glyph-name="aacute.alt" horiz-adv-x="1247" 
d="M971 1499l-303 -323h-195l223 323h275zM885 526q0 148 -88 238t-213 90t-207 -93t-82 -243t82 -243t208 -93t213 89t87 239v16zM558 1059q218 0 337 -170l14 147h191v-1036h-191l-14 145q-117 -168 -336 -168t-354 155t-135 386t135 386t353 155z" />
    <glyph glyph-name="abreve.alt" horiz-adv-x="1247" 
d="M897 1456q0 -131 -87 -214t-224 -83t-224 83q-86 83 -86 214h179q-1 -66 35 -108t96 -43q60 0 95 43q36 43 36 108h180zM885 526q0 148 -88 238t-213 90t-207 -93t-82 -243t82 -243t208 -93t213 89t87 239v16zM558 1059q218 0 337 -170l14 147h191v-1036h-191l-14 145
q-117 -168 -336 -168t-354 155t-135 386t135 386t353 155z" />
    <glyph glyph-name="adieresis.alt" horiz-adv-x="1247" 
d="M795 1432q53 0 91 -36t38 -89t-38 -89t-91 -36t-90 36t-37 89t37 89t90 36zM394 1432q54 0 91 -36t37 -89t-37 -89t-91 -36t-91 36t-37 89t37 89t91 36zM885 526q0 148 -88 238t-213 90t-207 -93t-82 -243t82 -243t208 -93t213 89t87 239v16zM558 1059q218 0 337 -170
l14 147h191v-1036h-191l-14 145q-117 -168 -336 -168t-354 155t-135 386t135 386t353 155z" />
    <glyph glyph-name="agrave.alt" horiz-adv-x="1247" 
d="M467 1499l223 -323h-194l-303 323h274zM885 526q0 148 -88 238t-213 90t-207 -93t-82 -243t82 -243t208 -93t213 89t87 239v16zM558 1059q218 0 337 -170l14 147h191v-1036h-191l-14 145q-117 -168 -336 -168t-354 155t-135 386t135 386t353 155z" />
    <glyph glyph-name="amacron.alt" horiz-adv-x="1247" 
d="M866 1382v-170h-553v170h553zM885 526q0 148 -88 238t-213 90t-207 -93t-82 -243t82 -243t208 -93t213 89t87 239v16zM558 1059q218 0 337 -170l14 147h191v-1036h-191l-14 145q-117 -168 -336 -168t-354 155t-135 386t135 386t353 155z" />
    <glyph glyph-name="aring.alt" horiz-adv-x="1247" 
d="M885 526q0 148 -88 238t-213 90t-207 -93t-82 -243t82 -243t208 -93t213 89t87 239v16zM558 1059q218 0 337 -170l14 147h191v-1036h-191l-14 145q-117 -168 -336 -168t-354 155t-135 386t135 386t353 155zM680 1354q0 40 -28 68t-69 28q-42 0 -70 -28t-28 -68t28 -70
q28 -29 70 -29q41 0 69 29t28 70zM583 1569q97 1 159 -61t62 -155t-62 -155t-159 -61q-97 0 -160 61q-63 60 -63 154t63 156t160 61z" />
    <glyph glyph-name="atilde.alt" horiz-adv-x="1247" 
d="M463 1460q57 0 99 -22t62 -49q52 -74 103 -72q76 0 76 125h135q0 -125 -55 -201t-164 -76q-57 0 -99 23t-62 50q-50 73 -103 73q-76 0 -76 -127h-135q0 128 55 202t164 74zM885 526q0 148 -88 238t-213 90t-207 -93t-82 -243t82 -243t208 -93t213 89t87 239v16zM558 1059
q218 0 337 -170l14 147h191v-1036h-191l-14 145q-117 -168 -336 -168t-354 155t-135 386t135 386t353 155z" />
    <glyph glyph-name="gbreve.alt" horiz-adv-x="1249" 
d="M549 1059q217 0 336 -170l12 147h193v-1013q0 -217 -140 -351t-350 -135q-211 0 -344 93t-162 286h217q39 -180 275 -180q135 0 210 75t74 205v134q-43 -66 -129 -109t-200 -43q-207 0 -339 150t-132 381q0 232 131 381t348 149zM877 537q0 141 -89 228t-212 87t-202 -90
t-79 -234t81 -234q81 -89 203 -89q123 0 209 88t89 231v13zM889 1456q0 -131 -87 -214t-224 -83t-224 83q-86 83 -86 214h178q0 -66 36 -108t96 -43q60 0 95 43q36 43 36 108h180z" />
    <glyph glyph-name="gcircumflex.alt" horiz-adv-x="1249" 
d="M653 1499l281 -323h-229l-127 176l-129 -176h-230l283 323h151zM549 1059q217 0 336 -170l12 147h193v-1013q0 -217 -140 -351t-350 -135q-211 0 -344 93t-162 286h217q39 -180 275 -180q135 0 210 75t74 205v134q-43 -66 -129 -109t-200 -43q-207 0 -339 150t-132 381
q0 232 131 381t348 149zM877 537q0 141 -89 228t-212 87t-202 -90t-79 -234t81 -234q81 -89 203 -89q123 0 209 88t89 231v13z" />
    <glyph glyph-name="gcommaaccent.alt" horiz-adv-x="1249" 
d="M723 1292q0 -55 -41 -95t-100 -40t-100 41q-40 41 -40 111q0 190 158 374l68 -24q-55 -109 -68 -232q53 -6 88 -43t35 -92zM549 1059q217 0 336 -170l12 147h193v-1013q0 -217 -140 -351t-350 -135q-211 0 -344 93t-162 286h217q39 -180 275 -180q135 0 210 75t74 205
v134q-43 -66 -129 -109t-200 -43q-207 0 -339 150t-132 381q0 232 131 381t348 149zM877 537q0 141 -89 228t-212 87t-202 -90t-79 -234t81 -234q81 -89 203 -89q123 0 209 88t89 231v13z" />
    <glyph glyph-name="gdotaccent.alt" horiz-adv-x="1249" 
d="M578 1460q59 0 100 -40t41 -97t-41 -97t-100 -40t-100 40q-40 40 -40 97t40 97q41 40 100 40zM549 1059q217 0 336 -170l12 147h193v-1013q0 -217 -140 -351t-350 -135q-211 0 -344 93t-162 286h217q39 -180 275 -180q135 0 210 75t74 205v134q-43 -66 -129 -109
t-200 -43q-207 0 -339 150t-132 381q0 232 131 381t348 149zM877 537q0 141 -89 228t-212 87t-202 -90t-79 -234t81 -234q81 -89 203 -89q123 0 209 88t89 231v13z" />
    <glyph glyph-name="acircumflex.alt" horiz-adv-x="1247" 
d="M682 1499l281 -323h-230l-127 176l-129 -176h-229l282 323h152zM885 526q0 148 -88 238t-213 90t-207 -93t-82 -243t82 -243t208 -93t213 89t87 239v16zM558 1059q218 0 337 -170l14 147h191v-1036h-191l-14 145q-117 -168 -336 -168t-354 155t-135 386t135 386t353 155z
" />
    <glyph glyph-name="zero.tnum" horiz-adv-x="1155" 
d="M840 555q0 167 -71 267t-193 100t-192 -100t-71 -267q0 -166 71 -268q70 -103 192 -103t193 102t71 269zM576 1133q230 0 362 -158t133 -421q0 -263 -132 -422q-133 -159 -363 -159t-362 159t-132 422t132 421t362 158z" />
    <glyph glyph-name="one.tnum" horiz-adv-x="739" 
d="M592 1106v-1106h-230v745h-303v173q166 0 250 40t111 148h172z" />
    <glyph glyph-name="two.tnum" horiz-adv-x="1007" 
d="M514 1133q194 1 302 -105t108 -278q0 -203 -193 -361l-211 -174h420v-215h-844v131l461 375q70 57 101 107q32 50 32 126q0 178 -184 179q-86 0 -136 -54t-48 -162h-230q-2 195 113 313t309 118z" />
    <glyph glyph-name="three.tnum" horiz-adv-x="1101" 
d="M540 1133q196 0 308 -114t113 -286q-1 -117 -57 -191t-134 -104q100 -28 170 -114t70 -222q0 -186 -126 -301t-337 -115t-337 120q-126 118 -126 331h229q2 -119 69 -177t171 -58t164 56q59 56 59 153q0 223 -295 223h-63v201h61q129 0 190 45q60 45 60 139t-49 146
q-49 53 -137 53q-89 0 -145 -58t-56 -170h-229q0 205 115 324q116 119 312 119z" />
    <glyph glyph-name="four.tnum" horiz-adv-x="1138" 
d="M657 174v623l-41 -84l-319 -539h360zM885 1106v-930h192v-207h-192v-256h-232v256h-604v187l559 950h277z" />
    <glyph glyph-name="five.tnum" horiz-adv-x="1099" 
d="M952 1106v-215h-567v-334q78 45 207 45q194 0 314 -116t120 -326t-124 -341q-124 -132 -336 -132q-212 -1 -334 111t-121 319h231q2 -109 62 -162t166 -53t165 68t59 183q0 117 -60 181t-172 64t-206 -60h-204v768h800z" />
    <glyph glyph-name="six.tnum" horiz-adv-x="1130" 
d="M584 688q-100 0 -171 -68t-73 -167v-11q0 -102 68 -180t172 -78t170 73t66 181t-66 179t-166 71zM596 1419q182 1 300 -109t126 -292h-234q-14 186 -200 186q-127 0 -193 -108t-69 -344q38 61 116 101t170 40q197 0 318 -127t121 -330t-128 -333t-341 -130t-350 155
q-138 155 -138 534t122 568t380 189z" />
    <glyph glyph-name="seven.tnum" horiz-adv-x="1017" 
d="M946 1106v-186l-553 -1207h-250l541 1176h-608v217h870z" />
    <glyph glyph-name="eight.tnum" horiz-adv-x="1128" 
d="M563 1206q-88 0 -143 -53t-55 -141t55 -140t144 -53q89 0 145 52q55 51 55 139t-56 142q-57 54 -145 54zM801 398q0 96 -69 156t-168 60t-167 -58q-67 -58 -67 -158t66 -155q66 -57 169 -57q102 0 169 58t67 154zM139 1018q0 170 118 286t307 117t308 -117t119 -286
q0 -111 -50 -189t-116 -112q207 -102 207 -330q0 -178 -133 -295t-335 -117t-335 117t-133 295q0 123 58 206t149 124q-66 39 -115 116t-49 185z" />
    <glyph glyph-name="nine.tnum" horiz-adv-x="1130" 
d="M313 668q0 -108 66 -179t166 -71t170 66t73 169v11q0 102 -67 180q-68 78 -173 78t-170 -73t-65 -181zM532 -313q-182 -1 -300 109t-126 292h234q14 -186 201 -186q125 0 191 108t71 342q-39 -61 -118 -100t-169 -39q-198 0 -318 127t-120 330q0 202 128 332t341 130
t350 -154q137 -155 137 -534t-122 -568t-380 -189z" />
    <glyph glyph-name="zero.dnom" horiz-adv-x="757" 
d="M379 659q-133 0 -133 -258t133 -258t133 258t-133 258zM378 817q146 1 226 -109t80 -306t-80 -306t-226 -110t-225 110t-79 306t79 306t225 109z" />
    <glyph glyph-name="one.dnom" 
d="M414 803v-803h-170v559h-181v129q199 0 226 115h125z" />
    <glyph glyph-name="two.dnom" horiz-adv-x="661" 
d="M337 817q123 0 191 -63t68 -175t-109 -229l-176 -190h287v-160h-522v123l262 285q86 96 86 161q0 90 -92 90q-45 1 -72 -27t-27 -81h-170q-2 119 74 193t200 73z" />
    <glyph glyph-name="three.dnom" horiz-adv-x="720" 
d="M354 817q123 -1 194 -67q70 -66 70 -176t-106 -156q135 -43 135 -185q0 -115 -78 -181t-210 -66q-133 0 -209 68t-76 192h168q2 -51 36 -78t86 -27t82 28t31 73q0 104 -147 104h-51v137h49q121 0 121 92q0 39 -25 63t-68 24q-42 0 -70 -25t-28 -74h-170q0 119 72 187
t194 67z" />
    <glyph glyph-name="four.dnom" horiz-adv-x="759" 
d="M418 289v309l-23 -45l-164 -264h187zM586 803v-514h108v-150h-108v-139h-170v139h-363v135l322 529h211z" />
    <glyph glyph-name="five.dnom" horiz-adv-x="716" 
d="M606 803v-160h-330v-156q49 25 117 25q113 0 185 -63t72 -185t-78 -201q-76 -77 -208 -77t-207 66t-75 186h168q2 -94 115 -95q55 0 86 32t30 85q0 53 -30 84q-31 31 -88 31t-107 -29h-150v457h500z" />
    <glyph glyph-name="six.dnom" horiz-adv-x="735" 
d="M492 250q0 50 -34 80t-84 30t-86 -28t-38 -70v-8q0 -45 35 -79t88 -34t86 30t33 79zM385 817q115 -1 189 -67t75 -177h-170q-12 86 -102 86q-135 0 -135 -215q56 58 168 58t183 -69t71 -185t-79 -190q-79 -72 -211 -72t-218 93t-86 308q0 430 315 430z" />
    <glyph glyph-name="seven.dnom" horiz-adv-x="638" 
d="M590 803v-135l-316 -668h-184l303 641h-338v162h535z" />
    <glyph glyph-name="eight.dnom" horiz-adv-x="727" 
d="M264 573q0 -41 28 -67t72 -27q44 0 72 27q28 28 27 68q1 40 -27 67t-72 27t-72 -27t-28 -68zM364 344q-50 0 -84 -30t-34 -76t35 -74q35 -29 84 -29t84 29t35 75q0 45 -36 75q-34 30 -84 30zM96 574q0 104 74 174t194 69q120 1 194 -69t73 -173q0 -103 -92 -163
q115 -61 115 -174t-84 -183q-84 -69 -206 -69t-206 70t-84 184q0 116 114 172q-92 58 -92 162z" />
    <glyph glyph-name="nine.dnom" horiz-adv-x="735" 
d="M362 436q51 0 88 33q36 33 36 79t-35 80t-87 34t-86 -33t-34 -80t34 -80t84 -33zM358 817q306 0 308 -401q0 -430 -314 -430q-118 0 -190 66t-74 177h170q12 -86 100 -86q133 0 136 217q-57 -53 -168 -53t-183 67q-71 66 -71 182t78 188t208 73z" />
    <glyph glyph-name="zero.subs" horiz-adv-x="757" 
d="M379 455q-133 0 -133 -258t133 -258t133 258t-133 258zM378 612q146 0 226 -110t80 -304q0 -196 -80 -307t-226 -111t-225 112q-79 110 -79 306t79 305t225 109z" />
    <glyph glyph-name="one.subs" 
d="M414 598v-803h-170v559h-181v129q199 0 226 115h125z" />
    <glyph glyph-name="two.subs" horiz-adv-x="661" 
d="M337 612q123 0 191 -63t68 -175t-109 -229l-176 -190h287v-160h-522v123l262 285q86 96 86 162q0 90 -92 90q-45 0 -72 -28t-27 -81h-170q-2 118 74 192t200 74z" />
    <glyph glyph-name="three.subs" horiz-adv-x="720" 
d="M354 612q123 0 194 -66q70 -66 70 -178q0 -110 -106 -155q135 -43 135 -184q0 -115 -78 -182t-210 -67q-133 0 -209 70q-76 68 -76 191h168q2 -51 36 -78t86 -27t82 28t31 73q0 104 -147 104h-51v138h49q121 0 121 92q0 39 -25 63t-68 23q-42 0 -70 -25t-28 -74h-170
q0 118 72 186t194 68z" />
    <glyph glyph-name="four.subs" horiz-adv-x="759" 
d="M418 84v309l-23 -45l-164 -264h187zM586 598v-514h108v-150h-108v-139h-170v139h-363v136l322 528h211z" />
    <glyph glyph-name="five.subs" horiz-adv-x="716" 
d="M606 598v-160h-330v-155q49 25 117 24q113 0 185 -63q72 -64 72 -186t-78 -200q-76 -78 -208 -77q-132 -1 -207 65t-75 187h168q2 -94 115 -94q55 -1 86 31t30 85q0 53 -30 84q-31 31 -88 31t-107 -29h-150v457h500z" />
    <glyph glyph-name="six.subs" horiz-adv-x="735" 
d="M374 156q-50 0 -86 -28t-38 -71v-8q0 -45 35 -79t88 -34t86 30t33 79t-34 80t-84 31zM385 612q115 0 189 -66t75 -177h-170q-12 86 -102 86q-135 0 -135 -215q56 57 168 57t183 -69q71 -70 71 -186t-79 -188t-211 -73q-132 0 -218 93t-86 308q0 430 315 430z" />
    <glyph glyph-name="seven.subs" horiz-adv-x="638" 
d="M590 598v-135l-316 -668h-184l303 641h-338v162h535z" />
    <glyph glyph-name="eight.subs" horiz-adv-x="727" 
d="M463 369q1 41 -27 67t-72 27q-44 0 -72 -27q-28 -28 -28 -68t28 -67t72 -27t72 27t27 68zM364 139q-50 1 -84 -29t-34 -76t35 -75t84 -29t84 29t35 75t-35 76q-35 29 -85 29zM96 370q0 104 74 172q74 70 194 70t194 -70t73 -172q0 -103 -92 -163q115 -61 115 -173
t-84 -184q-84 -70 -206 -70t-206 70t-84 186t114 171q-92 59 -92 163z" />
    <glyph glyph-name="nine.subs" horiz-adv-x="735" 
d="M362 231q51 0 88 33q36 33 36 79t-35 80t-87 34t-86 -33t-34 -80t34 -80t84 -33zM358 612q306 0 308 -401q0 -430 -314 -430q-118 1 -190 67t-74 177h170q12 -86 100 -86q133 0 136 217q-57 -54 -168 -54t-183 67q-71 67 -71 183t78 188t208 72z" />
    <glyph glyph-name="zero.numr" horiz-adv-x="757" 
d="M379 1290q-133 0 -133 -258t133 -258t133 258t-133 258zM74 1034q0 196 79 304q79 110 225 110t226 -110t80 -306t-80 -306t-226 -110t-225 111t-79 307z" />
    <glyph glyph-name="one.numr" 
d="M414 1434v-803h-170v559h-181v129q199 0 226 115h125z" />
    <glyph glyph-name="two.numr" horiz-adv-x="661" 
d="M337 1448q123 0 191 -64t68 -175q0 -112 -109 -228l-176 -190h287v-160h-522v123l262 284q86 96 86 162q0 90 -92 90q-45 0 -72 -28t-27 -80h-170q-2 118 74 192t200 74z" />
    <glyph glyph-name="three.numr" horiz-adv-x="720" 
d="M354 1448q123 0 194 -67q70 -67 70 -177t-106 -155q135 -43 135 -185q0 -116 -78 -182t-210 -66q-133 0 -209 69t-76 192h168q2 -51 36 -78t86 -27t82 28t31 72q0 104 -147 105h-51v137h49q121 0 121 92q0 39 -25 63q-25 23 -68 23q-42 0 -70 -24t-28 -74h-170
q0 118 72 186t194 68z" />
    <glyph glyph-name="four.numr" horiz-adv-x="759" 
d="M418 920v309l-23 -45l-164 -264h187zM586 1434v-514h108v-150h-108v-139h-170v139h-363v135l322 529h211z" />
    <glyph glyph-name="five.numr" horiz-adv-x="716" 
d="M606 1434v-160h-330v-156q49 25 117 25q113 1 185 -63t72 -186t-78 -200q-76 -78 -208 -78t-207 66t-75 186h168q2 -94 115 -94q55 0 86 32t30 85q0 53 -30 84q-31 31 -88 31t-107 -29h-150v457h500z" />
    <glyph glyph-name="six.numr" horiz-adv-x="735" 
d="M492 881q0 49 -34 79t-84 31t-86 -27t-38 -71v-8q0 -45 35 -79t88 -34t86 30t33 79zM385 1448q115 0 189 -67t75 -177h-170q-12 86 -102 86q-135 0 -135 -215q56 57 168 57t183 -68q71 -70 71 -186t-79 -189t-211 -73t-218 93t-86 309q0 430 315 430z" />
    <glyph glyph-name="seven.numr" horiz-adv-x="638" 
d="M590 1434v-136l-316 -667h-184l303 641h-338v162h535z" />
    <glyph glyph-name="eight.numr" horiz-adv-x="727" 
d="M264 1204q0 -42 28 -68t72 -26t72 27t27 67q1 40 -27 68q-28 26 -72 26t-72 -26t-28 -68zM364 975q-50 0 -84 -30t-34 -76q0 -47 35 -75t84 -28t84 29t35 75t-35 75q-35 30 -85 30zM364 1448q120 0 194 -70t73 -173q0 -103 -92 -163q115 -62 115 -174t-84 -182t-206 -70
t-206 70t-84 186t114 170q-92 58 -92 162t74 174t194 70z" />
    <glyph glyph-name="nine.numr" horiz-adv-x="735" 
d="M362 1067q51 0 88 33q36 33 36 79q0 45 -36 79q-34 34 -86 34t-86 -32t-34 -80q0 -47 34 -80t84 -33zM358 1448q306 0 308 -401q0 -430 -314 -431q-118 0 -190 67t-74 177h170q12 -86 100 -86q133 0 136 217q-57 -53 -168 -53t-183 67q-71 67 -71 183t78 188t208 72z" />
    <glyph glyph-name="zero.lnum" horiz-adv-x="1177" 
d="M590 1245q-129 0 -196 -138q-66 -138 -66 -389t66 -390q66 -140 196 -140q128 0 194 140t66 390q0 251 -66 389t-194 138zM590 1460q238 0 366 -198t127 -544q0 -347 -129 -546q-130 -199 -366 -199t-365 200t-129 546q0 345 129 543t367 198z" />
    <glyph glyph-name="one.lnum" horiz-adv-x="1177" 
d="M778 1434v-1229h271v-205h-773v205h273v846h-303v194q170 0 253 41t107 148h172z" />
    <glyph glyph-name="two.lnum" horiz-adv-x="1177" 
d="M604 1460q197 0 303 -110t107 -295q0 -117 -45 -214t-131 -204l-336 -422h536v-215h-854v168l451 555q80 96 114 166t33 155q0 201 -182 201q-90 0 -144 -58t-53 -177h-229q-4 206 114 328t316 122z" />
    <glyph glyph-name="three.lnum" horiz-adv-x="1177" 
d="M164 1018q0 206 114 324t311 118t309 -116t112 -293q0 -121 -56 -199t-133 -107q100 -29 169 -117t69 -229q0 -193 -126 -309t-337 -117q-211 0 -336 119t-125 332h230q-1 -119 65 -177q66 -59 171 -59t165 60t61 167q0 108 -76 167q-77 59 -221 59h-63v201h61
q129 0 191 48q61 48 61 147t-49 153t-137 55q-88 0 -144 -57t-57 -170h-229z" />
    <glyph glyph-name="four.lnum" horiz-adv-x="1177" 
d="M676 481v647l-41 -84l-311 -563h352zM903 1434v-951h193v-207h-193v-276h-229v276h-596v187l547 971h278z" />
    <glyph glyph-name="five.lnum" horiz-adv-x="1177" 
d="M993 1434v-215h-567v-357q86 47 217 47q190 -1 308 -117t118 -333t-125 -351t-337 -134t-333 110q-121 111 -120 319h229q4 -213 229 -215q107 0 166 72t60 191q0 119 -62 185t-175 66q-114 0 -202 -59h-204v791h798z" />
    <glyph glyph-name="six.lnum" horiz-adv-x="1177" 
d="M610 688q-100 0 -171 -68t-72 -167v-11q-1 -102 67 -180t173 -78t170 73t65 181t-66 179t-166 71zM616 -27q-497 0 -497 711q0 388 123 582t381 194q182 0 300 -114t126 -299h-234q-14 199 -201 198q-126 1 -192 -113t-70 -362q41 53 117 88t166 35q203 0 321 -126
t119 -330q0 -204 -127 -334t-332 -130z" />
    <glyph glyph-name="seven.lnum" horiz-adv-x="1177" 
d="M1044 1434v-187l-550 -1247h-250l538 1217h-628v217h890z" />
    <glyph glyph-name="eight.lnum" horiz-adv-x="1177" 
d="M588 1247q-88 0 -144 -57q-56 -58 -55 -150q0 -92 55 -147q54 -55 144 -55t145 55t55 147t-56 150t-144 57zM588 635q-98 -1 -168 -63t-70 -164t69 -162t169 -62q100 0 169 60t69 164q0 102 -70 164t-168 63zM162 1047q0 173 118 293t307 120t308 -120t119 -293
q0 -113 -50 -194t-116 -118q86 -39 147 -122t62 -212q0 -184 -135 -306t-335 -122t-334 122t-134 306q0 123 59 210t148 124q-66 39 -115 120t-49 192z" />
    <glyph glyph-name="nine.lnum" horiz-adv-x="1177" 
d="M570 1249q-105 -1 -170 -73q-64 -72 -64 -180t66 -180q66 -71 166 -71q101 0 172 71t71 174t-68 181t-173 78zM555 -27q-182 0 -300 114t-126 300h233q14 -199 201 -199q127 0 193 113t69 363q-41 -52 -117 -88t-165 -35q-203 0 -322 126q-119 125 -119 329t127 334
t341 130t341 -145q147 -172 147 -562t-122 -585q-123 -195 -381 -195z" />
    <glyph glyph-name="b.sups" horiz-adv-x="929" 
d="M488 1298q-81 0 -136 -53t-61 -145v-25q0 -92 58 -144t140 -52t137 57q54 57 54 151t-55 153q-56 58 -137 58zM293 1751v-391q80 96 226 96q145 0 241 -105t96 -263t-95 -262q-95 -105 -243 -105t-235 110l-11 -96h-147v1016h168z" />
    <glyph glyph-name="c.sups" horiz-adv-x="843" 
d="M72 1085q0 163 102 267t246 104t234 -66q89 -66 110 -192h-162q-41 104 -164 105q-82 -1 -136 -61t-54 -154t54 -153q54 -61 124 -61t116 29q44 29 58 76h166q-25 -125 -115 -192t-217 -66q-160 0 -261 101t-101 263z" />
    <glyph glyph-name="d.sups" horiz-adv-x="929" 
d="M440 1298q-82 0 -137 -58t-55 -152t54 -151q54 -58 137 -58t142 52q58 52 58 144v25q-2 92 -59 145q-58 53 -140 53zM805 1751v-1016h-148l-10 96q-88 -111 -235 -111t-244 106q-96 105 -96 262q0 156 95 262t243 106t225 -96v391h170z" />
    <glyph glyph-name="e.sups" horiz-adv-x="847" 
d="M425 1311q-77 0 -125 -44t-52 -110h346q0 70 -46 112t-123 42zM760 958q-70 -237 -346 -237q-144 0 -243 100t-99 264q0 163 99 267t255 104t249 -93t93 -273v-56h-520q4 -76 55 -121t133 -45q123 0 158 90h166z" />
    <glyph glyph-name="f.sups" horiz-adv-x="550" 
d="M166 1524q0 241 248 241q68 0 98 -12v-151q-33 16 -78 16q-98 0 -98 -100v-76h170v-154h-172v-553h-168v553h-119v154h119v82z" />
    <glyph glyph-name="g.sups" horiz-adv-x="811" 
d="M398 1333q-58 0 -94 -35t-36 -91t36 -91t93 -35t95 35q36 35 36 91t-35 91q-37 35 -95 35zM463 739h-125q-34 -5 -58 -29t-24 -63q0 -104 162 -104t162 108q0 41 -32 65t-85 23zM770 1442v-146h-98q18 -43 18 -90q0 -106 -82 -175t-207 -68q-74 0 -135 22
q-23 -18 -22 -57q0 -66 78 -66h184q111 0 174 -53t63 -159t-87 -168q-86 -62 -240 -62t-240 55t-86 151t76 138q-86 59 -86 150t74 147q-52 61 -52 157t85 168q85 70 214 70q47 0 101 -14h268z" />
    <glyph glyph-name="h.sups" horiz-adv-x="849" 
d="M293 1751v-389q27 41 81 68t120 26q115 0 178 -71t63 -191v-459h-170v416q0 141 -123 141q-63 0 -106 -46t-43 -130v-381h-168v1016h168z" />
    <glyph glyph-name="i.sups" horiz-adv-x="425" 
d="M213 1751q43 0 74 -30q31 -29 31 -71t-32 -73q-30 -31 -73 -31t-74 31t-31 73t32 72q30 30 73 29zM297 1442v-707h-170v707h170z" />
    <glyph glyph-name="j.sups" horiz-adv-x="425" 
d="M212 1751q44 0 75 -30q31 -29 31 -71t-32 -73t-75 -31t-73 30t-30 74t30 72t74 29zM297 1442v-748q0 -274 -238 -274q-68 0 -110 14v152q37 -12 85 -12q93 -1 93 124v744h170z" />
    <glyph glyph-name="k.sups" horiz-adv-x="806" 
d="M299 1751v-606l229 297h201l-219 -295l258 -412h-193l-182 279l-94 -113v-166h-166v1016h166z" />
    <glyph glyph-name="l.sups" horiz-adv-x="425" 
d="M297 1751v-1016h-168v1016h168z" />
    <glyph glyph-name="m.sups" horiz-adv-x="1277" 
d="M928 1456q113 0 174 -71t61 -191v-459h-168v414q0 143 -118 143q-59 0 -101 -41t-45 -118v-398h-170v414q0 143 -121 143q-61 0 -104 -46t-43 -130v-381h-168v707h147l11 -94q27 48 82 78t127 30q154 0 213 -127q27 55 86 91t137 36z" />
    <glyph glyph-name="o.sups" horiz-adv-x="901" 
d="M452 1303q-88 -1 -146 -61t-58 -153t56 -153t146 -62q90 0 147 62q56 62 56 154t-56 152t-145 61zM450 1456q165 0 271 -102t106 -266t-106 -265q-106 -102 -271 -102t-272 102q-106 102 -106 265t106 266q107 102 272 102z" />
    <glyph glyph-name="p.sups" horiz-adv-x="935" 
d="M497 1298q-83 0 -141 -52t-59 -144v-25q2 -92 60 -145q57 -53 139 -53t137 58q55 57 55 151t-54 152t-137 58zM524 1456q150 0 244 -105q96 -105 96 -262t-95 -263t-241 -105q-146 0 -227 96v-381h-170v1006h148l12 -96q83 110 233 110z" />
    <glyph glyph-name="q.sups" horiz-adv-x="935" 
d="M439 1298q-83 0 -137 -58t-54 -151t55 -151t137 -59q82 0 140 53q57 53 59 145v25q0 92 -58 144q-59 52 -142 52zM412 1456q148 0 235 -110l10 96h148v-1006h-170v381q-78 -96 -225 -96t-243 105q-95 104 -95 262t96 263t244 105z" />
    <glyph glyph-name="r.sups" horiz-adv-x="575" 
d="M516 1448v-168q-98 0 -158 -49t-59 -133v-363h-166v707h143l15 -109q55 115 225 115z" />
    <glyph glyph-name="s.sups" horiz-adv-x="718" 
d="M352 1456q121 0 196 -60t77 -161h-170q-5 80 -99 80t-94 -70q0 -37 29 -54t133 -37q219 -42 219 -208q0 -113 -81 -169t-207 -56q-125 0 -201 61t-80 166h170q2 -86 123 -86q47 0 75 20t29 55q0 34 -31 53t-116 36q-233 41 -234 207q0 95 70 159t192 64z" />
    <glyph glyph-name="t.sups" horiz-adv-x="581" 
d="M508 1442v-156h-172l-2 -303q0 -57 20 -81t74 -24t80 9v-146q-45 -16 -115 -16q-117 0 -174 52t-55 165l2 344h-123v156h125l2 170h168l-2 -170h172z" />
    <glyph glyph-name="u.sups" horiz-adv-x="839" 
d="M717 1442v-707h-148l-10 92q-25 -43 -79 -75t-130 -31q-113 0 -174 70t-61 190v461h168v-420q-1 -68 31 -104t90 -35q58 0 101 44q42 44 42 124v391h170z" />
    <glyph glyph-name="v.sups" horiz-adv-x="784" 
d="M743 1442l-266 -707h-172l-264 707h180l158 -449l12 -59l17 59l155 449h180z" />
    <glyph glyph-name="w.sups" horiz-adv-x="1163" 
d="M1122 1442l-221 -707h-176l-143 432l-152 -432h-166l-223 707h180l121 -441l16 -71l15 71l135 441h147l133 -441l17 -71l14 71l121 441h182z" />
    <glyph glyph-name="x.sups" horiz-adv-x="804" 
d="M741 1442l-223 -346l236 -361h-197l-154 232l-155 -232h-197l238 361l-226 346h197l143 -217l144 217h194z" />
    <glyph glyph-name="y.sups" horiz-adv-x="788" 
d="M743 1442l-378 -1006h-177l113 309l-260 697h180l158 -449l12 -59l17 59l155 449h180z" />
    <glyph glyph-name="z.sups" horiz-adv-x="727" 
d="M645 1442v-129l-344 -430h365v-148h-590v127l344 430h-342v150h567z" />
    <glyph glyph-name="a.sups" horiz-adv-x="786" 
d="M256 932q0 -31 24 -49t64 -19q92 0 133 60q31 41 31 90v28l-166 -30q-86 -18 -86 -80zM394 1456q130 0 206 -66t76 -190v-465h-146l-8 82q-78 -96 -215 -96q-100 0 -160 53q-59 53 -59 146q0 174 221 210l199 37v29q0 111 -117 111q-53 0 -86 -26t-33 -73h-166
q6 112 82 180t206 68z" />
    <glyph glyph-name="g.alt.sups" horiz-adv-x="927" 
d="M404 1456q148 0 235 -113l10 99h148v-690q1 -150 -99 -241t-252 -91t-246 66q-95 66 -112 200h166q25 -113 182 -113q90 -1 140 47t51 128v86q-85 -96 -227 -96t-235 100q-93 102 -93 260t92 258t240 100zM631 1108q-1 90 -59 140t-139 50t-133 -55t-52 -145t53 -146
t133 -55q80 0 138 50t59 138v23z" />
    <glyph glyph-name="a.alt.sups" horiz-adv-x="929" 
d="M439 1298q-83 0 -137 -58t-54 -152t54 -151q54 -58 137 -58t142 52q58 52 58 144v27q0 92 -58 144q-59 52 -142 52zM412 1456q150 0 235 -110l10 96h148v-707h-148l-10 96q-86 -111 -234 -111t-245 106q-96 105 -96 262t95 263q95 105 245 105z" />
    <glyph glyph-name="g_i.alt" horiz-adv-x="1222" 
d="M612 1407q-186 0 -301 -123t-115 -309t116 -309q114 -123 300 -123t300 123t114 310t-114 309t-300 122zM612 1534q246 0 398 -158t152 -402t-152 -401t-398 -157t-398 158t-153 401q1 243 153 401t398 158z" />
    <glyph glyph-name="zero.slash" horiz-adv-x="1155" 
d="M578 1245q-129 0 -195 -138t-66 -388q0 -166 29 -287l391 731q-63 82 -159 82zM578 188q128 0 194 140t66 349q0 210 -31 327l-391 -734q63 -82 162 -82zM578 1460q236 0 364 -198t129 -544q0 -345 -129 -545q-128 -200 -364 -200t-365 200t-129 545q0 346 129 544
t365 198z" />
    <glyph glyph-name="L_a_r_s_s_e_i_t" horiz-adv-x="6361" 
d="M5354 1485q58 0 100 -41t41 -98q0 -56 -41 -96q-40 -40 -100 -40t-100 39t-40 97t41 99q41 40 99 40zM1354 283q0 -53 37 -85t104 -32q125 0 188 100q49 70 50 164v37l-248 -53q-131 -29 -131 -131zM4525 868q-117 0 -191 -72t-84 -184h534q-2 116 -72 186t-187 70z
M5462 1036v-1036h-217v1036h217zM2744 1047v-220q-127 1 -211 -71t-86 -217v-539h-217v1036h191l18 -176q29 80 105 134t200 53zM6294 1036v-200h-254l-5 -492q0 -86 31 -123t105 -37t123 17v-193q-59 -23 -160 -22q-160 0 -239 74t-77 237l4 539h-182v200h182l3 254h219
l-2 -254h252zM381 1434v-1219h620v-215h-849v1434h229zM1567 1059q178 0 281 -97t104 -280v-682h-193l-10 135q-94 -158 -305 -158q-139 0 -224 79t-85 216q0 248 303 306l295 53v47q0 186 -170 186q-80 0 -133 -44t-54 -120h-211q6 156 115 258t287 101zM4521 1059
q220 0 351 -137t131 -396v-84h-755q8 -124 87 -198t199 -74q190 0 248 147h213q-49 -163 -168 -251t-299 -89q-225 -1 -365 147q-141 148 -141 389t140 393t359 153zM3375 1509v-206q-205 0 -205 -224v-43h672v-174l-266 -416q170 -26 270 -148t100 -284q0 -217 -122 -341
t-359 -124q-86 0 -174 17l6 219q90 -23 148 -23q127 0 199 64t71 183q0 120 -80 186t-213 65h-96v152l266 424h-422v-836h-229v1075q0 434 434 434z" />
    <glyph glyph-name="A.smcp" horiz-adv-x="1202" 
d="M602 840l-22 -64l-142 -354h328l-143 354zM723 1104l446 -1104h-241l-99 242h-456l-97 -242h-243l446 1104h244z" />
    <glyph glyph-name="B.smcp" horiz-adv-x="1019" 
d="M502 905h-137v-258h141q68 0 108 35t39 94t-41 94t-110 35zM553 471h-188v-272h188q74 -1 118 35t44 100t-43 100q-43 37 -119 37zM504 1104q174 0 275 -85t101 -227t-100 -221q78 -31 122 -93t44 -150q0 -148 -104 -238t-283 -90h-418v1104h363z" />
    <glyph glyph-name="C.smcp" horiz-adv-x="1224" 
d="M645 1124q209 0 337 -101t177 -278h-246q-61 172 -268 173q-147 0 -238 -102t-91 -263q0 -160 90 -263q92 -103 241 -104q213 0 281 183h235q-98 -389 -516 -389q-251 0 -407 162t-156 410t156 410t405 162z" />
    <glyph glyph-name="D.smcp" horiz-adv-x="1247" 
d="M569 895h-204v-686h204q174 0 269 90q94 90 94 254t-94 253q-95 89 -269 89zM569 1104q270 0 431 -153t161 -399t-161 -400q-161 -152 -431 -152h-428v1104h428z" />
    <glyph glyph-name="E.smcp" horiz-adv-x="899" 
d="M801 1104v-205h-436v-237h376v-197h-376v-260h436v-205h-660v1104h660z" />
    <glyph glyph-name="F.smcp" horiz-adv-x="854" 
d="M791 1104v-205h-426v-254h360v-196h-360v-449h-224v1104h650z" />
    <glyph glyph-name="G.smcp" horiz-adv-x="1290" 
d="M655 1124q209 0 342 -101t183 -275h-246q-70 172 -283 172q-147 0 -240 -102t-93 -264q0 -161 94 -265q96 -105 236 -105q283 -1 304 219h-276v191h512v-92q0 -246 -144 -384t-390 -138t-407 162t-161 410t160 410t409 162z" />
    <glyph glyph-name="H.smcp" horiz-adv-x="1224" 
d="M1083 1104v-1104h-225v467h-493v-467h-224v1104h224v-428h493v428h225z" />
    <glyph glyph-name="I.smcp" horiz-adv-x="505" 
d="M365 1104v-1104h-224v1104h224z" />
    <glyph glyph-name="J.smcp" horiz-adv-x="905" 
d="M778 1104v-754q0 -172 -95 -266t-267 -94t-265 101t-98 278h223q6 -168 146 -168q133 0 133 157v746h223z" />
    <glyph glyph-name="K.smcp" horiz-adv-x="1167" 
d="M369 0h-224v1104h224v-555l405 555h270l-358 -496l434 -608h-268l-322 434l-161 -198v-236z" />
    <glyph glyph-name="L.smcp" horiz-adv-x="890" 
d="M365 1104v-895h479v-209h-703v1104h224z" />
    <glyph glyph-name="M.smcp" horiz-adv-x="1507" 
d="M1368 1104v-1104h-225v700l-33 -106l-266 -594h-180l-265 594l-34 106v-700h-224v1104h258l330 -709l25 -63l24 63l332 709h258z" />
    <glyph glyph-name="N.smcp" horiz-adv-x="1247" 
d="M1106 1104v-1104h-221l-475 662l-45 73v-735h-224v1104h224l473 -664l45 -75v739h223z" />
    <glyph glyph-name="O.smcp" horiz-adv-x="1327" 
d="M663 918q-159 0 -253 -102t-94 -263q0 -162 94 -264q96 -103 254 -103t252 102t94 265q0 161 -94 263t-253 102zM664 1124q256 0 418 -160t161 -411q0 -250 -162 -412q-161 -161 -417 -161t-418 162t-162 411q0 251 162 411t418 160z" />
    <glyph glyph-name="P.smcp" horiz-adv-x="972" 
d="M510 901h-145v-309h145q80 0 127 41t47 113t-47 114q-47 41 -127 41zM510 1104q184 0 294 -99t110 -259t-110 -258q-110 -99 -294 -99h-145v-389h-224v1104h369z" />
    <glyph glyph-name="Q.smcp" horiz-adv-x="1331" 
d="M1010 559q0 155 -94 257t-253 102t-253 -102t-94 -263q0 -162 94 -264q96 -102 254 -103q37 0 73 7l-155 157h303l43 -45q82 98 82 254zM664 1124q256 0 418 -160t161 -409q0 -248 -158 -410l287 -286h-301l-166 166q-113 -45 -241 -45q-256 0 -418 162t-162 411
q0 251 162 411t418 160z" />
    <glyph glyph-name="R.smcp" horiz-adv-x="978" 
d="M492 899h-127v-297h127q82 0 128 38t46 110t-46 110t-128 39zM492 1104q184 0 294 -97t109 -257q0 -203 -186 -291l235 -459h-250l-209 416h-120v-416h-224v1104h351z" />
    <glyph glyph-name="S.smcp" horiz-adv-x="935" 
d="M467 1124q164 0 259 -85t103 -240h-221q0 69 -39 105t-102 36t-98 -33t-35 -92t43 -90t191 -81t220 -127q74 -77 74 -219t-106 -230t-286 -88t-283 98t-105 256h219q10 -170 180 -170q74 0 116 37t42 93t-47 92q-48 36 -186 81t-218 120t-80 214t98 231q97 92 261 92z
" />
    <glyph glyph-name="T.smcp" horiz-adv-x="1013" 
d="M991 1104v-209h-373v-895h-223v895h-372v209h968z" />
    <glyph glyph-name="U.smcp" horiz-adv-x="1185" 
d="M1059 1104v-660q0 -221 -122 -343q-122 -121 -344 -121t-344 122t-122 342v660h225v-660q0 -258 241 -258t241 258v660h225z" />
    <glyph glyph-name="V.smcp" horiz-adv-x="1167" 
d="M1137 1104l-449 -1104h-213l-446 1104h235l293 -723l23 -76l26 76l293 723h238z" />
    <glyph glyph-name="W.smcp" horiz-adv-x="1660" 
d="M1626 1104l-348 -1104h-236l-196 643l-15 74l-16 -74l-197 -643h-233l-350 1104h235l222 -707l14 -80l16 80l207 707h205l209 -707l12 -80l19 80l217 707h235z" />
    <glyph glyph-name="X.smcp" horiz-adv-x="1181" 
d="M1118 1104l-375 -545l385 -559h-262l-278 395l-275 -395h-262l387 559l-375 545h263l262 -381l268 381h262z" />
    <glyph glyph-name="Y.smcp" horiz-adv-x="1142" 
d="M682 0h-223v410l-434 694h258l247 -399l41 -76l41 76l248 399h256l-434 -694v-410z" />
    <glyph glyph-name="Z.smcp" horiz-adv-x="1009" 
d="M913 1104v-182l-546 -713h569v-209h-856v182l551 713h-547v209h829z" />
    <glyph glyph-name="Agrave.smcp" horiz-adv-x="1202" 
d="M602 840l-22 -64l-142 -354h328l-143 354zM723 1104l446 -1104h-241l-99 242h-456l-97 -242h-243l446 1104h244zM483 1561l224 -324h-195l-303 324h274z" />
    <glyph glyph-name="Aacute.smcp" horiz-adv-x="1202" 
d="M602 840l-22 -64l-142 -354h328l-143 354zM723 1104l446 -1104h-241l-99 242h-456l-97 -242h-243l446 1104h244zM985 1561l-303 -324h-195l224 324h274z" />
    <glyph glyph-name="Acircumflex.smcp" horiz-adv-x="1202" 
d="M680 1561l281 -324h-230l-127 176l-129 -176h-229l282 324h152zM602 840l-22 -64l-142 -354h328l-143 354zM723 1104l446 -1104h-241l-99 242h-456l-97 -242h-243l446 1104h244z" />
    <glyph glyph-name="Atilde.smcp" horiz-adv-x="1202" 
d="M602 840l-22 -64l-142 -354h328l-143 354zM723 1104l446 -1104h-241l-99 242h-456l-97 -242h-243l446 1104h244zM475 1522q57 0 99 -23t62 -49q51 -72 103 -72q76 0 76 125h135q0 -125 -55 -201t-164 -75q-57 1 -99 23t-62 49q-51 75 -103 73q-76 0 -76 -127h-135
q0 127 55 202t164 75z" />
    <glyph glyph-name="Adieresis.smcp" horiz-adv-x="1202" 
d="M803 1493q53 0 91 -36t38 -89t-38 -89t-91 -36t-90 36t-37 89t37 89t90 36zM402 1493q54 0 92 -36t36 -89q0 -53 -36 -89t-92 -36q-54 0 -91 36t-37 89t37 89t91 36zM602 840l-22 -64l-142 -354h328l-143 354zM723 1104l446 -1104h-241l-99 242h-456l-97 -242h-243
l446 1104h244z" />
    <glyph glyph-name="Amacron.smcp" horiz-adv-x="1202" 
d="M879 1444v-170h-553v170h553zM602 840l-22 -64l-142 -354h328l-143 354zM723 1104l446 -1104h-241l-99 242h-456l-97 -242h-243l446 1104h244z" />
    <glyph glyph-name="Abreve.smcp" horiz-adv-x="1202" 
d="M602 840l-22 -64l-142 -354h328l-143 354zM723 1104l446 -1104h-241l-99 242h-456l-97 -242h-243l446 1104h244zM913 1518q0 -131 -87 -214t-224 -83t-223 83t-86 214h178q0 -66 36 -109t95 -43t95 43t36 109h180z" />
    <glyph glyph-name="Aring.smcp" horiz-adv-x="1202" 
d="M602 840l-22 -64l-142 -354h328l-143 354zM723 1104l446 -1104h-241l-99 242h-456l-97 -242h-243l446 1104h244zM601 1511q-42 1 -70 -27q-27 -28 -27 -69t28 -69t69 -29q42 0 70 29q27 30 27 70t-27 68q-28 27 -70 27zM601 1630q97 0 159 -61t63 -155q0 -94 -62 -154
q-61 -62 -159 -62t-160 62t-63 154q0 93 62 155q63 61 160 61z" />
    <glyph glyph-name="Aringacute.smcp" horiz-adv-x="1202" 
d="M597 1495q-42 0 -70 -28q-27 -29 -27 -69t28 -69t69 -29q42 0 70 29t27 70q0 41 -28 69t-69 27zM602 840l-22 -64l-142 -354h328l-143 354zM598 1182q-98 0 -161 61q-62 61 -62 157t69 161l185 219h313l-231 -195q109 -55 108 -188q0 -91 -62 -153q-61 -62 -159 -62z
M723 1104l446 -1104h-241l-99 242h-456l-97 -242h-243l446 1104h244z" />
    <glyph glyph-name="Aogonek.smcp" horiz-adv-x="1202" 
d="M602 840l-22 -64l-142 -354h328l-143 354zM965 -176q-1 -51 27 -80t79 -29t84 17l31 -119q-43 -25 -136 -25t-162 62t-69 175q0 114 101 191l-91 226h-456l-97 -242h-243l446 1104h244l446 -1104h-67q-137 -59 -137 -176z" />
    <glyph glyph-name="AE.smcp" horiz-adv-x="1593" 
d="M844 422v434l-35 -68l-244 -366h279zM1505 1104v-205h-436v-235h379v-199h-379v-260h436v-205h-661v242h-391l-166 -242h-262l731 1104h749z" />
    <glyph glyph-name="AEacute.smcp" horiz-adv-x="1603" 
d="M1374 1522l-297 -308h-205l215 308h287zM844 422v434l-35 -68l-244 -366h279zM1505 1104v-205h-436v-235h379v-199h-379v-260h436v-205h-661v242h-391l-166 -242h-262l731 1104h749z" />
    <glyph glyph-name="Cacute.smcp" horiz-adv-x="1224" 
d="M645 1124q209 0 337 -101t177 -278h-246q-61 172 -268 173q-147 0 -238 -102t-91 -263q0 -160 90 -263q92 -103 241 -104q213 0 281 183h235q-98 -389 -516 -389q-251 0 -407 162t-156 410t156 410t405 162zM1024 1561l-303 -324h-195l224 324h274z" />
    <glyph glyph-name="Ccircumflex.smcp" horiz-adv-x="1224" 
d="M719 1561l280 -324h-229l-127 176l-129 -176h-229l282 324h152zM645 1124q209 0 337 -101t177 -278h-246q-61 172 -268 173q-147 0 -238 -102t-91 -263q0 -160 90 -263q92 -103 241 -104q213 0 281 183h235q-98 -389 -516 -389q-251 0 -407 162t-156 410t156 410t405 162
z" />
    <glyph glyph-name="Ccaron.smcp" horiz-adv-x="1224" 
d="M645 1124q209 0 337 -101t177 -278h-246q-61 172 -268 173q-147 0 -238 -102t-91 -263q0 -160 90 -263q92 -103 241 -104q213 0 281 183h235q-98 -389 -516 -389q-251 0 -407 162t-156 410t156 410t405 162zM999 1538l-280 -324h-152l-282 324h229l129 -176l127 176h229z
" />
    <glyph glyph-name="Cdotaccent.smcp" horiz-adv-x="1224" 
d="M641 1522q59 0 100 -40t41 -98t-41 -97q-41 -40 -100 -40t-99 40t-40 97q0 58 40 98t99 40zM645 1124q209 0 337 -101t177 -278h-246q-61 172 -268 173q-147 0 -238 -102t-91 -263q0 -160 90 -263q92 -103 241 -104q213 0 281 183h235q-98 -389 -516 -389
q-251 0 -407 162t-156 410t156 410t405 162z" />
    <glyph glyph-name="Ccedilla.smcp" horiz-adv-x="1224" 
d="M645 1124q209 0 337 -101t177 -278h-246q-61 172 -268 173q-147 0 -238 -102t-91 -263q0 -160 90 -263q92 -103 241 -104q213 0 281 183h235q-94 -367 -473 -387l-18 -82q82 0 132 -46t50 -130t-61 -134t-169 -49q-108 0 -178 70l72 102q43 -51 121 -51t78 66t-80 65
q-31 0 -64 -8l-41 14l46 185q-223 23 -359 180q-135 158 -135 398t156 400q156 162 405 162z" />
    <glyph glyph-name="Dcaron.smcp" horiz-adv-x="1247" 
d="M569 895h-204v-686h204q174 0 269 90q94 90 94 254t-94 253q-95 89 -269 89zM569 1104q270 0 431 -153t161 -399t-161 -400q-161 -152 -431 -152h-428v1104h428zM928 1538l-281 -324h-151l-283 324h229l129 -176l127 176h230z" />
    <glyph glyph-name="Dcroat.smcp" horiz-adv-x="1265" 
d="M588 895h-205v-258h164v-154h-164v-274h205q174 0 268 90t94 254t-94 253t-268 89zM588 1104q270 0 431 -153t161 -399t-161 -400q-161 -152 -431 -152h-428v483h-121v154h121v467h428z" />
    <glyph glyph-name="Egrave.smcp" horiz-adv-x="899" 
d="M801 1104v-205h-436v-237h376v-197h-376v-260h436v-205h-660v1104h660zM373 1561l223 -324h-195l-303 324h275z" />
    <glyph glyph-name="Eacute.smcp" horiz-adv-x="899" 
d="M801 1104v-205h-436v-237h376v-197h-376v-260h436v-205h-660v1104h660zM874 1561l-303 -324h-194l223 324h274z" />
    <glyph glyph-name="Ecircumflex.smcp" horiz-adv-x="899" 
d="M563 1561l281 -324h-230l-127 176l-129 -176h-229l283 324h151zM801 1104v-205h-436v-237h376v-197h-376v-260h436v-205h-660v1104h660z" />
    <glyph glyph-name="Ecaron.smcp" horiz-adv-x="899" 
d="M801 1104v-205h-436v-237h376v-197h-376v-260h436v-205h-660v1104h660zM838 1538l-281 -324h-151l-283 324h229l129 -176l127 176h230z" />
    <glyph glyph-name="Edieresis.smcp" horiz-adv-x="899" 
d="M686 1493q53 0 91 -36t38 -89t-38 -89t-91 -36t-90 36t-37 89t37 89t90 36zM286 1493q54 0 91 -36t37 -89t-37 -89t-91 -36t-91 36t-37 89t37 89t91 36zM801 1104v-205h-436v-237h376v-197h-376v-260h436v-205h-660v1104h660z" />
    <glyph glyph-name="Emacron.smcp" horiz-adv-x="899" 
d="M754 1444v-170h-553v170h553zM801 1104v-205h-436v-237h376v-197h-376v-260h436v-205h-660v1104h660z" />
    <glyph glyph-name="Ebreve.smcp" horiz-adv-x="899" 
d="M801 1104v-205h-436v-237h376v-197h-376v-260h436v-205h-660v1104h660zM793 1518q0 -131 -87 -214q-86 -83 -224 -83t-224 83t-86 214h178q0 -66 36 -109t95 -43t96 43q36 43 35 109h181z" />
    <glyph glyph-name="Edotaccent.smcp" horiz-adv-x="899" 
d="M485 1522q59 0 101 -40t41 -98q0 -58 -41 -97q-40 -40 -100 -40t-100 40t-40 97q0 58 40 98t99 40zM801 1104v-205h-436v-237h376v-197h-376v-260h436v-205h-660v1104h660z" />
    <glyph glyph-name="Eogonek.smcp" horiz-adv-x="899" 
d="M801 1104v-205h-436v-237h376v-197h-376v-260h436v-205h-43q-137 -59 -137 -176q-1 -51 27 -80t79 -29t84 17l31 -119q-43 -25 -136 -25t-162 62t-69 170q0 109 82 180h-416v1104h660z" />
    <glyph glyph-name="Gcircumflex.smcp" horiz-adv-x="1271" 
d="M721 1561l280 -324h-229l-127 176l-129 -176h-229l282 324h152zM655 1124q209 0 342 -101t183 -275h-246q-70 172 -283 172q-147 0 -240 -102t-93 -264q0 -161 94 -265q96 -105 236 -105q283 -1 304 219h-276v191h512v-92q0 -246 -144 -384t-390 -138t-407 162t-161 410
t160 410t409 162z" />
    <glyph glyph-name="Gbreve.smcp" horiz-adv-x="1271" 
d="M655 1124q209 0 342 -101t183 -275h-246q-70 172 -283 172q-147 0 -240 -102t-93 -264q0 -161 94 -265q96 -105 236 -105q283 -1 304 219h-276v191h512v-92q0 -246 -144 -384t-390 -138t-407 162t-161 410t160 410t409 162zM956 1518q0 -131 -87 -214t-224 -83t-223 83
t-86 214h178q0 -66 36 -109t95 -43t95 43t36 109h180z" />
    <glyph glyph-name="Gdotaccent.smcp" horiz-adv-x="1271" 
d="M645 1522q59 0 100 -40t41 -98t-41 -97q-41 -40 -100 -40t-99 40t-40 97q0 58 40 98t99 40zM655 1124q209 0 342 -101t183 -275h-246q-70 172 -283 172q-147 0 -240 -102t-93 -264q0 -161 94 -265q96 -105 236 -105q283 -1 304 219h-276v191h512v-92q0 -246 -144 -384
t-390 -138t-407 162t-161 410t160 410t409 162z" />
    <glyph glyph-name="Gcommaaccent.smcp" horiz-adv-x="1271" 
d="M641 -90q59 0 99 -42t40 -120t-44 -172t-113 -164l-62 31q53 94 62 195q-53 6 -87 43t-34 92t40 96t99 41zM655 1124q209 0 342 -101t183 -275h-246q-70 172 -283 172q-147 0 -240 -102t-93 -264q0 -161 94 -265q96 -105 236 -105q283 -1 304 219h-276v191h512v-92
q0 -246 -144 -384t-390 -138t-407 162t-161 410t160 410t409 162z" />
    <glyph glyph-name="Hcircumflex.smcp" horiz-adv-x="1224" 
d="M688 1561l281 -324h-230l-127 176l-129 -176h-229l283 324h151zM1083 1104v-1104h-225v467h-493v-467h-224v1104h224v-428h493v428h225z" />
    <glyph glyph-name="Hbar.smcp" horiz-adv-x="1245" 
d="M373 676h493v149h-493v-149zM1092 1104v-139h116v-140h-116v-825h-226v467h-493v-467h-223v825h-113v140h113v139h223v-139h493v139h226z" />
    <glyph glyph-name="Igrave.smcp" horiz-adv-x="505" 
d="M365 1104v-1104h-224v1104h224zM141 1559l224 -324h-195l-303 324h274z" />
    <glyph glyph-name="Iacute.smcp" horiz-adv-x="505" 
d="M365 1104v-1104h-224v1104h224zM639 1559l-303 -324h-195l224 324h274z" />
    <glyph glyph-name="Icircumflex.smcp" horiz-adv-x="505" 
d="M336 1559l280 -324h-229l-127 176l-129 -176h-229l282 324h152zM365 1104v-1104h-224v1104h224z" />
    <glyph glyph-name="Itilde.smcp" horiz-adv-x="505" 
d="M365 1104v-1104h-224v1104h224zM135 1520q57 0 99 -23t62 -49q51 -72 103 -72q76 0 76 125h135q0 -125 -55 -201t-164 -75q-57 1 -99 23t-62 49q-51 75 -103 73q-76 0 -76 -127h-135q0 127 55 202t164 75z" />
    <glyph glyph-name="Idieresis.smcp" horiz-adv-x="505" 
d="M461 1491q53 0 91 -36t38 -89t-38 -89t-91 -36t-90 36t-37 89t37 89t90 36zM60 1491q54 0 92 -36t36 -89q0 -53 -36 -89t-92 -36q-54 0 -91 36t-37 89t37 89t91 36zM365 1104v-1104h-224v1104h224z" />
    <glyph glyph-name="Imacron.smcp" horiz-adv-x="505" 
d="M539 1442v-170h-553v170h553zM365 1104v-1104h-224v1104h224z" />
    <glyph glyph-name="Ibreve.smcp" horiz-adv-x="505" 
d="M365 1104v-1104h-224v1104h224zM571 1516q0 -131 -87 -214t-224 -83t-223 83t-86 214h178q0 -66 36 -109t95 -43t95 43t36 109h180z" />
    <glyph glyph-name="Idotaccent.smcp" horiz-adv-x="505" 
d="M256 1520q59 0 100 -40t41 -98t-41 -97q-41 -40 -100 -40t-99 40t-40 97q0 58 40 98t99 40zM365 1104v-1104h-224v1104h224z" />
    <glyph glyph-name="Iogonek.smcp" horiz-adv-x="505" 
d="M365 1104v-1104h-74q-123 -55 -123 -170q0 -51 28 -80t78 -29t84 17l31 -119q-43 -25 -136 -25t-162 62t-68 168q0 133 118 211v1069h224z" />
    <glyph glyph-name="Jcircumflex.smcp" horiz-adv-x="905" 
d="M748 1559l280 -324h-229l-127 176l-129 -176h-230l283 324h152zM778 1104v-754q0 -172 -95 -266t-267 -94t-265 101t-98 278h223q6 -168 146 -168q133 0 133 157v746h223z" />
    <glyph glyph-name="Kcommaaccent.smcp" horiz-adv-x="1167" 
d="M588 -72q59 0 99 -42t40 -120t-44 -172t-114 -163l-61 30q53 94 61 195q-53 6 -87 43t-34 93t40 96q41 40 100 40zM369 0h-224v1104h224v-555l405 555h270l-358 -496l434 -608h-268l-322 434l-161 -198v-236z" />
    <glyph glyph-name="Lacute.smcp" horiz-adv-x="890" 
d="M365 1104v-895h479v-209h-703v1104h224zM641 1561l-303 -324h-195l224 324h274z" />
    <glyph glyph-name="Lcaron.smcp" horiz-adv-x="901" 
d="M756 1180q59 0 100 -42t41 -110q0 -195 -160 -377l-65 25q53 104 67 231q-53 6 -88 43t-35 92t40 97q41 41 100 41zM365 1104v-895h479v-209h-703v1104h224z" />
    <glyph glyph-name="Lcommaaccent.smcp" horiz-adv-x="901" 
d="M489 -74q59 0 99 -42t41 -120q0 -78 -44 -172t-114 -163l-61 30q53 94 61 195q-53 6 -87 43t-34 92t40 96t99 41zM365 1104v-895h479v-209h-703v1104h224z" />
    <glyph glyph-name="Lslash.smcp" horiz-adv-x="927" 
d="M393 1104v-455l131 47l51 -145l-182 -64v-278h479v-209h-702v410l-117 -39l-51 143l168 57v533h223z" />
    <glyph glyph-name="Ldot.smcp" horiz-adv-x="897" 
d="M688 700q62 0 104 -41t42 -101t-42 -102t-104 -42t-102 42q-41 42 -41 102t41 101t102 41zM365 1104v-895h479v-209h-703v1104h224z" />
    <glyph glyph-name="Nacute.smcp" horiz-adv-x="1247" 
d="M1106 1104v-1104h-221l-475 662l-45 73v-735h-224v1104h224l473 -664l45 -75v739h223zM1024 1559l-303 -324h-195l224 324h274z" />
    <glyph glyph-name="Ncaron.smcp" horiz-adv-x="1247" 
d="M1106 1104v-1104h-221l-475 662l-45 73v-735h-224v1104h224l473 -664l45 -75v739h223zM999 1536l-280 -324h-152l-282 324h229l129 -176l127 176h229z" />
    <glyph glyph-name="Ntilde.smcp" horiz-adv-x="1247" 
d="M1106 1104v-1104h-221l-475 662l-45 73v-735h-224v1104h224l473 -664l45 -75v739h223zM514 1520q57 0 99 -23t62 -49q51 -72 103 -72q76 0 76 125h135q0 -125 -55 -201t-164 -75q-57 1 -99 23t-62 49q-51 75 -103 73q-76 0 -76 -127h-135q0 127 55 202t164 75z" />
    <glyph glyph-name="Ncommaaccent.smcp" horiz-adv-x="1247" 
d="M624 -72q58 0 98 -42t40 -120t-44 -172t-114 -163l-61 30q53 94 61 195q-53 6 -87 43t-34 93t41 96q42 40 100 40zM1106 1104v-1104h-221l-475 662l-45 73v-735h-224v1104h224l473 -664l45 -75v739h223z" />
    <glyph glyph-name="Ograve.smcp" horiz-adv-x="1337" 
d="M1014 553q0 161 -94 263t-253 102t-253 -102t-94 -263q0 -162 94 -264q96 -103 254 -103t252 102t94 265zM668 1124q256 0 418 -160t161 -411q0 -250 -162 -412q-161 -161 -417 -161t-418 162t-162 411q0 251 162 411t418 160zM551 1561l223 -324h-194l-304 324h275z" />
    <glyph glyph-name="Oacute.smcp" horiz-adv-x="1337" 
d="M1014 553q0 161 -94 263t-253 102t-253 -102t-94 -263q0 -162 94 -264q96 -103 254 -103t252 102t94 265zM668 1124q256 0 418 -160t161 -411q0 -250 -162 -412q-161 -161 -417 -161t-418 162t-162 411q0 251 162 411t418 160zM1051 1561l-303 -324h-195l223 324h275z
" />
    <glyph glyph-name="Ocircumflex.smcp" horiz-adv-x="1337" 
d="M745 1561l281 -324h-229l-127 176l-129 -176h-230l283 324h151zM1014 553q0 161 -94 263t-253 102t-253 -102t-94 -263q0 -162 94 -264q96 -103 254 -103t252 102t94 265zM668 1124q256 0 418 -160t161 -411q0 -250 -162 -412q-161 -161 -417 -161t-418 162t-162 411
q0 251 162 411t418 160z" />
    <glyph glyph-name="Otilde.smcp" horiz-adv-x="1337" 
d="M1014 553q0 161 -94 263t-253 102t-253 -102t-94 -263q0 -162 94 -264q96 -103 254 -103t252 102t94 265zM668 1124q256 0 418 -160t161 -411q0 -250 -162 -412q-161 -161 -417 -161t-418 162t-162 411q0 251 162 411t418 160zM543 1522q57 0 99 -23t61 -49
q51 -72 104 -72q76 0 76 125h135q0 -125 -55 -201t-164 -75q-57 1 -99 23t-62 50q-51 74 -103 72q-76 0 -76 -127h-135q0 127 55 202t164 75z" />
    <glyph glyph-name="Odieresis.smcp" horiz-adv-x="1337" 
d="M868 1493q53 0 91 -36t38 -89t-38 -89t-91 -36t-90 36t-37 89t37 89t90 36zM468 1493q54 0 91 -36t37 -89t-37 -89t-91 -36t-91 36t-37 89t37 89t91 36zM1014 553q0 161 -94 263t-253 102t-253 -102t-94 -263q0 -162 94 -264q96 -103 254 -103t252 102t94 265zM668 1124
q256 0 418 -160t161 -411q0 -250 -162 -412q-161 -161 -417 -161t-418 162t-162 411q0 251 162 411t418 160z" />
    <glyph glyph-name="Omacron.smcp" horiz-adv-x="1337" 
d="M946 1444v-170h-553v170h553zM1014 553q0 161 -94 263t-253 102t-253 -102t-94 -263q0 -162 94 -264q96 -103 254 -103t252 102t94 265zM668 1124q256 0 418 -160t161 -411q0 -250 -162 -412q-161 -161 -417 -161t-418 162t-162 411q0 251 162 411t418 160z" />
    <glyph glyph-name="Obreve.smcp" horiz-adv-x="1337" 
d="M1014 553q0 161 -94 263t-253 102t-253 -102t-94 -263q0 -162 94 -264q96 -103 254 -103t252 102t94 265zM668 1124q256 0 418 -160t161 -411q0 -250 -162 -412q-161 -161 -417 -161t-418 162t-162 411q0 251 162 411t418 160zM981 1518q0 -131 -87 -214t-224 -83
t-224 83q-86 83 -86 214h179q-1 -66 35 -109t96 -43t95 43q36 43 36 109h180z" />
    <glyph glyph-name="Ohungarumlaut.smcp" horiz-adv-x="1337" 
d="M1147 1561l-215 -324h-184l167 324h232zM778 1561l-215 -324h-186l168 324h233zM1014 553q0 161 -94 263t-253 102t-253 -102t-94 -263q0 -162 94 -264q96 -103 254 -103t252 102t94 265zM668 1124q256 0 418 -160t161 -411q0 -250 -162 -412q-161 -161 -417 -161
t-418 162t-162 411q0 251 162 411t418 160z" />
    <glyph glyph-name="Oslash.smcp" horiz-adv-x="1337" 
d="M1014 551q0 160 -90 260l-373 -608q47 -16 117 -17q158 0 252 102t94 263zM668 918q-160 0 -254 -102t-94 -265q0 -164 94 -264l374 612q-54 19 -120 19zM668 1124q119 0 231 -43l88 144l139 -80l-86 -141q207 -164 207 -451q0 -250 -162 -412t-417 -161q-119 0 -230 38
l-86 -141l-139 80l86 141q-211 162 -211 455q0 251 162 411t418 160z" />
    <glyph glyph-name="Oslashacute.smcp" horiz-adv-x="1337" 
d="M1055 1548l-303 -323h-195l223 323h275zM1014 548q0 157 -86 259l-371 -606q49 -14 111 -15q158 0 252 102t94 260zM668 918q-160 0 -254 -102t-94 -263q0 -162 90 -258l370 606q-55 17 -112 17zM668 1124q117 0 223 -39l86 140l158 -80l-91 -146q203 -164 203 -430
t-162 -428t-417 -161q-113 0 -224 36l-86 -141l-155 82l90 145q-205 162 -205 451q0 251 162 411t418 160z" />
    <glyph glyph-name="OE.smcp" horiz-adv-x="1775" 
d="M667 918q-157 0 -254 -102t-97 -263q0 -160 96 -263q98 -104 257 -104t253 102t94 265v14q-4 155 -98 253t-251 98zM1675 1104v-205h-436v-237h377v-197h-377v-260h436v-205h-659v119q-145 -139 -378 -139q-234 0 -394 162t-160 411q0 248 161 410t410 161
q211 0 361 -139v119h659z" />
    <glyph glyph-name="Racute.smcp" horiz-adv-x="978" 
d="M862 1559l-303 -324h-194l223 324h274zM492 899h-127v-297h127q82 0 128 38t46 110t-46 110t-128 39zM492 1104q184 0 294 -97t109 -257q0 -203 -186 -291l235 -459h-250l-209 416h-120v-416h-224v1104h351z" />
    <glyph glyph-name="Rcaron.smcp" horiz-adv-x="978" 
d="M492 899h-127v-297h127q82 0 128 38t46 110t-46 110t-128 39zM831 1536l-280 -324h-152l-282 324h229l129 -176l127 176h229zM492 1104q184 0 294 -97t109 -257q0 -203 -186 -291l235 -459h-250l-209 416h-120v-416h-224v1104h351z" />
    <glyph glyph-name="Rcommaaccent.smcp" horiz-adv-x="978" 
d="M492 899h-127v-297h127q82 0 128 38t46 110t-46 110t-128 39zM529 -72q59 0 99 -42t40 -120t-44 -172t-114 -163l-61 30q53 94 61 195q-53 6 -87 43t-34 93t41 96t99 40zM492 1104q184 0 294 -97t109 -257q0 -203 -186 -291l235 -459h-250l-209 416h-120v-416h-224v1104
h351z" />
    <glyph glyph-name="Sacute.smcp" horiz-adv-x="935" 
d="M467 1124q164 0 259 -85t103 -240h-221q0 69 -39 105t-102 36t-98 -33t-35 -92t43 -90t191 -81t220 -127q74 -77 74 -219t-106 -230t-286 -88t-283 98t-105 256h219q10 -170 180 -170q74 0 116 37t42 93t-47 92q-48 36 -186 81t-218 120t-80 214t98 231q97 92 261 92z
M856 1559l-303 -324h-195l224 324h274z" />
    <glyph glyph-name="Scircumflex.smcp" horiz-adv-x="935" 
d="M549 1559l280 -324h-229l-127 176l-129 -176h-229l282 324h152zM467 1124q164 0 259 -85t103 -240h-221q0 69 -39 105t-102 36t-98 -33t-35 -92t43 -90t191 -81t220 -127q74 -77 74 -219t-106 -230t-286 -88t-283 98t-105 256h219q10 -170 180 -170q74 0 116 37t42 93
t-47 92q-48 36 -186 81t-218 120t-80 214t98 231q97 92 261 92z" />
    <glyph glyph-name="Scaron.smcp" horiz-adv-x="935" 
d="M467 1124q164 0 259 -85t103 -240h-221q0 69 -39 105t-102 36t-98 -33t-35 -92t43 -90t191 -81t220 -127q74 -77 74 -219t-106 -230t-286 -88t-283 98t-105 256h219q10 -170 180 -170q74 0 116 37t42 93t-47 92q-48 36 -186 81t-218 120t-80 214t98 231q97 92 261 92z
M829 1536l-280 -324h-152l-282 324h229l129 -176l127 176h229z" />
    <glyph glyph-name="Scedilla.smcp" horiz-adv-x="950" 
d="M471 1124q164 0 259 -85t104 -240h-222q0 69 -39 105t-102 36t-98 -33t-35 -92t43 -90t191 -81t221 -127t73 -213t-96 -224t-248 -98l-18 -82q82 0 132 -46t50 -130t-61 -134t-169 -49q-108 0 -177 70l71 102q43 -51 121 -51t78 66t-80 65q-31 0 -63 -8l-41 14l45 185
q-156 18 -239 113t-85 237h219q10 -170 180 -170q74 0 116 37t42 93t-47 92q-48 36 -186 81t-218 120t-79 214q0 139 97 231t261 92z" />
    <glyph glyph-name="Scommaaccent.smcp" horiz-adv-x="946" 
d="M473 -84q59 0 99 -42t40 -120t-44 -172t-113 -164l-62 31q53 94 62 195q-53 6 -87 43t-34 93t40 96t99 40zM471 1124q164 0 259 -85t104 -240h-222q0 69 -39 105t-102 36t-98 -33t-35 -92t43 -90t191 -81t221 -127q74 -77 73 -202q0 -159 -106 -247t-286 -88t-283 98
t-105 256h219q10 -170 180 -170q74 0 116 37t42 93t-47 92q-48 36 -186 81t-218 120t-79 214q0 139 97 231t261 92z" />
    <glyph glyph-name="germandbls.smcp" horiz-adv-x="1093" 
d="M561 1124q248 0 416 -172l-225 -295q122 -16 196 -98t74 -205q0 -168 -106 -266t-306 -98q-59 0 -145 12l6 207q73 -16 145 -16q72 -1 124 39t52 119t-73 121q-74 42 -203 42l-22 90l202 268q-51 48 -140 48t-143 -54t-55 -145v-721h-225v717q-1 179 111 293t317 114z
" />
    <glyph glyph-name="Tcaron.smcp" horiz-adv-x="1013" 
d="M991 1104v-209h-373v-895h-223v895h-372v209h968zM866 1536l-280 -324h-152l-282 324h229l129 -176l127 176h229z" />
    <glyph glyph-name="Tcommaaccent.smcp" horiz-adv-x="1013" 
d="M505 -74q58 0 98 -42t40 -120t-44 -172t-114 -163l-61 30q53 94 61 195q-53 6 -87 43t-34 92t42 96q41 41 99 41zM991 1104v-209h-373v-895h-223v895h-372v209h968z" />
    <glyph glyph-name="Tbar.smcp" horiz-adv-x="1013" 
d="M991 1104v-209h-373v-295h236v-154h-236v-446h-223v446h-235v154h235v295h-372v209h968z" />
    <glyph glyph-name="Ugrave.smcp" horiz-adv-x="1185" 
d="M1059 1104v-660q0 -221 -122 -343q-122 -121 -344 -121t-344 122t-122 342v660h225v-660q0 -258 241 -258t241 258v660h225zM473 1559l223 -324h-194l-303 324h274z" />
    <glyph glyph-name="Uacute.smcp" horiz-adv-x="1185" 
d="M1059 1104v-660q0 -221 -122 -343q-122 -121 -344 -121t-344 122t-122 342v660h225v-660q0 -258 241 -258t241 258v660h225zM975 1559l-303 -324h-195l223 324h275z" />
    <glyph glyph-name="Ucircumflex.smcp" horiz-adv-x="1185" 
d="M670 1559l280 -324h-229l-127 176l-129 -176h-229l282 324h152zM1059 1104v-660q0 -221 -122 -343q-122 -121 -344 -121t-344 122t-122 342v660h225v-660q0 -258 241 -258t241 258v660h225z" />
    <glyph glyph-name="Utilde.smcp" horiz-adv-x="1185" 
d="M1059 1104v-660q0 -221 -122 -343q-122 -121 -344 -121t-344 122t-122 342v660h225v-660q0 -258 241 -258t241 258v660h225zM467 1520q57 0 99 -23t62 -49q51 -72 103 -72q76 0 76 125h135q0 -125 -55 -201t-164 -75q-57 1 -99 23t-62 49q-51 75 -103 73q-76 0 -76 -127
h-135q0 127 55 202t164 75z" />
    <glyph glyph-name="Udieresis.smcp" horiz-adv-x="1185" 
d="M793 1491q53 0 91 -36t38 -89t-38 -89t-91 -36t-91 36q-37 36 -36 89q0 53 36 89q38 36 91 36zM392 1491q54 0 91 -36t37 -89t-37 -89t-91 -36t-91 36t-37 89t37 89t91 36zM1059 1104v-660q0 -221 -122 -343q-122 -121 -344 -121t-344 122t-122 342v660h225v-660
q0 -258 241 -258t241 258v660h225z" />
    <glyph glyph-name="Umacron.smcp" horiz-adv-x="1185" 
d="M870 1442v-170h-553v170h553zM1059 1104v-660q0 -221 -122 -343q-122 -121 -344 -121t-344 122t-122 342v660h225v-660q0 -258 241 -258t241 258v660h225z" />
    <glyph glyph-name="Ubreve.smcp" horiz-adv-x="1185" 
d="M1059 1104v-660q0 -221 -122 -343q-122 -121 -344 -121t-344 122t-122 342v660h225v-660q0 -258 241 -258t241 258v660h225zM903 1516q0 -131 -87 -214t-224 -83t-223 83t-86 214h178q0 -66 36 -109t95 -43t95 43t36 109h180z" />
    <glyph glyph-name="Uring.smcp" horiz-adv-x="1185" 
d="M1059 1104v-660q0 -221 -122 -343q-122 -121 -344 -121t-344 122t-122 342v660h225v-660q0 -258 241 -258t241 258v660h225zM593 1509q-42 1 -70 -27q-27 -28 -27 -69t28 -70t69 -29q42 0 70 30q28 28 27 69q0 41 -27 69q-28 27 -70 27zM593 1628q97 0 159 -61t63 -155
q0 -94 -62 -154q-61 -62 -159 -62t-161 61q-62 61 -62 155t62 155q63 61 160 61z" />
    <glyph glyph-name="Uhungarumlaut.smcp" horiz-adv-x="1185" 
d="M1071 1559l-215 -324h-184l168 324h231zM702 1559l-215 -324h-186l168 324h233zM1059 1104v-660q0 -221 -122 -343q-122 -121 -344 -121t-344 122t-122 342v660h225v-660q0 -258 241 -258t241 258v660h225z" />
    <glyph glyph-name="Uogonek.smcp" horiz-adv-x="1185" 
d="M1059 1104v-660q0 -174 -77 -288t-218 -154q-92 -51 -92 -154q0 -52 28 -80t78 -28q51 0 84 16l31 -118q-43 -25 -136 -25t-162 61q-69 60 -69 154t41 152q-211 8 -325 129t-115 335v660h225v-660q0 -258 241 -258t241 258v660h225z" />
    <glyph glyph-name="Wgrave.smcp" horiz-adv-x="1660" 
d="M1626 1104l-348 -1104h-236l-196 643l-15 74l-16 -74l-197 -643h-233l-350 1104h235l222 -707l14 -80l16 80l207 707h205l209 -707l12 -80l19 80l217 707h235zM711 1561l223 -324h-195l-303 324h275z" />
    <glyph glyph-name="Wacute.smcp" horiz-adv-x="1660" 
d="M1626 1104l-348 -1104h-236l-196 643l-15 74l-16 -74l-197 -643h-233l-350 1104h235l222 -707l14 -80l16 80l207 707h205l209 -707l12 -80l19 80l217 707h235zM1212 1561l-303 -324h-194l223 324h274z" />
    <glyph glyph-name="Wcircumflex.smcp" horiz-adv-x="1660" 
d="M905 1561l281 -324h-230l-127 176l-129 -176h-229l283 324h151zM1626 1104l-348 -1104h-236l-196 643l-15 74l-16 -74l-197 -643h-233l-350 1104h235l222 -707l14 -80l16 80l207 707h205l209 -707l12 -80l19 80l217 707h235z" />
    <glyph glyph-name="Wdieresis.smcp" horiz-adv-x="1660" 
d="M1030 1493q53 0 91 -36t38 -89t-38 -89t-91 -36t-90 36t-37 89t37 89t90 36zM630 1493q54 0 91 -36t37 -89t-37 -89t-91 -36t-91 36t-37 89t37 89t91 36zM1626 1104l-348 -1104h-236l-196 643l-15 74l-16 -74l-197 -643h-233l-350 1104h235l222 -707l14 -80l16 80
l207 707h205l209 -707l12 -80l19 80l217 707h235z" />
    <glyph glyph-name="Ygrave.smcp" horiz-adv-x="1142" 
d="M682 0h-223v410l-434 694h258l247 -399l41 -76l41 76l248 399h256l-434 -694v-410zM449 1561l223 -324h-195l-303 324h275z" />
    <glyph glyph-name="Yacute.smcp" horiz-adv-x="1142" 
d="M682 0h-223v410l-434 694h258l247 -399l41 -76l41 76l248 399h256l-434 -694v-410zM950 1561l-303 -324h-194l223 324h274z" />
    <glyph glyph-name="Ycircumflex.smcp" horiz-adv-x="1142" 
d="M645 1561l281 -324h-230l-127 176l-129 -176h-229l283 324h151zM682 0h-223v410l-434 694h258l247 -399l41 -76l41 76l248 399h256l-434 -694v-410z" />
    <glyph glyph-name="Ydieresis.smcp" horiz-adv-x="1142" 
d="M768 1493q53 0 91 -36t38 -89t-38 -89t-91 -36t-90 36t-37 89t37 89t90 36zM368 1493q54 0 91 -36t37 -89t-37 -89t-91 -36t-92 36q-37 36 -36 89q0 53 36 89q38 36 92 36zM682 0h-223v410l-434 694h258l247 -399l41 -76l41 76l248 399h256l-434 -694v-410z" />
    <glyph glyph-name="Zacute.smcp" horiz-adv-x="1009" 
d="M913 1104v-182l-546 -713h569v-209h-856v182l551 713h-547v209h829zM903 1561l-303 -324h-194l223 324h274z" />
    <glyph glyph-name="Zcaron.smcp" horiz-adv-x="1009" 
d="M913 1104v-182l-546 -713h569v-209h-856v182l551 713h-547v209h829zM877 1538l-281 -324h-152l-282 324h229l129 -176l127 176h230z" />
    <glyph glyph-name="Zdotaccent.smcp" horiz-adv-x="1009" 
d="M520 1522q58 0 100 -40t42 -98t-41 -97q-41 -40 -101 -40t-99 40q-40 40 -40 97q0 58 40 98t99 40zM913 1104v-182l-546 -713h569v-209h-856v182l551 713h-547v209h829z" />
    <glyph glyph-name="Eng.smcp" horiz-adv-x="1247" 
d="M1106 1104v-1094q0 -174 -96 -262t-275 -88v193q147 0 148 147v2l-473 660l-45 73v-735h-224v1104h224l473 -664l45 -75v739h223z" />
    <glyph glyph-name="Eth.smcp" horiz-adv-x="1265" 
d="M588 895h-205v-258h164v-154h-164v-274h205q174 0 268 90t94 254t-94 253t-268 89zM588 1104q270 0 431 -153t161 -399t-161 -400q-161 -152 -431 -152h-428v483h-121v154h121v467h428z" />
    <glyph glyph-name="Thorn.smcp" horiz-adv-x="1011" 
d="M545 741h-180v-278h180q76 0 121 38q45 39 45 103t-45 100t-121 37zM365 1104v-162h182q178 0 286 -93q107 -93 107 -245t-108 -247t-285 -95h-182v-262h-224v1104h224z" />
    <glyph glyph-name="exclam.smcp" horiz-adv-x="493" 
d="M245 236q54 0 93 -37t39 -90t-38 -89t-93 -36t-93 36t-38 88q0 54 38 91t92 37zM352 1104v-756h-213v756h213z" />
    <glyph glyph-name="exclamdown.smcp" horiz-adv-x="493" 
d="M245 858q-54 0 -93 37t-39 90t38 89t93 36t93 -36t38 -89t-38 -90t-92 -37zM137 -10v755h213v-755h-213z" />
    <glyph glyph-name="question.smcp" horiz-adv-x="774" 
d="M370 236q54 0 92 -37t38 -90t-38 -89t-93 -36t-94 35q-37 35 -37 89t38 91q40 37 94 37zM381 1126q147 0 247 -82t99 -223q0 -96 -39 -167q-39 -70 -86 -104q-125 -89 -125 -163v-39h-213v47q0 74 41 131t90 89t90 83t41 119t-38 104q-38 35 -106 35t-110 -40
q-41 -40 -41 -111h-198q1 149 101 235t247 86z" />
    <glyph glyph-name="questiondown.smcp" horiz-adv-x="774" 
d="M394 872q-54 0 -92 37t-38 90t38 89t93 36t93 -36t38 -88q0 -54 -39 -91t-93 -37zM383 -18q-147 0 -247 81q-99 82 -99 224q0 96 39 167q39 70 86 104q125 89 125 163v39h213v-47q0 -74 -41 -131t-90 -89t-90 -83t-41 -119t38 -104q38 -35 106 -35q69 0 110 40t40 111
h199q-1 -149 -101 -235t-247 -86z" />
    <glyph glyph-name="parenleft.smcp" horiz-adv-x="512" 
d="M291 547q0 -172 48 -299t155 -266l-148 -99q-127 145 -192 302q-66 157 -66 362t66 363t192 302l148 -100q-106 -139 -154 -266t-49 -299z" />
    <glyph glyph-name="parenright.smcp" horiz-adv-x="512" 
d="M424 546q0 -204 -66 -360t-190 -303l-150 99q109 137 157 265t48 300t-48 300t-157 265l150 100q124 -147 190 -304q66 -158 66 -362z" />
    <glyph glyph-name="bracketleft.smcp" horiz-adv-x="571" 
d="M520 1169v-190h-182v-868h182v-191h-381v1249h381z" />
    <glyph glyph-name="bracketright.smcp" horiz-adv-x="571" 
d="M432 1169v-1249h-381v191h180v868h-180v190h381z" />
    <glyph glyph-name="braceleft.smcp" horiz-adv-x="542" 
d="M492 1169v-190h-31q-106 0 -107 -113v-151q0 -137 -118 -170q119 -35 118 -170v-152q0 -113 107 -112h31v-191h-39q-145 0 -220 79q-74 79 -73 218v123q0 113 -107 113h-22v184h22q106 0 107 113v122q0 139 73 219q74 79 220 78h39z" />
    <glyph glyph-name="braceright.smcp" horiz-adv-x="542" 
d="M90 1169q145 -1 220 -79t75 -218v-122q0 -113 107 -113h18v-184h-18q-106 0 -107 -113v-123q0 -139 -75 -218t-220 -79h-39v191h31q106 0 106 112v152q0 135 119 170q-119 33 -119 170v151q0 113 -106 113h-31v190h39z" />
    <glyph glyph-name="zero.smcp" horiz-adv-x="987" 
d="M496 918q-182 0 -182 -366t182 -366q88 0 134 96t46 271q0 173 -46 269t-134 96zM494 1124q195 0 300 -152t105 -419q0 -268 -105 -421q-105 -152 -300 -152t-300 152t-106 421q0 267 106 419t300 152z" />
    <glyph glyph-name="one.smcp" horiz-adv-x="679" 
d="M541 1104v-1104h-224v758h-241v190q141 0 211 34t90 122h164z" />
    <glyph glyph-name="two.smcp" horiz-adv-x="864" 
d="M444 1124q164 0 252 -87t88 -241t-141 -311l-240 -276h385v-209h-696v162l352 399q61 68 88 118t27 114q0 125 -119 125q-63 0 -98 -38t-33 -112h-225q-2 162 97 259t263 97z" />
    <glyph glyph-name="three.smcp" horiz-adv-x="944" 
d="M462 1124q163 0 257 -91t94 -230q0 -89 -42 -147t-101 -81q78 -23 130 -86t52 -170q0 -159 -103 -249t-279 -90t-280 95q-102 95 -102 265h221q2 -76 47 -115t117 -39t113 39t41 103q0 150 -199 149h-66v182h62q166 0 166 127q0 60 -33 96t-92 36t-96 -37t-37 -109h-223
q0 164 95 258t258 94z" />
    <glyph glyph-name="four.smcp" horiz-adv-x="989" 
d="M547 385v444l-31 -61l-229 -383h260zM766 1104v-717h147v-192h-147v-195h-223v195h-480v180l431 729h272z" />
    <glyph glyph-name="five.smcp" horiz-adv-x="940" 
d="M797 1104v-207h-441v-227q74 31 158 30q152 0 247 -85t95 -257t-101 -275t-277 -103t-277 90q-100 90 -101 256h224q0 -68 42 -104t114 -36t112 46q41 46 41 123t-42 121t-121 44t-138 -37h-199v621h664z" />
    <glyph glyph-name="six.smcp" horiz-adv-x="966" 
d="M493 176q73 0 119 49t45 120q1 71 -45 120t-117 49t-121 -49t-50 -119t48 -120t121 -50zM502 -20q-410 0 -410 550q0 298 102 446t312 148q154 0 252 -92t104 -244h-227q-8 129 -137 130q-178 0 -181 -320q76 84 226 84q149 0 243 -92t94 -251t-104 -259
q-106 -100 -274 -100z" />
    <glyph glyph-name="seven.smcp" horiz-adv-x="882" 
d="M795 1104v-180l-420 -924h-242l410 895h-459v209h711z" />
    <glyph glyph-name="eight.smcp" horiz-adv-x="962" 
d="M481 932q-61 0 -100 -40t-39 -102t39 -101q39 -38 101 -38t101 38q38 38 38 100t-39 103q-40 40 -101 40zM647 324q0 70 -48 112t-118 43q-69 0 -117 -43q-48 -42 -48 -112t48 -111t118 -41t118 41q47 41 47 111zM482 1124q157 0 255 -95t99 -232q0 -81 -38 -141t-87 -91
q158 -78 157 -248q0 -145 -112 -241t-275 -96t-275 96t-112 241q0 176 156 248q-121 81 -121 225t98 239t255 95z" />
    <glyph glyph-name="nine.smcp" horiz-adv-x="968" 
d="M478 590q71 0 121 49t50 119t-48 120t-121 50t-119 -49t-46 -120t46 -120t117 -49zM471 1124q410 0 410 -551q1 -299 -101 -446t-313 -147q-154 0 -252 92t-104 243h227q8 -129 137 -129q88 0 133 75t47 243q-75 -82 -225 -82t-244 92t-94 251t106 259t273 100z" />
    <glyph glyph-name="ampersand.smcp" horiz-adv-x="1165" 
d="M618 853q0 44 -29 76q-30 32 -78 32t-81 -31q-33 -30 -34 -74q-2 -44 10 -63t14 -24t12 -18t12 -17t13 -14q11 -11 26 -30q92 55 115 86q20 33 20 77zM315 297q0 -150 206 -150q97 0 169 60l-246 258q-70 -47 -100 -82q-29 -35 -29 -86zM496 -20q-190 0 -298 86
q-110 86 -110 225q0 100 53 166t156 125l22 12l-26 29q-37 37 -57 63q-58 77 -59 182q-1 104 87 180t236 76t243 -74t95 -190q0 -117 -56 -179t-161 -120l-9 -4l179 -184l6 26q20 80 12 152l201 6q25 -176 -68 -342l209 -215h-260l-74 76q-131 -96 -321 -96z" />
    <glyph glyph-name="Euro.smcp" horiz-adv-x="1067" 
d="M608 485v-137h-200q53 -172 190 -172q76 0 121 44t55 124h242q-76 -365 -416 -364q-162 0 -272 96t-152 272h-129v137h111q-2 19 -2 67t2 73h-111v137h131q41 172 152 267t270 95q350 0 416 -362h-242q-20 166 -176 166q-137 0 -190 -166h200v-137h-225q-2 -23 -2 -71
t2 -69h225z" />
    <glyph glyph-name="dollar.smcp" horiz-adv-x="972" 
d="M557 1276v-158q125 -20 197 -102t80 -217h-222q0 69 -39 105t-102 36t-98 -33t-35 -92t43 -90t191 -81t221 -127t73 -209t-85 -219t-224 -105v-164h-156v166q-153 20 -233 114t-82 234h219q10 -170 180 -170q74 0 116 37t42 93t-47 92q-48 36 -186 81t-218 120t-79 205
q0 130 76 218q77 88 212 108v158h156z" />
    <glyph glyph-name="cent.smcp" horiz-adv-x="962" 
d="M575 971v-158q121 -18 202 -95t100 -204h-203q-39 111 -174 111q-86 1 -144 -63t-59 -162q0 -98 59 -162t135 -64q144 0 183 111h207q-25 -125 -107 -200t-199 -93v-162h-153v160q-154 24 -248 134t-94 274t94 277q94 114 248 138v158h153z" />
    <glyph glyph-name="sterling.smcp" horiz-adv-x="923" 
d="M618 610v-151h-180q6 -31 6 -68q0 -82 -47 -145l-18 -35h201q61 0 88 28t26 89h195q-2 -162 -85 -245t-235 -83h-510v55l74 90q94 119 94 252q0 31 -6 62h-168v151h117q-47 106 -47 189q0 145 96 235t251 90t249 -86t98 -243h-205q0 61 -37 99t-97 38t-97 -36t-37 -106
t47 -180h227z" />
    <glyph glyph-name="florin.smcp" horiz-adv-x="636" 
d="M563 1169q63 0 109 -16l-19 -186q-37 16 -82 16q-109 0 -125 -109l-8 -73h195l-19 -193h-196l-78 -688q-14 -133 -99 -205t-225 -71q-53 0 -110 14l20 188q41 -18 82 -18q115 0 125 109l74 671h-135l20 193h135l11 90q16 133 101 205t224 73z" />
    <glyph glyph-name="yen.smcp" horiz-adv-x="1140" 
d="M915 541v-146h-219v-106h219v-144h-219v-145h-223v145h-213v144h213v106h-213v146h131l-352 563h258l248 -399l41 -76l41 76l247 399h256l-352 -563h137z" />
    <glyph glyph-name="F.smcp_I.smcp" horiz-adv-x="1361" 
d="M1219 1104v-1104h-224v1104h224zM791 1104v-205h-426v-254h360v-196h-360v-449h-224v1104h650z" />
    <glyph glyph-name="F.smcp_J.smcp" horiz-adv-x="1660" 
d="M1532 1104v-754q0 -172 -95 -266t-267 -94t-266 101q-93 101 -97 278h223q6 -168 146 -168q133 0 133 157v746h223zM791 1104v-205h-426v-254h360v-196h-360v-449h-224v1104h650z" />
    </font>
</defs>
</svg>
