<?xml version="1.0" encoding="UTF-8"?>
<svg width="409px" height="83px" viewBox="0 0 409 83" version="1.1" xmlns="http://www.w3.org/2000/svg" xmlns:xlink="http://www.w3.org/1999/xlink">
    <!-- Generator: Sketch 55.2 (78181) - https://sketchapp.com -->
    <title>wheeler-centre-logo</title>
    <desc>Created with Sketch.</desc>
    <g id="Page-1" stroke="none" stroke-width="1" fill="none" fill-rule="evenodd">
        <g id="Artboard" transform="translate(-37.000000, -51.000000)" fill="#000000" fill-rule="nonzero">
            <g id="wheeler-centre-logo" transform="translate(37.000000, 51.000000)">
                <path d="M70.6,0 L0,0 L0,59.5 C0,72.4 10.6,83 23.5,83 L70.6,83 C83.5,83 94.1,72.4 94.1,59.5 L94.1,23.5 C94.1,10.6 83.5,0 70.6,0 Z M62.9,65.5 L56.7,65.5 L47,46.3 L37.3,65.5 L31.1,65.5 L9.6,22.6 L15.5,22.6 L34.3,60 L37.8,53.1 L22.3,22.6 L28.2,22.6 L40.7,47.4 L44.2,40.5 L35.2,22.6 L41,22.6 L47.1,34.7 L53.2,22.6 L59,22.6 L50,40.5 L53.5,47.4 L66,22.6 L71.9,22.6 L56.4,53.2 L59.9,60.1 L78.8,22.7 L84.7,22.7 L62.9,65.5 Z" id="Shape"></path>
                <g id="Group" transform="translate(114.000000, 46.000000)">
                    <g>
                        <path d="M0.4,0.2 L8.9,0.2 C11,0.2 13.7,0.2 15.1,1.1 C16.6,2 17.9,3.7 17.9,6 C17.9,8.5 16.6,10.4 14.4,11.3 L14.4,11.4 C17.3,12 18.9,14.2 18.9,17.1 C18.9,20.6 16.4,23.9 11.8,23.9 L0.4,23.9 L0.4,0.2 Z M3.5,10.3 L9.8,10.3 C13.4,10.3 14.8,9 14.8,6.5 C14.8,3.2 12.5,2.8 9.8,2.8 L3.5,2.8 L3.5,10.3 L3.5,10.3 Z M3.5,21.1 L11.3,21.1 C14,21.1 15.7,19.5 15.7,16.9 C15.7,13.8 13.2,13 10.6,13 L3.5,13 L3.5,21.1 Z" id="Shape"></path>
                        <path d="M28.7,6.3 C34.1,6.3 37,10.2 37,15.2 C37,20.2 34.1,24.1 28.7,24.1 C23.3,24.1 20.4,20.2 20.4,15.2 C20.4,10.2 23.3,6.3 28.7,6.3 Z M28.7,21.7 C31.6,21.7 34,19.4 34,15.3 C34,11.1 31.6,8.8 28.7,8.8 C25.8,8.8 23.4,11.1 23.4,15.3 C23.4,19.4 25.8,21.7 28.7,21.7 Z" id="Shape"></path>
                        <path d="M46.4,6.3 C51.8,6.3 54.7,10.2 54.7,15.2 C54.7,20.2 51.8,24.1 46.4,24.1 C41,24.1 38.1,20.2 38.1,15.2 C38.2,10.2 41,6.3 46.4,6.3 Z M46.4,21.7 C49.3,21.7 51.7,19.4 51.7,15.3 C51.7,11.1 49.3,8.8 46.4,8.8 C43.5,8.8 41.1,11.1 41.1,15.3 C41.1,19.4 43.5,21.7 46.4,21.7 Z" id="Shape"></path>
                        <polygon id="Path" points="57 0.2 59.8 0.2 59.8 14.1 67.6 6.7 71.4 6.7 64.6 12.9 71.8 23.7 68.2 23.7 62.4 14.8 59.8 17.2 59.8 23.7 57 23.7"></polygon>
                        <path d="M74.5,18.4 C74.6,20.9 76.8,21.7 79.1,21.7 C80.8,21.7 83.2,21.3 83.2,19.2 C83.2,17 80.4,16.7 77.6,16 C74.8,15.4 72,14.5 72,11.2 C72,7.8 75.4,6.4 78.4,6.4 C82.2,6.4 85.2,7.6 85.4,11.7 L82.6,11.7 C82.4,9.5 80.5,8.8 78.6,8.8 C76.9,8.8 75,9.3 75,11 C75,13 78,13.3 80.6,14 C83.4,14.6 86.2,15.5 86.2,18.8 C86.2,22.9 82.4,24.2 79,24.2 C75.2,24.2 72,22.7 71.8,18.4 L74.5,18.4 L74.5,18.4 Z" id="Path"></path>
                    </g>
                    <g transform="translate(91.000000, 0.000000)">
                        <polygon id="Path" points="24.3 23.7 21 23.7 15.6 3.9 15.5 3.9 10.1 23.7 6.8 23.7 0.8 0.2 4 0.2 8.6 19.8 8.7 19.8 14 0.2 17.4 0.2 22.6 19.8 22.7 19.8 27.5 0.2 30.6 0.2"></polygon>
                        <path d="M31.3,6.7 L33.9,6.7 L33.9,10.3 L34,10.3 C35.4,7.6 37.2,6.2 40.3,6.3 L40.3,9.3 C35.8,9.3 34.1,11.9 34.1,16.2 L34.1,23.8 L31.3,23.8 L31.3,6.7 Z" id="Path"></path>
                        <path d="M44.1,3.6 L41.3,3.6 L41.3,0.2 L44.1,0.2 L44.1,3.6 Z M41.3,6.7 L44.1,6.7 L44.1,23.7 L41.3,23.7 L41.3,6.7 Z" id="Shape"></path>
                        <path d="M51.2,6.7 L54.6,6.7 L54.6,9.2 L51.2,9.2 L51.2,19.8 C51.2,21.1 51.6,21.3 53.3,21.3 L54.6,21.3 L54.6,23.8 L52.5,23.8 C49.6,23.8 48.4,23.2 48.4,20.1 L48.4,9.1 L45.5,9.1 L45.5,6.6 L48.4,6.6 L48.4,1.5 L51.2,1.5 L51.2,6.7 Z" id="Path"></path>
                        <path d="M59.5,3.6 L56.7,3.6 L56.7,0.2 L59.5,0.2 L59.5,3.6 Z M56.7,6.7 L59.5,6.7 L59.5,23.7 L56.7,23.7 L56.7,6.7 Z" id="Shape"></path>
                        <path d="M62.7,6.7 L65.3,6.7 L65.3,9.4 L65.4,9.4 C66.6,7.3 68.5,6.3 70.9,6.3 C75.4,6.3 76.8,8.9 76.8,12.5 L76.8,23.7 L74,23.7 L74,12.2 C74,10.1 72.7,8.8 70.5,8.8 C67.1,8.8 65.5,11.1 65.5,14.1 L65.5,23.7 L62.7,23.7 L62.7,6.7 Z" id="Path"></path>
                        <path d="M94.6,22.2 C94.6,27.7 92.1,30.6 86.7,30.6 C83.5,30.6 79.8,29.3 79.7,25.6 L82.5,25.6 C82.6,27.6 85.1,28.4 86.9,28.4 C90.6,28.4 92,25.8 92,21.9 L92,20.8 L91.9,20.8 C91,22.9 88.7,23.9 86.6,23.9 C81.5,23.9 79,19.9 79,15.3 C79,11.3 81,6.3 86.9,6.3 C89,6.3 91,7.3 92,9.1 L92,9.1 L92.1,9.1 L92.1,6.7 L94.7,6.7 L94.7,22.2 L94.6,22.2 Z M91.8,14.8 C91.8,11.8 90.5,8.7 87,8.7 C83.4,8.7 82,11.6 82,14.9 C82,18 83.1,21.4 86.8,21.4 C90.4,21.4 91.8,18 91.8,14.8 Z" id="Shape"></path>
                    </g>
                    <g transform="translate(196.000000, 0.000000)">
                        <polygon id="Path" points="0.1 0.1 3.2 0.1 3.2 23.6 0.1 23.6"></polygon>
                        <path d="M22.1,23.6 L19.3,23.6 L19.3,21.3 L19.2,21.3 C18.3,23.2 16.1,24 13.8,24 C8.6,24 6,19.8 6,15 C6,10.2 8.6,6.1 13.8,6.1 C15.5,6.1 18,6.8 19.3,8.8 L19.4,8.8 L19.4,0 L22.2,0 L22.2,23.6 L22.1,23.6 Z M14.2,21.6 C18,21.6 19.4,18.4 19.4,15.2 C19.4,11.8 17.9,8.7 14,8.7 C10.2,8.7 8.9,12 8.9,15.3 C9,18.5 10.6,21.6 14.2,21.6 Z" id="Shape"></path>
                        <path d="M39.8,18.2 C39,22 36.3,24 32.5,24 C27.1,24 24.5,20.2 24.3,15 C24.3,9.9 27.7,6.1 32.3,6.1 C38.3,6.1 40.2,11.7 40,15.8 L27.3,15.8 C27.2,18.8 28.9,21.4 32.6,21.4 C34.9,21.4 36.5,20.3 37,18.1 L39.8,18.1 L39.8,18.2 Z M37.1,13.5 C37,10.8 35,8.7 32.2,8.7 C29.3,8.7 27.5,10.9 27.3,13.5 L37.1,13.5 Z" id="Shape"></path>
                        <path d="M56.9,23.6 C56.4,23.9 55.8,24.1 54.9,24.1 C53.4,24.1 52.5,23.3 52.5,21.5 C51,23.3 48.9,24.1 46.5,24.1 C43.4,24.1 40.9,22.7 40.9,19.3 C40.9,15.4 43.8,14.6 46.7,14.1 C49.8,13.5 52.4,13.7 52.4,11.6 C52.4,9.2 50.4,8.8 48.6,8.8 C46.2,8.8 44.5,9.5 44.4,12 L41.6,12 C41.8,7.8 45,6.3 48.8,6.3 C51.9,6.3 55.2,7 55.2,11 L55.2,19.8 C55.2,21.1 55.2,21.7 56.1,21.7 C56.3,21.7 56.6,21.7 57,21.5 L57,23.6 L56.9,23.6 Z M52.4,14.8 C51.3,15.6 49.2,15.6 47.3,15.9 C45.5,16.2 43.9,16.9 43.9,19 C43.9,20.8 45.5,21.5 47.2,21.5 C50.9,21.5 52.4,19.2 52.4,17.6 L52.4,14.8 Z" id="Shape"></path>
                        <path d="M60.1,18.3 C60.2,20.8 62.4,21.6 64.7,21.6 C66.4,21.6 68.8,21.2 68.8,19.1 C68.8,16.9 66,16.6 63.2,15.9 C60.4,15.3 57.6,14.4 57.6,11.1 C57.6,7.7 61,6.3 64,6.3 C67.8,6.3 70.8,7.5 71,11.6 L68.2,11.6 C68,9.4 66.1,8.7 64.2,8.7 C62.5,8.7 60.6,9.2 60.6,10.9 C60.6,12.9 63.6,13.2 66.2,13.9 C69,14.5 71.8,15.4 71.8,18.7 C71.8,22.8 68,24.1 64.6,24.1 C60.8,24.1 57.6,22.6 57.4,18.3 L60.1,18.3 L60.1,18.3 Z" id="Path"></path>
                    </g>
                </g>
                <g id="Group" transform="translate(114.000000, 11.000000)">
                    <g>
                        <polygon id="Path" points="20.4 0.2 20.4 6.7 17.5 6.7 17.2 3.6 12.2 3.6 12.2 22.7 15.3 23 15.3 26 5.5 26 5.5 23.1 8.6 22.8 8.6 3.6 3.6 3.6 3.3 6.7 0.4 6.7 0.4 0.2"></polygon>
                        <path d="M28,9.3 C29.2,8.7 30.7,8.4 32,8.4 C36.2,8.4 38.3,10.5 38.3,13.9 L38.3,22.8 L41.4,23.1 L41.4,26 L34.8,26 L34.8,13.8 C34.8,12.2 33.6,11.6 32,11.6 C30.3,11.6 28.9,12 28,12.4 L28,22.7 L31.1,23 L31.1,26 L21.4,26 L21.4,23.1 L24.5,22.8 L24.5,3.4 L21.4,3.1 L21.4,0.2 L28,0.2 L28,9.3 Z" id="Path"></path>
                        <path d="M45.5,19 C45.8,21.3 46.9,23.1 49.8,23.1 C52,23.1 53.6,22.8 55.7,21.9 L55.7,25.2 C53.5,26.2 51.4,26.4 49.8,26.4 C44.3,26.4 41.8,22.8 41.8,17.3 C41.8,11.9 44.3,8.2 49.8,8.2 C55.8,8.2 56.8,12.6 56.8,17.4 L56.8,19 L45.5,19 Z M45.4,16 L53.1,16 C53.1,13.7 52.6,11.6 49.8,11.6 C46.8,11.6 45.7,13.6 45.4,16 Z" id="Shape"></path>
                    </g>
                    <g transform="translate(60.000000, 0.000000)">
                        <polygon id="Path" points="19.3 0.2 24.6 19.8 27.3 3.5 23.9 3.1 23.9 0.2 34.7 0.2 34.7 3.1 31.1 3.5 26.6 26 23.3 26 17.6 6 11.9 26 8.6 26 4 3.5 0.4 3.1 0.4 0.2 11.2 0.2 11.2 3.1 7.8 3.5 10.5 19.8 15.8 0.2"></polygon>
                        <path d="M40.6,9.3 C41.8,8.7 43.3,8.4 44.6,8.4 C48.8,8.4 50.9,10.5 50.9,13.9 L50.9,22.8 L54,23.1 L54,26 L47.4,26 L47.4,13.8 C47.4,12.2 46.2,11.6 44.6,11.6 C42.9,11.6 41.5,12 40.6,12.4 L40.6,22.7 L43.7,23 L43.7,26 L34,26 L34,23.1 L37.1,22.8 L37.1,3.4 L34,3.1 L34,0.2 L40.6,0.2 L40.6,9.3 Z" id="Path"></path>
                        <path d="M58.1,19 C58.4,21.3 59.5,23.1 62.4,23.1 C64.6,23.1 66.2,22.8 68.3,21.9 L68.3,25.2 C66.1,26.2 64,26.4 62.4,26.4 C56.9,26.4 54.4,22.8 54.4,17.3 C54.4,11.8 56.9,8.2 62.4,8.2 C68.4,8.2 69.4,12.6 69.4,17.4 L69.4,19 L58.1,19 Z M58.1,16 L65.8,16 C65.8,13.7 65.3,11.6 62.5,11.6 C59.4,11.6 58.3,13.6 58.1,16 Z" id="Shape"></path>
                        <path d="M75.1,19 C75.4,21.3 76.5,23.1 79.4,23.1 C81.6,23.1 83.2,22.8 85.3,21.9 L85.3,25.2 C83.1,26.2 81,26.4 79.4,26.4 C73.9,26.4 71.4,22.8 71.4,17.3 C71.4,11.8 73.9,8.2 79.4,8.2 C85.4,8.2 86.4,12.6 86.4,17.4 L86.4,19 L75.1,19 Z M75,16 L82.7,16 C82.7,13.7 82.2,11.6 79.4,11.6 C76.4,11.6 75.3,13.6 75,16 Z" id="Shape"></path>
                        <polygon id="Path" points="93.7 22.8 96.8 23.1 96.8 26 87.1 26 87.1 23.1 90.2 22.8 90.2 3.4 87.1 3.1 87.1 0.2 93.7 0.2 93.7 22.8"></polygon>
                        <path d="M101.2,19 C101.5,21.3 102.6,23.1 105.5,23.1 C107.7,23.1 109.3,22.8 111.4,21.9 L111.4,25.2 C109.2,26.2 107.1,26.4 105.5,26.4 C100,26.4 97.5,22.8 97.5,17.3 C97.5,11.8 100,8.2 105.5,8.2 C111.5,8.2 112.5,12.6 112.5,17.4 L112.5,19 L101.2,19 Z M101.2,16 L108.9,16 C108.9,13.7 108.4,11.6 105.6,11.6 C102.5,11.6 101.4,13.6 101.2,16 Z" id="Shape"></path>
                        <path d="M120.1,9.7 C121.6,8.8 123.2,8.3 124.9,8.3 C126.2,8.3 127.3,8.5 128.1,8.7 L128.1,14.4 L125.2,14.4 L124.9,11.5 C123.1,11.5 121.9,11.9 120.9,12.3 L120.9,22.6 L124,22.9 L124,26 L114.3,26 L114.3,23.1 L117.4,22.8 L117.4,12 L114.3,11.7 L114.3,8.8 L119.8,8.8 L120.1,9.7 Z" id="Path"></path>
                    </g>
                    <g transform="translate(195.000000, 0.000000)">
                        <path d="M11.9,0.2 C15,0.2 17.3,0.8 18.9,1.4 L18.9,7.5 L16,7.5 L15.6,3.9 C14.3,3.6 13.2,3.5 11.9,3.5 C6.8,3.5 4.3,7.6 4.3,13.2 C4.3,18.8 6.8,22.9 11.9,22.9 C13.2,22.9 14.3,22.8 15.6,22.5 L16,18.9 L18.9,18.9 L18.9,25 C17.3,25.7 15,26.2 11.9,26.2 C4.1,26.2 0.5,20.3 0.5,13.1 C0.6,6.1 4.1,0.2 11.9,0.2 Z" id="Path"></path>
                        <path d="M24.4,19 C24.7,21.3 25.8,23.1 28.7,23.1 C30.9,23.1 32.5,22.8 34.6,21.9 L34.6,25.2 C32.4,26.2 30.3,26.4 28.7,26.4 C23.2,26.4 20.7,22.8 20.7,17.3 C20.7,11.9 23.2,8.2 28.7,8.2 C34.7,8.2 35.7,12.6 35.7,17.4 L35.7,19 L24.4,19 Z M24.3,16 L32,16 C32,13.7 31.5,11.6 28.7,11.6 C25.7,11.6 24.6,13.6 24.3,16 Z" id="Shape"></path>
                        <path d="M43.3,9.7 C44.7,8.8 46.5,8.3 48.1,8.3 C52.3,8.3 54.4,10.4 54.4,13.8 L54.4,22.7 L57.5,23 L57.5,26 L50.9,26 L50.9,13.8 C50.9,12.2 49.7,11.6 48.1,11.6 C46.4,11.6 45,12 44.1,12.4 L44.1,22.7 L47.2,23 L47.2,26 L37.5,26 L37.5,23.1 L40.6,22.8 L40.6,12 L37.5,11.7 L37.5,8.8 L43,8.8 L43.3,9.7 Z" id="Path"></path>
                        <path d="M67.3,26.2 C66.8,26.4 65.9,26.4 65.5,26.4 C61.2,26.4 59.6,24.6 59.6,21.3 L59.6,12 L56.5,12 L56.5,9.1 L59.6,8.8 L59.6,3.3 L63.1,2.9 L63.1,8.8 L68.2,8.8 L68.2,12 L63,12 L63,21.3 C63,22.4 63.4,23.2 65.4,23.2 C66.2,23.2 66.9,23.1 67.2,23 L67.2,26.2 L67.3,26.2 Z" id="Path"></path>
                        <path d="M75.3,9.7 C76.8,8.8 78.4,8.3 80.1,8.3 C81.4,8.3 82.5,8.5 83.3,8.7 L83.3,14.4 L80.4,14.4 L80.1,11.5 C78.3,11.5 77.1,11.9 76.1,12.3 L76.1,22.6 L79.2,22.9 L79.2,26 L69.5,26 L69.5,23.1 L72.6,22.8 L72.6,12 L69.5,11.7 L69.5,8.8 L75,8.8 L75.3,9.7 Z" id="Path"></path>
                        <path d="M88.4,19 C88.7,21.3 89.8,23.1 92.7,23.1 C94.9,23.1 96.5,22.8 98.6,21.9 L98.6,25.2 C96.4,26.2 94.3,26.4 92.7,26.4 C87.2,26.4 84.7,22.8 84.7,17.3 C84.7,11.9 87.2,8.2 92.7,8.2 C98.7,8.2 99.7,12.6 99.7,17.4 L99.7,19 L88.4,19 Z M88.4,16 L96.1,16 C96.1,13.7 95.6,11.6 92.8,11.6 C89.7,11.6 88.7,13.6 88.4,16 Z" id="Shape"></path>
                    </g>
                </g>
            </g>
        </g>
    </g>
</svg>